<svg class="m-image" style="width: 524px; height: 128px;" viewBox="0 0 524 128" xmlns="http://www.w3.org/2000/svg" xmlns:xlink="http://www.w3.org/1999/xlink">
  <rect x="484" y="20" width="4" height="4" style="fill:#ecd13a"/>
  <rect x="488" y="20" width="4" height="4" style="fill:#52fa7a"/>
  <rect x="484" y="16" width="4" height="4" style="fill:#d83706"/>
  <rect x="488" y="16" width="4" height="4" style="fill:#9cfe40"/>
  <rect x="460" y="12" width="4" height="4" style="fill:#ac1701"/>
  <rect x="464" y="12" width="4" height="4" style="fill:#fe932a"/>
  <rect x="460" y="8" width="4" height="4" style="fill:#27bee9"/>
  <rect x="464" y="8" width="4" height="4" style="fill:#eecf3a"/>
  <rect x="468" y="12" width="4" height="4" style="fill:#96fe44"/>
  <rect x="460" y="24" width="8" height="8" style="fill:#2ab9ee"/>
  <rect x="468" y="24" width="8" height="8" style="fill:#980e01"/>
  <rect x="460" y="16" width="8" height="8" style="fill:#18dec0"/>
  <rect x="468" y="16" width="8" height="8" style="fill:#f8721c"/>
  <rect x="476" y="24" width="8" height="8" style="fill:#4294ff"/>
  <rect x="484" y="24" width="8" height="8" style="fill:#b9f635"/>
  <rect x="476" y="16" width="8" height="8" style="fill:#38276d"/>
  <rect x="492" y="48" width="16" height="16" style="fill:#d23105"/>
  <rect x="508" y="48" width="16" height="16" style="fill:#d63506"/>
  <rect x="492" y="32" width="16" height="16" style="fill:#9e1001"/>
  <rect x="508" y="32" width="16" height="16" style="fill:#3e9bfe"/>
  <rect x="396" y="32" width="32" height="32" style="fill:#4040a2"/>
  <rect x="428" y="32" width="32" height="32" style="fill:#1ad4d0"/>
  <rect x="396" y="0" width="32" height="32" style="fill:#19e3b9"/>
  <rect x="428" y="0" width="32" height="32" style="fill:#3d358b"/>
  <rect x="460" y="32" width="32" height="32" style="fill:#cc2b04"/>
  <rect x="264" y="64" width="64" height="64" style="fill:#466be3"/>
  <rect x="328" y="64" width="64" height="64" style="fill:#448ffe"/>
  <rect x="264" y="0" width="64" height="64" style="fill:#3ba0fd"/>
  <rect x="328" y="0" width="64" height="64" style="fill:#7e0502"/>
  <rect x="396" y="64" width="64" height="64" style="fill:#3ba0fd"/>
  <rect x="460" y="64" width="64" height="64" style="fill:#28bceb"/>
  <rect x="0" y="0" width="128" height="128" style="fill:#92ff47"/>
  <rect x="132" y="0" width="128" height="128" style="fill:#ec530f"/>
</svg>
