<svg class="m-image" style="width: 512px; height: 150px;" viewBox="0 0 512 150" xmlns="http://www.w3.org/2000/svg" xmlns:xlink="http://www.w3.org/1999/xlink">
  <rect x="327" y="9" width="5" height="11" style="fill:#27bee9"/>
  <rect x="473" y="7" width="3" height="12" style="fill:#f8be39"/>
  <rect x="215" y="5" width="4" height="5" style="fill:#dd3d08"/>
  <rect x="65" y="31" width="9" height="12" style="fill:#e7490c"/>
  <rect x="245" y="99" width="10" height="16" style="fill:#e9d539"/>
  <rect x="254" y="84" width="12" height="15" style="fill:#19e2bb"/>
  <rect x="501" y="31" width="11" height="12" style="fill:#e84b0c"/>
  <rect x="247" y="6" width="3" height="4" style="fill:#25eca7"/>
  <rect x="413" y="56" width="4" height="14" style="fill:#ebd339"/>
  <rect x="422" y="56" width="5" height="14" style="fill:#4682f8"/>
  <rect x="101" y="2" width="8" height="8" style="fill:#f26014"/>
  <rect x="109" y="2" width="7" height="8" style="fill:#950d01"/>
  <rect x="271" y="6" width="2" height="4" style="fill:#3ff68a"/>
  <rect x="273" y="6" width="2" height="4" style="fill:#3e9bfe"/>
  <rect x="281" y="7" width="3" height="3" style="fill:#f8721c"/>
  <rect x="433" y="55" width="7" height="14" style="fill:#cdec34"/>
  <rect x="304" y="32" width="10" height="12" style="fill:#da3907"/>
  <rect x="501" y="7" width="5" height="12" style="fill:#3d9efe"/>
  <rect x="261" y="20" width="8" height="12" style="fill:#2ab9ee"/>
  <rect x="253" y="20" width="8" height="12" style="fill:#321543"/>
  <rect x="56" y="30" width="9" height="12" style="fill:#2ff19b"/>
  <rect x="47" y="30" width="9" height="12" style="fill:#4669e0"/>
  <rect x="38" y="30" width="9" height="12" style="fill:#fe9029"/>
  <rect x="70" y="19" width="7" height="12" style="fill:#4391fe"/>
  <rect x="29" y="30" width="9" height="12" style="fill:#e5470b"/>
  <rect x="20" y="30" width="9" height="12" style="fill:#3c3286"/>
  <rect x="92" y="1" width="3" height="9" style="fill:#88ff4e"/>
  <rect x="320" y="9" width="3" height="11" style="fill:#3b2f80"/>
  <rect x="238" y="10" width="8" height="10" style="fill:#22ebaa"/>
  <rect x="123" y="2" width="6" height="8" style="fill:#f7c13a"/>
  <rect x="230" y="10" width="8" height="10" style="fill:#4680f6"/>
  <rect x="63" y="18" width="7" height="12" style="fill:#2aefa1"/>
  <rect x="422" y="70" width="14" height="14" style="fill:#d0ea34"/>
  <rect x="490" y="31" width="11" height="12" style="fill:#35f394"/>
  <rect x="294" y="33" width="10" height="12" style="fill:#2eb4f2"/>
  <rect x="284" y="32" width="10" height="12" style="fill:#acfb38"/>
  <rect x="479" y="31" width="11" height="12" style="fill:#f36315"/>
  <rect x="245" y="20" width="8" height="12" style="fill:#da3907"/>
  <rect x="237" y="20" width="8" height="12" style="fill:#351e58"/>
  <rect x="468" y="31" width="11" height="12" style="fill:#4664da"/>
  <rect x="457" y="31" width="11" height="12" style="fill:#efcd3a"/>
  <rect x="470" y="7" width="3" height="12" style="fill:#36215f"/>
  <rect x="464" y="69" width="5" height="15" style="fill:#d4e735"/>
  <rect x="274" y="32" width="10" height="12" style="fill:#4773eb"/>
  <rect x="229" y="20" width="8" height="12" style="fill:#f66c19"/>
  <rect x="332" y="57" width="12" height="13" style="fill:#b4f836"/>
  <rect x="446" y="31" width="11" height="12" style="fill:#af1801"/>
  <rect x="320" y="57" width="12" height="13" style="fill:#f56918"/>
  <rect x="11" y="30" width="9" height="12" style="fill:#ed5510"/>
  <rect x="499" y="100" width="13" height="16" style="fill:#d2e935"/>
  <rect x="264" y="32" width="10" height="12" style="fill:#af1801"/>
  <rect x="254" y="32" width="10" height="12" style="fill:#b9f635"/>
  <rect x="221" y="20" width="8" height="12" style="fill:#a4fc3c"/>
  <rect x="244" y="32" width="10" height="12" style="fill:#fe962b"/>
  <rect x="435" y="30" width="11" height="12" style="fill:#19d5cd"/>
  <rect x="207" y="132" width="12" height="18" style="fill:#458cfd"/>
  <rect x="424" y="30" width="11" height="12" style="fill:#4146ac"/>
  <rect x="413" y="31" width="11" height="12" style="fill:#cc2b04"/>
  <rect x="2" y="30" width="9" height="12" style="fill:#b91e02"/>
  <rect x="459" y="69" width="5" height="15" style="fill:#b4f836"/>
  <rect x="329" y="44" width="7" height="13" style="fill:#4294ff"/>
  <rect x="454" y="69" width="5" height="15" style="fill:#455ed3"/>
  <rect x="116" y="10" width="8" height="9" style="fill:#4680f6"/>
  <rect x="169" y="4" width="2" height="7" style="fill:#8e0a01"/>
  <rect x="231" y="5" width="3" height="5" style="fill:#5dfc6f"/>
  <rect x="108" y="10" width="8" height="9" style="fill:#341b51"/>
  <rect x="13" y="55" width="9" height="13" style="fill:#fcb336"/>
  <rect x="100" y="10" width="8" height="9" style="fill:#1fe9af"/>
  <rect x="4" y="55" width="9" height="13" style="fill:#a9fb39"/>
  <rect x="205" y="11" width="9" height="9" style="fill:#75fe5c"/>
  <rect x="36" y="18" width="6" height="12" style="fill:#950d01"/>
  <rect x="0" y="42" width="9" height="13" style="fill:#faba39"/>
  <rect x="9" y="42" width="9" height="13" style="fill:#f4c73a"/>
  <rect x="467" y="7" width="3" height="12" style="fill:#18dbc5"/>
  <rect x="369" y="84" width="5" height="16" style="fill:#9ffd3f"/>
  <rect x="225" y="44" width="8" height="13" style="fill:#37a8fa"/>
  <rect x="406" y="43" width="5" height="13" style="fill:#31aff5"/>
  <rect x="168" y="70" width="9" height="14" style="fill:#c1f334"/>
  <rect x="196" y="11" width="9" height="9" style="fill:#f76f1a"/>
  <rect x="291" y="10" width="9" height="10" style="fill:#d4e735"/>
  <rect x="18" y="42" width="9" height="13" style="fill:#4661d6"/>
  <rect x="27" y="42" width="9" height="13" style="fill:#f7c13a"/>
  <rect x="78" y="1" width="5" height="9" style="fill:#c6f034"/>
  <rect x="92" y="10" width="8" height="9" style="fill:#3c3286"/>
  <rect x="30" y="18" width="6" height="12" style="fill:#1fc9dd"/>
  <rect x="187" y="11" width="9" height="9" style="fill:#3f3e9c"/>
  <rect x="282" y="10" width="9" height="10" style="fill:#19e3b9"/>
  <rect x="36" y="42" width="9" height="13" style="fill:#ebd339"/>
  <rect x="84" y="10" width="8" height="9" style="fill:#eecf3a"/>
  <rect x="233" y="44" width="8" height="13" style="fill:#46f884"/>
  <rect x="60" y="0" width="6" height="9" style="fill:#3cf58e"/>
  <rect x="364" y="84" width="5" height="16" style="fill:#e5470b"/>
  <rect x="338" y="84" width="3" height="16" style="fill:#a7fc3a"/>
  <rect x="359" y="84" width="5" height="16" style="fill:#c3f134"/>
  <rect x="88" y="1" width="4" height="9" style="fill:#fdac34"/>
  <rect x="464" y="7" width="3" height="12" style="fill:#3f3b97"/>
  <rect x="213" y="20" width="8" height="12" style="fill:#e14109"/>
  <rect x="205" y="20" width="8" height="12" style="fill:#80ff53"/>
  <rect x="418" y="7" width="9" height="11" style="fill:#a7fc3a"/>
  <rect x="503" y="19" width="9" height="12" style="fill:#18ddc2"/>
  <rect x="436" y="69" width="3" height="15" style="fill:#18dbc5"/>
  <rect x="336" y="44" width="7" height="13" style="fill:#e3db38"/>
  <rect x="201" y="5" width="2" height="6" style="fill:#4664da"/>
  <rect x="408" y="70" width="14" height="14" style="fill:#bef434"/>
  <rect x="176" y="5" width="4" height="6" style="fill:#efcd3a"/>
  <rect x="135" y="3" width="6" height="7" style="fill:#18dbc5"/>
  <rect x="217" y="10" width="5" height="10" style="fill:#d4e735"/>
  <rect x="129" y="2" width="2" height="8" style="fill:#d83706"/>
  <rect x="394" y="70" width="14" height="14" style="fill:#b71d02"/>
  <rect x="203" y="5" width="2" height="6" style="fill:#448ffe"/>
  <rect x="141" y="3" width="6" height="7" style="fill:#faba39"/>
  <rect x="222" y="10" width="8" height="10" style="fill:#f7c13a"/>
  <rect x="158" y="4" width="4" height="7" style="fill:#d0ea34"/>
  <rect x="162" y="4" width="4" height="7" style="fill:#a7fc3a"/>
  <rect x="250" y="6" width="3" height="4" style="fill:#f4c73a"/>
  <rect x="25" y="68" width="8" height="14" style="fill:#18e0bd"/>
  <rect x="284" y="7" width="3" height="3" style="fill:#e1dd37"/>
  <rect x="205" y="6" width="5" height="5" style="fill:#6dfe62"/>
  <rect x="166" y="4" width="3" height="7" style="fill:#4685fa"/>
  <rect x="171" y="5" width="5" height="6" style="fill:#cdec34"/>
  <rect x="147" y="4" width="6" height="7" style="fill:#a4fc3c"/>
  <rect x="308" y="58" width="12" height="13" style="fill:#faba39"/>
  <rect x="381" y="70" width="13" height="14" style="fill:#f8be39"/>
  <rect x="296" y="58" width="12" height="13" style="fill:#7a0403"/>
  <rect x="56" y="18" width="7" height="12" style="fill:#b91e02"/>
  <rect x="389" y="133" width="11" height="17" style="fill:#ce2d04"/>
  <rect x="400" y="133" width="11" height="17" style="fill:#8bff4b"/>
  <rect x="411" y="133" width="11" height="17" style="fill:#4af880"/>
  <rect x="183" y="84" width="11" height="15" style="fill:#ea4e0d"/>
  <rect x="242" y="84" width="12" height="15" style="fill:#3ba0fd"/>
  <rect x="172" y="84" width="11" height="15" style="fill:#acfb38"/>
  <rect x="486" y="100" width="13" height="16" style="fill:#38f491"/>
  <rect x="235" y="99" width="10" height="16" style="fill:#3aa3fc"/>
  <rect x="171" y="115" width="8" height="17" style="fill:#fd8a26"/>
  <rect x="163" y="115" width="8" height="17" style="fill:#448ffe"/>
  <rect x="155" y="115" width="8" height="17" style="fill:#79fe59"/>
  <rect x="13" y="82" width="8" height="15" style="fill:#84ff51"/>
  <rect x="44" y="113" width="5" height="17" style="fill:#cc2b04"/>
  <rect x="39" y="113" width="5" height="17" style="fill:#4099ff"/>
  <rect x="34" y="113" width="5" height="17" style="fill:#f1cb3a"/>
  <rect x="475" y="69" width="6" height="15" style="fill:#8b0902"/>
  <rect x="439" y="43" width="12" height="12" style="fill:#3cf58e"/>
  <rect x="161" y="84" width="11" height="15" style="fill:#dc3b07"/>
  <rect x="286" y="133" width="13" height="17" style="fill:#467df4"/>
  <rect x="299" y="133" width="13" height="17" style="fill:#fe992c"/>
  <rect x="312" y="133" width="13" height="17" style="fill:#466be3"/>
  <rect x="292" y="85" width="13" height="15" style="fill:#18dbc5"/>
  <rect x="279" y="85" width="13" height="15" style="fill:#b7f735"/>
  <rect x="116" y="2" width="7" height="8" style="fill:#3f3e9c"/>
  <rect x="325" y="133" width="13" height="17" style="fill:#880802"/>
  <rect x="414" y="116" width="10" height="17" style="fill:#4146ac"/>
  <rect x="404" y="116" width="10" height="17" style="fill:#8fff49"/>
  <rect x="394" y="116" width="10" height="17" style="fill:#92ff47"/>
  <rect x="118" y="84" width="10" height="15" style="fill:#3ff68a"/>
  <rect x="422" y="133" width="11" height="17" style="fill:#d43305"/>
  <rect x="234" y="32" width="10" height="12" style="fill:#ea4e0d"/>
  <rect x="224" y="32" width="10" height="12" style="fill:#e7d739"/>
  <rect x="241" y="44" width="8" height="13" style="fill:#a71401"/>
  <rect x="249" y="44" width="8" height="13" style="fill:#3f3b97"/>
  <rect x="257" y="44" width="8" height="13" style="fill:#d2e935"/>
  <rect x="197" y="20" width="8" height="12" style="fill:#e3db38"/>
  <rect x="189" y="20" width="8" height="12" style="fill:#ebd339"/>
  <rect x="265" y="44" width="8" height="13" style="fill:#dfdf37"/>
  <rect x="45" y="42" width="9" height="13" style="fill:#99fe42"/>
  <rect x="343" y="44" width="7" height="13" style="fill:#35f394"/>
  <rect x="159" y="70" width="9" height="14" style="fill:#20eaac"/>
  <rect x="150" y="70" width="9" height="14" style="fill:#25c0e7"/>
  <rect x="141" y="70" width="9" height="14" style="fill:#25eca7"/>
  <rect x="494" y="19" width="9" height="12" style="fill:#69fd66"/>
  <rect x="411" y="43" width="5" height="13" style="fill:#4ef97d"/>
  <rect x="416" y="43" width="5" height="13" style="fill:#3f3b97"/>
  <rect x="421" y="43" width="5" height="13" style="fill:#b7f735"/>
  <rect x="496" y="7" width="5" height="12" style="fill:#4ef97d"/>
  <rect x="92" y="56" width="10" height="13" style="fill:#fbb637"/>
  <rect x="485" y="19" width="9" height="12" style="fill:#7a0403"/>
  <rect x="247" y="70" width="10" height="14" style="fill:#75fe5c"/>
  <rect x="237" y="70" width="10" height="14" style="fill:#fe9029"/>
  <rect x="227" y="70" width="10" height="14" style="fill:#18e0bd"/>
  <rect x="214" y="32" width="10" height="12" style="fill:#3c3286"/>
  <rect x="204" y="32" width="10" height="12" style="fill:#fea431"/>
  <rect x="76" y="10" width="8" height="9" style="fill:#4196ff"/>
  <rect x="82" y="56" width="10" height="13" style="fill:#850702"/>
  <rect x="132" y="70" width="9" height="14" style="fill:#2ab9ee"/>
  <rect x="123" y="70" width="9" height="14" style="fill:#22ebaa"/>
  <rect x="114" y="70" width="9" height="14" style="fill:#c32503"/>
  <rect x="476" y="19" width="9" height="12" style="fill:#4249b1"/>
  <rect x="147" y="115" width="8" height="17" style="fill:#25c0e7"/>
  <rect x="116" y="99" width="9" height="16" style="fill:#fea732"/>
  <rect x="486" y="84" width="8" height="16" style="fill:#8fff49"/>
  <rect x="317" y="71" width="12" height="14" style="fill:#c6f034"/>
  <rect x="356" y="9" width="8" height="11" style="fill:#be2102"/>
  <rect x="357" y="100" width="12" height="16" style="fill:#fbb838"/>
  <rect x="181" y="20" width="8" height="12" style="fill:#fd8d27"/>
  <rect x="310" y="100" width="11" height="16" style="fill:#fbb637"/>
  <rect x="273" y="44" width="8" height="13" style="fill:#4664da"/>
  <rect x="384" y="116" width="10" height="17" style="fill:#fe9b2d"/>
  <rect x="17" y="68" width="8" height="14" style="fill:#3cf58e"/>
  <rect x="374" y="116" width="10" height="17" style="fill:#1ecbda"/>
  <rect x="9" y="68" width="8" height="14" style="fill:#466be3"/>
  <rect x="225" y="99" width="10" height="16" style="fill:#f66c19"/>
  <rect x="173" y="20" width="8" height="12" style="fill:#18e0bd"/>
  <rect x="364" y="116" width="10" height="17" style="fill:#424bb5"/>
  <rect x="1" y="68" width="8" height="14" style="fill:#e5470b"/>
  <rect x="433" y="133" width="11" height="17" style="fill:#f4c73a"/>
  <rect x="451" y="43" width="12" height="12" style="fill:#80ff53"/>
  <rect x="463" y="43" width="12" height="12" style="fill:#fdae35"/>
  <rect x="54" y="42" width="9" height="13" style="fill:#fcb136"/>
  <rect x="504" y="55" width="8" height="14" style="fill:#2ff19b"/>
  <rect x="409" y="8" width="9" height="11" style="fill:#a9fb39"/>
  <rect x="478" y="84" width="8" height="16" style="fill:#3b2f80"/>
  <rect x="467" y="19" width="9" height="12" style="fill:#27bee9"/>
  <rect x="470" y="84" width="8" height="16" style="fill:#61fc6c"/>
  <rect x="458" y="19" width="9" height="12" style="fill:#e7d739"/>
  <rect x="107" y="99" width="9" height="16" style="fill:#3d9efe"/>
  <rect x="63" y="43" width="9" height="13" style="fill:#e84b0c"/>
  <rect x="139" y="115" width="8" height="17" style="fill:#4661d6"/>
  <rect x="105" y="69" width="9" height="14" style="fill:#f1cb3a"/>
  <rect x="444" y="133" width="11" height="17" style="fill:#466be3"/>
  <rect x="215" y="115" width="9" height="17" style="fill:#4040a2"/>
  <rect x="299" y="100" width="11" height="16" style="fill:#ecd13a"/>
  <rect x="98" y="98" width="9" height="16" style="fill:#e84b0c"/>
  <rect x="288" y="100" width="11" height="16" style="fill:#3a2d79"/>
  <rect x="89" y="98" width="9" height="16" style="fill:#fbb637"/>
  <rect x="455" y="133" width="11" height="17" style="fill:#3ba0fd"/>
  <rect x="243" y="132" width="9" height="18" style="fill:#b21a01"/>
  <rect x="466" y="133" width="11" height="17" style="fill:#4664da"/>
  <rect x="96" y="69" width="9" height="14" style="fill:#f6c33a"/>
  <rect x="402" y="31" width="11" height="12" style="fill:#4040a2"/>
  <rect x="449" y="19" width="9" height="12" style="fill:#2aefa1"/>
  <rect x="449" y="69" width="5" height="15" style="fill:#affa37"/>
  <rect x="24" y="18" width="6" height="12" style="fill:#d43305"/>
  <rect x="409" y="56" width="4" height="14" style="fill:#fe992c"/>
  <rect x="323" y="9" width="4" height="11" style="fill:#18dec0"/>
  <rect x="354" y="84" width="5" height="16" style="fill:#476ee6"/>
  <rect x="491" y="7" width="5" height="12" style="fill:#d83706"/>
  <rect x="345" y="84" width="4" height="16" style="fill:#27eea4"/>
  <rect x="341" y="84" width="4" height="16" style="fill:#fe9e2f"/>
  <rect x="335" y="84" width="3" height="16" style="fill:#e7490c"/>
  <rect x="95" y="1" width="3" height="9" style="fill:#ce2d04"/>
  <rect x="481" y="69" width="7" height="15" style="fill:#ec530f"/>
  <rect x="399" y="84" width="7" height="16" style="fill:#c8ef34"/>
  <rect x="42" y="130" width="6" height="20" style="fill:#d02f05"/>
  <rect x="61" y="114" width="6" height="17" style="fill:#351e58"/>
  <rect x="354" y="116" width="10" height="17" style="fill:#80ff53"/>
  <rect x="252" y="132" width="8" height="18" style="fill:#2aefa1"/>
  <rect x="68" y="9" width="8" height="9" style="fill:#23c3e4"/>
  <rect x="131" y="115" width="8" height="17" style="fill:#84ff51"/>
  <rect x="55" y="114" width="6" height="17" style="fill:#43f787"/>
  <rect x="123" y="115" width="8" height="17" style="fill:#a4fc3c"/>
  <rect x="260" y="132" width="5" height="18" style="fill:#af1801"/>
  <rect x="165" y="20" width="8" height="12" style="fill:#35f394"/>
  <rect x="18" y="18" width="6" height="12" style="fill:#2fb2f4"/>
  <rect x="157" y="20" width="8" height="12" style="fill:#3ff68a"/>
  <rect x="49" y="18" width="7" height="12" style="fill:#55fa76"/>
  <rect x="440" y="18" width="9" height="12" style="fill:#31aff5"/>
  <rect x="364" y="44" width="6" height="13" style="fill:#59fb73"/>
  <rect x="477" y="133" width="11" height="17" style="fill:#f1cb3a"/>
  <rect x="72" y="43" width="9" height="13" style="fill:#dbe236"/>
  <rect x="488" y="133" width="11" height="17" style="fill:#25c0e7"/>
  <rect x="87" y="69" width="9" height="14" style="fill:#c8ef34"/>
  <rect x="499" y="133" width="11" height="17" style="fill:#a11201"/>
  <rect x="81" y="43" width="9" height="13" style="fill:#3ba0fd"/>
  <rect x="108" y="84" width="10" height="15" style="fill:#fc8725"/>
  <rect x="431" y="18" width="9" height="12" style="fill:#4669e0"/>
  <rect x="266" y="84" width="13" height="15" style="fill:#dc3b07"/>
  <rect x="437" y="7" width="10" height="11" style="fill:#3f3b97"/>
  <rect x="473" y="100" width="13" height="16" style="fill:#3ff68a"/>
  <rect x="194" y="32" width="10" height="12" style="fill:#ea4e0d"/>
  <rect x="460" y="100" width="13" height="16" style="fill:#80ff53"/>
  <rect x="72" y="56" width="10" height="13" style="fill:#4778f0"/>
  <rect x="230" y="84" width="12" height="15" style="fill:#4661d6"/>
  <rect x="39" y="82" width="9" height="15" style="fill:#cbed34"/>
  <rect x="344" y="116" width="10" height="17" style="fill:#372466"/>
  <rect x="370" y="44" width="6" height="13" style="fill:#b21a01"/>
  <rect x="334" y="116" width="10" height="17" style="fill:#da3907"/>
  <rect x="417" y="56" width="5" height="14" style="fill:#b71d02"/>
  <rect x="324" y="116" width="10" height="17" style="fill:#b21a01"/>
  <rect x="376" y="44" width="6" height="13" style="fill:#f05b12"/>
  <rect x="314" y="116" width="10" height="17" style="fill:#2ff19b"/>
  <rect x="496" y="55" width="8" height="14" style="fill:#372466"/>
  <rect x="304" y="116" width="10" height="17" style="fill:#1ce6b4"/>
  <rect x="488" y="55" width="8" height="14" style="fill:#faba39"/>
  <rect x="215" y="99" width="10" height="16" style="fill:#fea431"/>
  <rect x="281" y="44" width="8" height="13" style="fill:#2ff19b"/>
  <rect x="294" y="116" width="10" height="17" style="fill:#e3db38"/>
  <rect x="480" y="55" width="8" height="14" style="fill:#fe9e2f"/>
  <rect x="462" y="84" width="8" height="16" style="fill:#fcb136"/>
  <rect x="386" y="84" width="6" height="16" style="fill:#3a2d79"/>
  <rect x="115" y="115" width="8" height="17" style="fill:#4040a2"/>
  <rect x="422" y="18" width="9" height="12" style="fill:#28bceb"/>
  <rect x="149" y="20" width="8" height="12" style="fill:#f7c13a"/>
  <rect x="12" y="18" width="6" height="12" style="fill:#2cb7f0"/>
  <rect x="98" y="83" width="10" height="15" style="fill:#980e01"/>
  <rect x="413" y="19" width="9" height="12" style="fill:#8fff49"/>
  <rect x="88" y="83" width="10" height="15" style="fill:#d2e935"/>
  <rect x="400" y="8" width="9" height="11" style="fill:#f9751d"/>
  <rect x="205" y="99" width="10" height="16" style="fill:#e9d539"/>
  <rect x="404" y="19" width="9" height="12" style="fill:#43f787"/>
  <rect x="284" y="116" width="10" height="17" style="fill:#f8be39"/>
  <rect x="78" y="69" width="9" height="14" style="fill:#b41b01"/>
  <rect x="195" y="99" width="10" height="16" style="fill:#4666dd"/>
  <rect x="90" y="43" width="9" height="13" style="fill:#4680f6"/>
  <rect x="185" y="99" width="10" height="16" style="fill:#321543"/>
  <rect x="99" y="43" width="9" height="13" style="fill:#5dfc6f"/>
  <rect x="102" y="132" width="17" height="18" style="fill:#e7d739"/>
  <rect x="396" y="57" width="13" height="13" style="fill:#e5470b"/>
  <rect x="501" y="116" width="11" height="17" style="fill:#d83706"/>
  <rect x="107" y="115" width="8" height="17" style="fill:#4294ff"/>
  <rect x="78" y="83" width="10" height="15" style="fill:#4143a7"/>
  <rect x="206" y="115" width="9" height="17" style="fill:#3f3b97"/>
  <rect x="350" y="44" width="7" height="13" style="fill:#e7490c"/>
  <rect x="80" y="98" width="9" height="16" style="fill:#20eaac"/>
  <rect x="6" y="18" width="6" height="12" style="fill:#f56918"/>
  <rect x="197" y="115" width="9" height="17" style="fill:#5dfc6f"/>
  <rect x="382" y="44" width="6" height="13" style="fill:#1ad2d2"/>
  <rect x="475" y="43" width="12" height="12" style="fill:#b4f836"/>
  <rect x="392" y="84" width="7" height="16" style="fill:#c32503"/>
  <rect x="305" y="71" width="12" height="14" style="fill:#341b51"/>
  <rect x="391" y="8" width="9" height="11" style="fill:#efcd3a"/>
  <rect x="284" y="58" width="12" height="13" style="fill:#f6c33a"/>
  <rect x="382" y="9" width="9" height="11" style="fill:#c8ef34"/>
  <rect x="13" y="130" width="17" height="20" style="fill:#850702"/>
  <rect x="168" y="132" width="13" height="18" style="fill:#b7f735"/>
  <rect x="447" y="100" width="13" height="16" style="fill:#4454c3"/>
  <rect x="150" y="84" width="11" height="15" style="fill:#7dff56"/>
  <rect x="277" y="100" width="11" height="16" style="fill:#4559cb"/>
  <rect x="99" y="114" width="8" height="17" style="fill:#4771e9"/>
  <rect x="320" y="85" width="15" height="15" style="fill:#18e0bd"/>
  <rect x="2" y="113" width="15" height="16" style="fill:#4776ee"/>
  <rect x="345" y="100" width="12" height="16" style="fill:#458cfd"/>
  <rect x="490" y="116" width="11" height="17" style="fill:#f26014"/>
  <rect x="289" y="45" width="8" height="13" style="fill:#920b01"/>
  <rect x="29" y="113" width="5" height="17" style="fill:#fdae35"/>
  <rect x="426" y="43" width="5" height="13" style="fill:#2ab9ee"/>
  <rect x="338" y="133" width="13" height="17" style="fill:#2ab9ee"/>
  <rect x="217" y="70" width="10" height="14" style="fill:#3ba0fd"/>
  <rect x="274" y="116" width="10" height="17" style="fill:#faba39"/>
  <rect x="69" y="69" width="9" height="14" style="fill:#ca2a04"/>
  <rect x="264" y="115" width="10" height="17" style="fill:#f26014"/>
  <rect x="60" y="69" width="9" height="14" style="fill:#1ecbda"/>
  <rect x="72" y="131" width="10" height="19" style="fill:#3ff68a"/>
  <rect x="71" y="98" width="9" height="16" style="fill:#4391fe"/>
  <rect x="82" y="131" width="10" height="19" style="fill:#2cf09e"/>
  <rect x="62" y="98" width="9" height="16" style="fill:#33adf7"/>
  <rect x="92" y="131" width="10" height="19" style="fill:#fe9029"/>
  <rect x="53" y="98" width="9" height="16" style="fill:#c32503"/>
  <rect x="377" y="133" width="12" height="17" style="fill:#c32503"/>
  <rect x="472" y="55" width="8" height="14" style="fill:#25eca7"/>
  <rect x="305" y="85" width="15" height="15" style="fill:#fbb838"/>
  <rect x="201" y="57" width="11" height="13" style="fill:#fcb336"/>
  <rect x="479" y="116" width="11" height="17" style="fill:#1ecbda"/>
  <rect x="188" y="115" width="9" height="17" style="fill:#9e1001"/>
  <rect x="254" y="115" width="10" height="17" style="fill:#a7fc3a"/>
  <rect x="454" y="84" width="8" height="16" style="fill:#59fb73"/>
  <rect x="434" y="100" width="13" height="16" style="fill:#850702"/>
  <rect x="62" y="56" width="10" height="13" style="fill:#476ee6"/>
  <rect x="181" y="132" width="13" height="18" style="fill:#4685fa"/>
  <rect x="68" y="83" width="10" height="15" style="fill:#fc8423"/>
  <rect x="24" y="113" width="5" height="17" style="fill:#71fe5f"/>
  <rect x="30" y="130" width="12" height="20" style="fill:#acfb38"/>
  <rect x="219" y="132" width="12" height="18" style="fill:#79fe59"/>
  <rect x="421" y="100" width="13" height="16" style="fill:#22c5e2"/>
  <rect x="468" y="116" width="11" height="17" style="fill:#a1fd3d"/>
  <rect x="179" y="115" width="9" height="17" style="fill:#455ccf"/>
  <rect x="457" y="116" width="11" height="17" style="fill:#ebd339"/>
  <rect x="108" y="43" width="9" height="13" style="fill:#3ff68a"/>
  <rect x="61" y="131" width="11" height="19" style="fill:#372466"/>
  <rect x="91" y="114" width="8" height="17" style="fill:#341b51"/>
  <rect x="270" y="133" width="16" height="17" style="fill:#f8721c"/>
  <rect x="368" y="70" width="13" height="14" style="fill:#fea130"/>
  <rect x="0" y="129" width="13" height="21" style="fill:#2ff19b"/>
  <rect x="244" y="115" width="10" height="17" style="fill:#f6c33a"/>
  <rect x="266" y="99" width="11" height="16" style="fill:#e2430a"/>
  <rect x="297" y="45" width="8" height="13" style="fill:#ea4e0d"/>
  <rect x="218" y="84" width="12" height="15" style="fill:#b1f936"/>
  <rect x="141" y="20" width="8" height="12" style="fill:#38276d"/>
  <rect x="446" y="84" width="8" height="16" style="fill:#cc2b04"/>
  <rect x="117" y="43" width="9" height="13" style="fill:#c12302"/>
  <rect x="5" y="82" width="8" height="15" style="fill:#fc8725"/>
  <rect x="395" y="19" width="9" height="12" style="fill:#4099ff"/>
  <rect x="349" y="84" width="5" height="16" style="fill:#d2e935"/>
  <rect x="388" y="44" width="6" height="13" style="fill:#f26014"/>
  <rect x="444" y="69" width="5" height="15" style="fill:#8b0902"/>
  <rect x="486" y="7" width="5" height="12" style="fill:#4249b1"/>
  <rect x="408" y="100" width="13" height="16" style="fill:#28bceb"/>
  <rect x="52" y="55" width="10" height="13" style="fill:#30123b"/>
  <rect x="395" y="100" width="13" height="16" style="fill:#3b2f80"/>
  <rect x="184" y="32" width="10" height="12" style="fill:#4666dd"/>
  <rect x="175" y="99" width="10" height="16" style="fill:#3d9efe"/>
  <rect x="394" y="44" width="6" height="13" style="fill:#c3f134"/>
  <rect x="58" y="83" width="10" height="15" style="fill:#a4fc3c"/>
  <rect x="481" y="7" width="5" height="12" style="fill:#351e58"/>
  <rect x="165" y="99" width="10" height="16" style="fill:#f56918"/>
  <rect x="126" y="44" width="9" height="13" style="fill:#2fb2f4"/>
  <rect x="155" y="99" width="10" height="16" style="fill:#19e2bb"/>
  <rect x="386" y="20" width="9" height="12" style="fill:#b91e02"/>
  <rect x="234" y="115" width="10" height="17" style="fill:#18dec0"/>
  <rect x="464" y="55" width="8" height="14" style="fill:#2aefa1"/>
  <rect x="83" y="114" width="8" height="17" style="fill:#4559cb"/>
  <rect x="49" y="114" width="6" height="17" style="fill:#79fe59"/>
  <rect x="446" y="116" width="11" height="17" style="fill:#e3db38"/>
  <rect x="44" y="97" width="9" height="16" style="fill:#fcb136"/>
  <rect x="333" y="100" width="12" height="16" style="fill:#fe932a"/>
  <rect x="133" y="19" width="8" height="12" style="fill:#a7fc3a"/>
  <rect x="438" y="84" width="8" height="16" style="fill:#392a73"/>
  <rect x="135" y="44" width="9" height="13" style="fill:#fea933"/>
  <rect x="351" y="133" width="13" height="17" style="fill:#c1f334"/>
  <rect x="207" y="70" width="10" height="14" style="fill:#acfb38"/>
  <rect x="364" y="133" width="13" height="17" style="fill:#3aa3fc"/>
  <rect x="197" y="70" width="10" height="14" style="fill:#d7e535"/>
  <rect x="382" y="100" width="13" height="16" style="fill:#ec530f"/>
  <rect x="174" y="32" width="10" height="12" style="fill:#38276d"/>
  <rect x="194" y="132" width="13" height="18" style="fill:#f15d13"/>
  <rect x="187" y="70" width="10" height="14" style="fill:#18dbc5"/>
  <rect x="177" y="70" width="10" height="14" style="fill:#fbb637"/>
  <rect x="504" y="69" width="8" height="15" style="fill:#99fe42"/>
  <rect x="431" y="42" width="5" height="13" style="fill:#2ff19b"/>
  <rect x="178" y="11" width="9" height="9" style="fill:#4664da"/>
  <rect x="275" y="6" width="2" height="4" style="fill:#f8be39"/>
  <rect x="192" y="5" width="3" height="6" style="fill:#4559cb"/>
  <rect x="195" y="5" width="3" height="6" style="fill:#43f787"/>
  <rect x="253" y="6" width="3" height="4" style="fill:#3d358b"/>
  <rect x="287" y="7" width="3" height="3" style="fill:#950d01"/>
  <rect x="219" y="5" width="4" height="5" style="fill:#f7c13a"/>
  <rect x="239" y="6" width="4" height="4" style="fill:#4661d6"/>
  <rect x="237" y="5" width="2" height="5" style="fill:#4451bf"/>
  <rect x="234" y="5" width="3" height="5" style="fill:#3b2f80"/>
  <rect x="290" y="7" width="3" height="3" style="fill:#4456c7"/>
  <rect x="198" y="5" width="3" height="6" style="fill:#b21a01"/>
  <rect x="256" y="6" width="3" height="4" style="fill:#3ff68a"/>
  <rect x="243" y="6" width="4" height="4" style="fill:#65fd69"/>
  <rect x="259" y="6" width="3" height="4" style="fill:#b7f735"/>
  <rect x="293" y="7" width="3" height="3" style="fill:#fdae35"/>
  <rect x="296" y="7" width="3" height="3" style="fill:#f9781e"/>
  <rect x="299" y="7" width="3" height="3" style="fill:#4456c7"/>
  <rect x="302" y="7" width="3" height="3" style="fill:#fb7e21"/>
  <rect x="305" y="7" width="3" height="3" style="fill:#455ed3"/>
  <rect x="308" y="7" width="3" height="3" style="fill:#455ed3"/>
  <rect x="311" y="7" width="3" height="3" style="fill:#fd8a26"/>
  <rect x="314" y="7" width="3" height="3" style="fill:#e1dd37"/>
  <rect x="317" y="7" width="3" height="3" style="fill:#467df4"/>
  <rect x="98" y="1" width="3" height="9" style="fill:#65fd69"/>
  <rect x="190" y="57" width="11" height="13" style="fill:#fe932a"/>
  <rect x="42" y="55" width="10" height="13" style="fill:#32f298"/>
  <rect x="305" y="45" width="8" height="13" style="fill:#f9781e"/>
  <rect x="179" y="57" width="11" height="13" style="fill:#f4c73a"/>
  <rect x="456" y="55" width="8" height="14" style="fill:#2fb2f4"/>
  <rect x="144" y="44" width="9" height="13" style="fill:#4143a7"/>
  <rect x="168" y="57" width="11" height="13" style="fill:#1bd0d5"/>
  <rect x="320" y="6" width="3" height="3" style="fill:#be2102"/>
  <rect x="436" y="42" width="3" height="13" style="fill:#75fe5c"/>
  <rect x="32" y="55" width="10" height="13" style="fill:#f9bc39"/>
  <rect x="157" y="57" width="11" height="13" style="fill:#f15d13"/>
  <rect x="383" y="57" width="13" height="13" style="fill:#b71d02"/>
  <rect x="146" y="57" width="11" height="13" style="fill:#37a8fa"/>
  <rect x="323" y="6" width="3" height="3" style="fill:#f4c73a"/>
  <rect x="355" y="70" width="13" height="14" style="fill:#a11201"/>
  <rect x="135" y="57" width="11" height="13" style="fill:#33adf7"/>
  <rect x="153" y="44" width="9" height="13" style="fill:#2ff19b"/>
  <rect x="448" y="55" width="8" height="14" style="fill:#eb500e"/>
  <rect x="313" y="44" width="8" height="13" style="fill:#3ba0fd"/>
  <rect x="124" y="57" width="11" height="13" style="fill:#19d5cd"/>
  <rect x="370" y="57" width="13" height="13" style="fill:#2cb7f0"/>
  <rect x="113" y="56" width="11" height="13" style="fill:#c3f134"/>
  <rect x="326" y="6" width="3" height="3" style="fill:#c1f334"/>
  <rect x="342" y="70" width="13" height="14" style="fill:#4294ff"/>
  <rect x="380" y="84" width="6" height="16" style="fill:#3d9efe"/>
  <rect x="145" y="99" width="10" height="16" style="fill:#2aefa1"/>
  <rect x="329" y="6" width="3" height="3" style="fill:#6dfe62"/>
  <rect x="332" y="6" width="3" height="3" style="fill:#1bd0d5"/>
  <rect x="335" y="6" width="3" height="3" style="fill:#dfdf37"/>
  <rect x="338" y="6" width="3" height="3" style="fill:#f9bc39"/>
  <rect x="341" y="6" width="3" height="3" style="fill:#d63506"/>
  <rect x="344" y="6" width="3" height="3" style="fill:#4682f8"/>
  <rect x="347" y="6" width="3" height="3" style="fill:#7e0502"/>
  <rect x="350" y="6" width="3" height="3" style="fill:#dc3b07"/>
  <rect x="353" y="6" width="3" height="3" style="fill:#a7fc3a"/>
  <rect x="356" y="6" width="3" height="3" style="fill:#3f3b97"/>
  <rect x="359" y="6" width="3" height="3" style="fill:#a71401"/>
  <rect x="362" y="6" width="3" height="3" style="fill:#af1801"/>
  <rect x="365" y="6" width="3" height="3" style="fill:#71fe5f"/>
  <rect x="368" y="6" width="3" height="3" style="fill:#e84b0c"/>
  <rect x="60" y="9" width="8" height="9" style="fill:#30123b"/>
  <rect x="371" y="6" width="3" height="3" style="fill:#f15d13"/>
  <rect x="374" y="6" width="3" height="3" style="fill:#80ff53"/>
  <rect x="377" y="6" width="3" height="3" style="fill:#8b0902"/>
  <rect x="380" y="6" width="3" height="3" style="fill:#2eb4f2"/>
  <rect x="310" y="10" width="10" height="10" style="fill:#52fa7a"/>
  <rect x="300" y="10" width="10" height="10" style="fill:#9cfe40"/>
  <rect x="162" y="44" width="9" height="13" style="fill:#a1fd3d"/>
  <rect x="383" y="6" width="3" height="3" style="fill:#9cfe40"/>
  <rect x="386" y="6" width="3" height="3" style="fill:#fe992c"/>
  <rect x="389" y="5" width="3" height="3" style="fill:#980e01"/>
  <rect x="392" y="5" width="3" height="3" style="fill:#28bceb"/>
  <rect x="395" y="5" width="3" height="3" style="fill:#38f491"/>
  <rect x="52" y="9" width="8" height="9" style="fill:#bc2002"/>
  <rect x="398" y="5" width="3" height="3" style="fill:#477bf2"/>
  <rect x="401" y="5" width="3" height="3" style="fill:#d2e935"/>
  <rect x="66" y="0" width="6" height="9" style="fill:#880802"/>
  <rect x="404" y="5" width="3" height="3" style="fill:#1de7b2"/>
  <rect x="407" y="5" width="3" height="3" style="fill:#f8be39"/>
  <rect x="410" y="5" width="3" height="3" style="fill:#8fff49"/>
  <rect x="413" y="5" width="3" height="3" style="fill:#46f884"/>
  <rect x="75" y="114" width="8" height="17" style="fill:#4664da"/>
  <rect x="440" y="55" width="8" height="14" style="fill:#fb8122"/>
  <rect x="125" y="19" width="8" height="12" style="fill:#dfdf37"/>
  <rect x="117" y="19" width="8" height="12" style="fill:#d9e436"/>
  <rect x="164" y="32" width="10" height="12" style="fill:#477bf2"/>
  <rect x="154" y="32" width="10" height="12" style="fill:#3aa3fc"/>
  <rect x="461" y="7" width="3" height="12" style="fill:#af1801"/>
  <rect x="427" y="56" width="6" height="14" style="fill:#f9751d"/>
  <rect x="439" y="69" width="5" height="15" style="fill:#e2430a"/>
  <rect x="206" y="84" width="12" height="15" style="fill:#cdec34"/>
  <rect x="272" y="57" width="12" height="13" style="fill:#d63506"/>
  <rect x="109" y="19" width="8" height="12" style="fill:#69fd66"/>
  <rect x="224" y="115" width="10" height="17" style="fill:#c12302"/>
  <rect x="435" y="116" width="11" height="17" style="fill:#fea431"/>
  <rect x="48" y="82" width="10" height="15" style="fill:#ca2a04"/>
  <rect x="391" y="32" width="11" height="12" style="fill:#38f491"/>
  <rect x="380" y="32" width="11" height="12" style="fill:#18d9c8"/>
  <rect x="377" y="20" width="9" height="12" style="fill:#c12302"/>
  <rect x="144" y="32" width="10" height="12" style="fill:#920b01"/>
  <rect x="101" y="19" width="8" height="12" style="fill:#cdec34"/>
  <rect x="293" y="71" width="12" height="14" style="fill:#ca2a04"/>
  <rect x="93" y="19" width="8" height="12" style="fill:#96fe44"/>
  <rect x="194" y="84" width="12" height="15" style="fill:#92ff47"/>
  <rect x="368" y="20" width="9" height="12" style="fill:#fea732"/>
  <rect x="369" y="32" width="11" height="12" style="fill:#cbed34"/>
  <rect x="139" y="84" width="11" height="15" style="fill:#71fe5f"/>
  <rect x="134" y="32" width="10" height="12" style="fill:#22ebaa"/>
  <rect x="124" y="31" width="10" height="12" style="fill:#9e1001"/>
  <rect x="260" y="57" width="12" height="13" style="fill:#bef434"/>
  <rect x="358" y="32" width="11" height="12" style="fill:#3ff68a"/>
  <rect x="248" y="57" width="12" height="13" style="fill:#950d01"/>
  <rect x="347" y="32" width="11" height="12" style="fill:#4454c3"/>
  <rect x="359" y="20" width="9" height="12" style="fill:#bef434"/>
  <rect x="114" y="31" width="10" height="12" style="fill:#75fe5c"/>
  <rect x="85" y="19" width="8" height="12" style="fill:#2aefa1"/>
  <rect x="336" y="32" width="11" height="12" style="fill:#d43305"/>
  <rect x="236" y="57" width="12" height="13" style="fill:#4682f8"/>
  <rect x="325" y="32" width="11" height="12" style="fill:#1ad2d2"/>
  <rect x="281" y="71" width="12" height="14" style="fill:#18e0bd"/>
  <rect x="350" y="20" width="9" height="12" style="fill:#3d358b"/>
  <rect x="224" y="57" width="12" height="13" style="fill:#9cfe40"/>
  <rect x="329" y="70" width="13" height="14" style="fill:#fe9b2d"/>
  <rect x="487" y="43" width="12" height="12" style="fill:#466be3"/>
  <rect x="499" y="43" width="12" height="12" style="fill:#fd8d27"/>
  <rect x="341" y="20" width="9" height="12" style="fill:#cc2b04"/>
  <rect x="104" y="31" width="10" height="12" style="fill:#f8721c"/>
  <rect x="321" y="100" width="12" height="16" style="fill:#f36315"/>
  <rect x="94" y="31" width="10" height="12" style="fill:#27eea4"/>
  <rect x="44" y="9" width="8" height="9" style="fill:#980e01"/>
  <rect x="36" y="9" width="8" height="9" style="fill:#fea933"/>
  <rect x="28" y="9" width="8" height="9" style="fill:#ea4e0d"/>
  <rect x="83" y="1" width="5" height="9" style="fill:#4682f8"/>
  <rect x="427" y="7" width="10" height="11" style="fill:#d9e436"/>
  <rect x="169" y="11" width="9" height="9" style="fill:#fd8a26"/>
  <rect x="171" y="44" width="9" height="13" style="fill:#a4fc3c"/>
  <rect x="32" y="0" width="7" height="9" style="fill:#458cfd"/>
  <rect x="160" y="11" width="9" height="9" style="fill:#55fa76"/>
  <rect x="332" y="20" width="9" height="12" style="fill:#3ff68a"/>
  <rect x="20" y="9" width="8" height="9" style="fill:#3e3891"/>
  <rect x="151" y="11" width="9" height="9" style="fill:#8bff4b"/>
  <rect x="142" y="11" width="9" height="9" style="fill:#affa37"/>
  <rect x="133" y="10" width="9" height="9" style="fill:#d7e535"/>
  <rect x="273" y="10" width="9" height="10" style="fill:#c6f034"/>
  <rect x="124" y="10" width="9" height="9" style="fill:#25c0e7"/>
  <rect x="180" y="44" width="9" height="13" style="fill:#476ee6"/>
  <rect x="12" y="9" width="8" height="9" style="fill:#8e0a01"/>
  <rect x="72" y="0" width="6" height="9" style="fill:#448ffe"/>
  <rect x="189" y="44" width="9" height="13" style="fill:#372466"/>
  <rect x="102" y="56" width="11" height="13" style="fill:#35abf8"/>
  <rect x="4" y="9" width="8" height="9" style="fill:#dde037"/>
  <rect x="373" y="9" width="9" height="11" style="fill:#c52603"/>
  <rect x="0" y="0" width="8" height="9" style="fill:#25c0e7"/>
  <rect x="364" y="9" width="9" height="11" style="fill:#36215f"/>
  <rect x="447" y="7" width="11" height="11" style="fill:#20eaac"/>
  <rect x="264" y="10" width="9" height="10" style="fill:#4196ff"/>
  <rect x="255" y="10" width="9" height="10" style="fill:#20eaac"/>
  <rect x="8" y="0" width="8" height="9" style="fill:#3e9bfe"/>
  <rect x="39" y="0" width="7" height="9" style="fill:#e7d739"/>
  <rect x="323" y="20" width="9" height="12" style="fill:#bc2002"/>
  <rect x="16" y="0" width="8" height="9" style="fill:#fea431"/>
  <rect x="51" y="68" width="9" height="14" style="fill:#ca2a04"/>
  <rect x="314" y="20" width="9" height="12" style="fill:#69fd66"/>
  <rect x="30" y="82" width="9" height="15" style="fill:#920b01"/>
  <rect x="400" y="44" width="6" height="13" style="fill:#2ff19b"/>
  <rect x="46" y="0" width="7" height="9" style="fill:#ebd339"/>
  <rect x="24" y="0" width="8" height="9" style="fill:#f15d13"/>
  <rect x="458" y="7" width="3" height="12" style="fill:#fe962b"/>
  <rect x="476" y="7" width="5" height="12" style="fill:#d23105"/>
  <rect x="19" y="113" width="5" height="17" style="fill:#4664da"/>
  <rect x="42" y="68" width="9" height="14" style="fill:#e4450a"/>
  <rect x="198" y="44" width="9" height="13" style="fill:#4391fe"/>
  <rect x="305" y="20" width="9" height="12" style="fill:#1ae4b6"/>
  <rect x="321" y="44" width="8" height="13" style="fill:#fb7e21"/>
  <rect x="207" y="44" width="9" height="13" style="fill:#4664da"/>
  <rect x="430" y="84" width="8" height="16" style="fill:#fbb637"/>
  <rect x="348" y="9" width="8" height="11" style="fill:#fe9b2d"/>
  <rect x="135" y="99" width="10" height="16" style="fill:#ef5811"/>
  <rect x="35" y="97" width="9" height="16" style="fill:#e9d539"/>
  <rect x="255" y="99" width="11" height="16" style="fill:#1bd0d5"/>
  <rect x="26" y="97" width="9" height="16" style="fill:#4456c7"/>
  <rect x="422" y="84" width="8" height="16" style="fill:#4776ee"/>
  <rect x="374" y="84" width="6" height="16" style="fill:#30123b"/>
  <rect x="369" y="100" width="13" height="16" style="fill:#ecd13a"/>
  <rect x="269" y="70" width="12" height="14" style="fill:#810602"/>
  <rect x="17" y="97" width="9" height="16" style="fill:#fcb336"/>
  <rect x="8" y="97" width="9" height="16" style="fill:#476ee6"/>
  <rect x="125" y="99" width="10" height="16" style="fill:#eb500e"/>
  <rect x="77" y="19" width="8" height="12" style="fill:#4196ff"/>
  <rect x="414" y="84" width="8" height="16" style="fill:#3ba0fd"/>
  <rect x="469" y="69" width="6" height="15" style="fill:#1fe9af"/>
  <rect x="119" y="132" width="17" height="18" style="fill:#4773eb"/>
  <rect x="357" y="57" width="13" height="13" style="fill:#fe992c"/>
  <rect x="136" y="132" width="17" height="18" style="fill:#5dfc6f"/>
  <rect x="344" y="57" width="13" height="13" style="fill:#321543"/>
  <rect x="153" y="132" width="15" height="18" style="fill:#faba39"/>
  <rect x="257" y="70" width="12" height="14" style="fill:#18e0bd"/>
  <rect x="496" y="69" width="8" height="15" style="fill:#55fa76"/>
  <rect x="296" y="20" width="9" height="12" style="fill:#df3f08"/>
  <rect x="424" y="116" width="11" height="17" style="fill:#22c5e2"/>
  <rect x="67" y="114" width="8" height="17" style="fill:#4773eb"/>
  <rect x="128" y="84" width="11" height="15" style="fill:#1ae4b6"/>
  <rect x="503" y="84" width="9" height="16" style="fill:#19e3b9"/>
  <rect x="131" y="2" width="2" height="8" style="fill:#1ad2d2"/>
  <rect x="17" y="113" width="2" height="17" style="fill:#1ad2d2"/>
  <rect x="277" y="6" width="2" height="4" style="fill:#4682f8"/>
  <rect x="279" y="6" width="2" height="4" style="fill:#d83706"/>
  <rect x="262" y="6" width="3" height="4" style="fill:#acfb38"/>
  <rect x="223" y="5" width="4" height="5" style="fill:#fa7b1f"/>
  <rect x="227" y="5" width="4" height="5" style="fill:#46f884"/>
  <rect x="180" y="5" width="4" height="6" style="fill:#810602"/>
  <rect x="42" y="18" width="7" height="12" style="fill:#3f3b97"/>
  <rect x="0" y="18" width="6" height="12" style="fill:#a71401"/>
  <rect x="210" y="5" width="5" height="5" style="fill:#c12302"/>
  <rect x="214" y="10" width="3" height="10" style="fill:#65fd69"/>
  <rect x="231" y="132" width="12" height="18" style="fill:#b91e02"/>
  <rect x="184" y="5" width="4" height="6" style="fill:#4451bf"/>
  <rect x="188" y="5" width="4" height="6" style="fill:#3e9bfe"/>
  <rect x="287" y="20" width="9" height="12" style="fill:#850702"/>
  <rect x="153" y="4" width="5" height="7" style="fill:#ef5811"/>
  <rect x="278" y="20" width="9" height="12" style="fill:#e9d539"/>
  <rect x="48" y="131" width="13" height="19" style="fill:#46f884"/>
  <rect x="357" y="44" width="7" height="13" style="fill:#1fc9dd"/>
  <rect x="33" y="68" width="9" height="14" style="fill:#eecf3a"/>
  <rect x="22" y="55" width="10" height="13" style="fill:#e84b0c"/>
  <rect x="84" y="31" width="10" height="12" style="fill:#55fa76"/>
  <rect x="21" y="82" width="9" height="15" style="fill:#27bee9"/>
  <rect x="133" y="2" width="2" height="8" style="fill:#a91601"/>
  <rect x="494" y="84" width="9" height="16" style="fill:#27eea4"/>
  <rect x="506" y="7" width="6" height="12" style="fill:#392a73"/>
  <rect x="265" y="132" width="5" height="18" style="fill:#e5470b"/>
  <rect x="53" y="0" width="7" height="9" style="fill:#4391fe"/>
  <rect x="246" y="10" width="9" height="10" style="fill:#33184a"/>
  <rect x="340" y="9" width="8" height="11" style="fill:#fe962b"/>
  <rect x="332" y="9" width="8" height="11" style="fill:#18ddc2"/>
  <rect x="216" y="44" width="9" height="13" style="fill:#4454c3"/>
  <rect x="314" y="32" width="11" height="12" style="fill:#f36315"/>
  <rect x="269" y="20" width="9" height="12" style="fill:#e1dd37"/>
  <rect x="74" y="31" width="10" height="12" style="fill:#3e9bfe"/>
  <rect x="212" y="57" width="12" height="13" style="fill:#ce2d04"/>
  <rect x="406" y="84" width="8" height="16" style="fill:#4669e0"/>
  <rect x="265" y="6" width="3" height="4" style="fill:#fd8a26"/>
  <rect x="268" y="6" width="3" height="4" style="fill:#392a73"/>
  <rect x="416" y="4" width="3" height="3" style="fill:#4099ff"/>
  <rect x="488" y="69" width="8" height="15" style="fill:#99fe42"/>
</svg>
