<svg class="m-image m-nopadb" style="width: 128px; height: 128px; margin-top: -16px; margin-bottom: -16px;" viewBox="0 0 128 128">
<path fill="none" stroke="#405363" stroke-width="1.0" d="
  M0 32 L128 32 M0 96 L128 96
  M0 92 l0 8 M128 28 l0 8"/>
<path fill="none" stroke="#dcdcdc" stroke-width="1.5" d="M0 96 L2.03175 95.9602 L4.06349 95.841 L6.09524 95.6426 L8.12698 95.3655 L10.1587 95.0105 L12.1905 94.5783 L14.2222 94.0702 L16.254 93.4872 L18.2857 92.831 L20.3175 92.1031 L22.3492 91.3053 L24.381 90.4396 L26.4127 89.5082 L28.4444 88.5134 L30.4762 87.4577 L32.5079 86.3436 L34.5397 85.174 L36.5714 83.9517 L38.6032 82.6798 L40.6349 81.3615 L42.6667 80 L44.6984 78.5987 L46.7302 77.1612 L48.7619 75.6909 L50.7937 74.1916 L52.8254 72.6669 L54.8571 71.1207 L56.8889 69.5567 L58.9206 67.979 L60.9524 66.3914 L62.9841 64.7978 L65.0159 63.2022 L67.0476 61.6086 L69.0794 60.021 L71.1111 58.4433 L73.1429 56.8793 L75.1746 55.3331 L77.2064 53.8084 L79.2381 52.3091 L81.2698 50.8388 L83.3016 49.4013 L85.3333 48 L87.3651 46.6385 L89.3968 45.3202 L91.4286 44.0483 L93.4603 42.826 L95.4921 41.6564 L97.5238 40.5423 L99.5556 39.4866 L101.587 38.4918 L103.619 37.5604 L105.651 36.6947 L107.683 35.8969 L109.714 35.169 L111.746 34.5128 L113.778 33.9298 L115.81 33.4217 L117.841 32.9895 L119.873 32.6345 L121.905 32.3574 L123.937 32.159 L125.968 32.0398 L128 32"/>
</svg>
