<svg class="m-image" style="width: 224px; height: 128px;" viewBox="0 0 224 128">
<path fill="none" stroke="#405363" stroke-width="1.0" d="
  M16 16 L208 16 M16 112 L208 112
  M16 106 l0 12 M208 10 l0 12"/>
<path fill="none" stroke="#3ad267" stroke-width="1.5" d="M1.85263 112 L3.87368 112 L5.89474 112 L7.91579 112 L9.93684 112 L11.9579 112 L13.9789 112 L16 112"/>
<path fill="none" stroke="#3ad267" stroke-width="1.5" d="M208 16 L210.021 16 L212.042 16 L214.063 16 L216.084 16 L218.105 16 L220.126 16 L222.147 16"/>
<path fill="none" stroke="#dcdcdc" stroke-width="1.75" d="M16 112 L18.0211 112 L20.0421 112 L22.0632 112 L24.0842 112 L26.1053 112 L28.1263 112 L30.1474 112 L32.1684 112 L34.1895 112 L36.2105 112 L38.2316 112 L40.2526 112 L42.2737 112 L44.2947 112 L46.3158 112 L48.3368 112 L50.3579 112 L52.3789 112 L54.4 112 L56.4211 112 L58.4421 112 L60.4632 112 L62.4842 112 L64.5053 112 L66.5263 112 L68.5474 112 L70.5684 112 L72.5895 112 L74.6105 112 L76.6316 112 L78.6526 112 L80.6737 112 L82.6947 112 L84.7158 112 L86.7368 112 L88.7579 112 L90.7789 112 L92.8 112 L94.8211 112 L96.8421 112 L98.8632 112 L100.884 112 L102.905 112 L104.926 112 L106.947 112 L108.968 112 L110.989 112 L113.011 16 L115.032 16 L117.053 16 L119.074 16 L121.095 16 L123.116 16 L125.137 16 L127.158 16 L129.179 16 L131.2 16 L133.221 16 L135.242 16 L137.263 16 L139.284 16 L141.305 16 L143.326 16 L145.347 16 L147.368 16 L149.389 16 L151.411 16 L153.432 16 L155.453 16 L157.474 16 L159.495 16 L161.516 16 L163.537 16 L165.558 16 L167.579 16 L169.6 16 L171.621 16 L173.642 16 L175.663 16 L177.684 16 L179.705 16 L181.726 16 L183.747 16 L185.768 16 L187.789 16 L189.811 16 L191.832 16 L193.853 16 L195.874 16 L197.895 16 L199.916 16 L201.937 16 L203.958 16 L205.979 16 L208 16"/>
</svg>
