<svg class="m-image m-nopadb" style="width: 128px; height: 128px; margin-top: -16px; margin-bottom: -16px;" viewBox="0 0 128 128">
<path fill="none" stroke="#405363" stroke-width="1.0" d="
  M0 32 L128 32 M0 96 L128 96
  M0 92 l0 8 M128 28 l0 8"/>
<path fill="none" stroke="#dcdcdc" stroke-width="1.5" d="M0 96 L2.03175 96 L4.06349 95.9995 L6.09524 95.9974 L8.12698 95.9917 L10.1587 95.9797 L12.1905 95.9579 L14.2222 95.922 L16.254 95.8669 L18.2857 95.7868 L20.3175 95.675 L22.3492 95.5241 L24.381 95.326 L26.4127 95.0717 L28.4444 94.7514 L30.4762 94.3546 L32.5079 93.87 L34.5397 93.2854 L36.5714 92.5881 L38.6032 91.7643 L40.6349 90.7997 L42.6667 89.679 L44.6984 88.3863 L46.7302 86.9047 L48.7619 85.2167 L50.7937 83.304 L52.8254 81.1474 L54.8571 78.7272 L56.8889 76.0226 L58.9206 73.0121 L60.9524 69.6735 L62.9841 65.9839 L65.0159 62.0161 L67.0476 58.3265 L69.0794 54.9879 L71.1111 51.9774 L73.1429 49.2728 L75.1746 46.8525 L77.2064 44.696 L79.2381 42.7833 L81.2698 41.0953 L83.3016 39.6138 L85.3333 38.321 L87.3651 37.2003 L89.3968 36.2357 L91.4286 35.4119 L93.4603 34.7146 L95.4921 34.13 L97.5238 33.6454 L99.5556 33.2486 L101.587 32.9283 L103.619 32.674 L105.651 32.4759 L107.683 32.325 L109.714 32.2132 L111.746 32.1331 L113.778 32.078 L115.81 32.0421 L117.841 32.0203 L119.873 32.0083 L121.905 32.0026 L123.937 32.0005 L125.968 32 L128 32"/>
</svg>
