<svg class="m-image" style="width: 224px; height: 192px; margin-top: -24px; margin-bottom: -8px;" viewBox="0 0 224 192">
<path fill="none" stroke="#405363" stroke-width="1.0" d="
  M16 48 L208 48 M16 144 L208 144
  M16 138 l0 12 M208 42 l0 12"/>
<path fill="none" stroke="#3ad267" stroke-width="1.5" d="M1.85263 144.002 L3.87368 144.01 L5.89474 144.019 L7.91579 144.026 L9.93684 144.029 L11.9579 144.027 L13.9789 144.017 L16 144"/>
<path fill="none" stroke="#3ad267" stroke-width="1.5" d="M208 48 L210.021 47.9831 L212.042 47.9735 L214.063 47.9709 L216.084 47.9742 L218.105 47.9811 L220.126 47.9896 L222.147 47.9978"/>
<path fill="none" stroke="#dcdcdc" stroke-width="1.75" d="M16 144 L18.0211 143.977 L20.0421 143.952 L22.0632 143.93 L24.0842 143.917 L26.1053 143.919 L28.1263 143.94 L30.1474 143.983 L32.1684 144.044 L34.1895 144.116 L36.2105 144.185 L38.2316 144.233 L40.2526 144.244 L42.2737 144.2 L44.2947 144.095 L46.3158 143.931 L48.3368 143.729 L50.3579 143.521 L52.3789 143.356 L54.4 143.287 L56.4211 143.362 L58.4421 143.612 L60.4632 144.038 L62.4842 144.6 L64.5053 145.212 L66.5263 145.745 L68.5474 146.049 L70.5684 145.973 L72.5895 145.408 L74.6105 144.32 L76.6316 142.788 L78.6526 141.021 L80.6737 139.358 L82.6947 138.222 L84.7158 138.061 L86.7368 139.243 L88.7579 141.944 L90.7789 146.044 L92.8 151.053 L94.8211 156.101 L96.8421 160.012 L98.8632 161.482 L100.884 159.336 L102.905 152.856 L104.926 142.096 L106.947 128.138 L108.968 113.18 L110.989 100.404 L113.011 91.5956 L115.032 78.8197 L117.053 63.8621 L119.074 49.9035 L121.095 39.1437 L123.116 32.6635 L125.137 30.5184 L127.158 31.988 L129.179 35.8991 L131.2 40.9466 L133.221 45.9558 L135.242 50.0562 L137.263 52.7575 L139.284 53.939 L141.305 53.7779 L143.326 52.6424 L145.347 50.9785 L147.368 49.2124 L149.389 47.6804 L151.411 46.5923 L153.432 46.0269 L155.453 45.9514 L157.474 46.2549 L159.495 46.7883 L161.516 47.3995 L163.537 47.9616 L165.558 48.3881 L167.579 48.6385 L169.6 48.7133 L171.621 48.6438 L173.642 48.4788 L175.663 48.2714 L177.684 48.0689 L179.705 47.9055 L181.726 47.8 L183.747 47.7564 L185.768 47.7666 L187.789 47.8153 L189.811 47.8841 L191.832 47.9558 L193.853 48.0172 L195.874 48.06 L197.895 48.0814 L199.916 48.0831 L201.937 48.0698 L203.958 48.0476 L205.979 48.0226 L208 48"/>
</svg>
