<svg class="m-image" style="width: 224px; height: 128px;" viewBox="0 0 224 128">
<path fill="none" stroke="#405363" stroke-width="1.0" d="
  M16 16 L208 16 M16 112 L208 112
  M16 106 l0 12 M208 10 l0 12"/>
<path fill="none" stroke="#3ad267" stroke-width="1.5" d="M1.85263 152.979 L3.87368 146.395 L5.89474 140.066 L7.91579 133.986 L9.93684 128.146 L11.9579 122.54 L13.9789 117.16 L16 112"/>
<path fill="none" stroke="#cd3330" stroke-width="1.5" d="M208 16 L210.021 16 L212.042 16 L214.063 16 L216.084 16 L218.105 16 L220.126 15.9999 L222.147 15.9998"/>
<path fill="none" stroke="#737373" stroke-width="1" d="M16 112 L18.0211 109.99 L20.0421 108 L22.0632 106.033 L24.0842 104.086 L26.1053 102.161 L28.1263 100.257 L30.1474 98.3738 L32.1684 96.5124 L34.1895 94.6721 L36.2105 92.8532 L38.2316 91.0555 L40.2526 89.2791 L42.2737 87.524 L44.2947 85.7901 L46.3158 84.0776 L48.3368 82.3863 L50.3579 80.7162 L52.3789 79.0675 L54.4 77.44 L56.4211 75.8338 L58.4421 74.2489 L60.4632 72.6852 L62.4842 71.1428 L64.5053 69.6217 L66.5263 68.1219 L68.5474 66.6433 L70.5684 65.186 L72.5895 63.75 L74.6105 62.3353 L76.6316 60.9418 L78.6526 59.5696 L80.6737 58.2187 L82.6947 56.8891 L84.7158 55.5807 L86.7368 54.2936 L88.7579 53.0278 L90.7789 51.7833 L92.8 50.56 L94.8211 49.358 L96.8421 48.1773 L98.8632 47.0178 L100.884 45.8797 L102.905 44.7628 L104.926 43.6671 L106.947 42.5928 L108.968 41.5397 L110.989 40.5079 L113.011 39.4974 L115.032 38.5081 L117.053 37.5402 L119.074 36.5935 L121.095 35.668 L123.116 34.7639 L125.137 33.881 L127.158 33.0194 L129.179 32.1791 L131.2 31.36 L133.221 30.5622 L135.242 29.7857 L137.263 29.0305 L139.284 28.2965 L141.305 27.5838 L143.326 26.8924 L145.347 26.2223 L147.368 25.5734 L149.389 24.9458 L151.411 24.3395 L153.432 23.7545 L155.453 23.1907 L157.474 22.6482 L159.495 22.127 L161.516 21.627 L163.537 21.1484 L165.558 20.691 L167.579 20.2548 L169.6 19.84 L171.621 19.4464 L173.642 19.0741 L175.663 18.7231 L177.684 18.3933 L179.705 18.0849 L181.726 17.7977 L183.747 17.5317 L185.768 17.2871 L187.789 17.0637 L189.811 16.8616 L191.832 16.6808 L193.853 16.5212 L195.874 16.3829 L197.895 16.2659 L199.916 16.1702 L201.937 16.0957 L203.958 16.0425 L205.979 16.0106 L208 16"/>
<path fill="none" stroke="#737373" stroke-width="1" d="M16 112 L18.0211 109 L20.0421 106.064 L22.0632 103.189 L24.0842 100.377 L26.1053 97.6259 L28.1263 94.9351 L30.1474 92.3042 L32.1684 89.7324 L34.1895 87.219 L36.2105 84.7634 L38.2316 82.3649 L40.2526 80.0228 L42.2737 77.7365 L44.2947 75.5053 L46.3158 73.3285 L48.3368 71.2054 L50.3579 69.1354 L52.3789 67.1179 L54.4 65.152 L56.4211 63.2372 L58.4421 61.3728 L60.4632 59.5581 L62.4842 57.7925 L64.5053 56.0752 L66.5263 54.4056 L68.5474 52.7831 L70.5684 51.2068 L72.5895 49.6763 L74.6105 48.1908 L76.6316 46.7497 L78.6526 45.3522 L80.6737 43.9977 L82.6947 42.6855 L84.7158 41.415 L86.7368 40.1854 L88.7579 38.9962 L90.7789 37.8466 L92.8 36.736 L94.8211 35.6637 L96.8421 34.629 L98.8632 33.6312 L100.884 32.6697 L102.905 31.7438 L104.926 30.8529 L106.947 29.9962 L108.968 29.1731 L110.989 28.3829 L113.011 27.625 L115.032 26.8987 L117.053 26.2032 L119.074 25.538 L121.095 24.9024 L123.116 24.2956 L125.137 23.7171 L127.158 23.1661 L129.179 22.6419 L131.2 22.144 L133.221 21.6716 L135.242 21.2241 L137.263 20.8007 L139.284 20.4009 L141.305 20.0239 L143.326 19.669 L145.347 19.3357 L147.368 19.0232 L149.389 18.7308 L151.411 18.458 L153.432 18.2039 L155.453 17.968 L157.474 17.7495 L159.495 17.5479 L161.516 17.3623 L163.537 17.1923 L165.558 17.037 L167.579 16.8958 L169.6 16.768 L171.621 16.653 L173.642 16.5501 L175.663 16.4586 L177.684 16.3779 L179.705 16.3072 L181.726 16.246 L183.747 16.1935 L185.768 16.149 L187.789 16.112 L189.811 16.0816 L191.832 16.0573 L193.853 16.0384 L195.874 16.0242 L197.895 16.014 L199.916 16.0072 L201.937 16.003 L203.958 16.0009 L205.979 16.0001 L208 16"/>
<path fill="none" stroke="#737373" stroke-width="1" d="M16 112 L18.0211 108.021 L20.0421 104.168 L22.0632 100.436 L24.0842 96.8244 L26.1053 93.3298 L28.1263 89.9498 L30.1474 86.6818 L32.1684 83.5233 L34.1895 80.4719 L36.2105 77.5251 L38.2316 74.6805 L40.2526 71.9357 L42.2737 69.2883 L44.2947 66.7361 L46.3158 64.2766 L48.3368 61.9077 L50.3579 59.627 L52.3789 57.4324 L54.4 55.3216 L56.4211 53.2925 L58.4421 51.343 L60.4632 49.471 L62.4842 47.6743 L64.5053 45.9509 L66.5263 44.2989 L68.5474 42.7161 L70.5684 41.2007 L72.5895 39.7507 L74.6105 38.3642 L76.6316 37.0392 L78.6526 35.7741 L80.6737 34.5669 L82.6947 33.4158 L84.7158 32.3191 L86.7368 31.275 L88.7579 30.2819 L90.7789 29.3379 L92.8 28.4416 L94.8211 27.5912 L96.8421 26.7852 L98.8632 26.0219 L100.884 25.2999 L102.905 24.6177 L104.926 23.9737 L106.947 23.3664 L108.968 22.7946 L110.989 22.2567 L113.011 21.7513 L115.032 21.2773 L117.053 20.8331 L119.074 20.4176 L121.095 20.0295 L123.116 19.6675 L125.137 19.3305 L127.158 19.0173 L129.179 18.7267 L131.2 18.4576 L133.221 18.2089 L135.242 17.9796 L137.263 17.7687 L139.284 17.5751 L141.305 17.3978 L143.326 17.2359 L145.347 17.0885 L147.368 16.9547 L149.389 16.8336 L151.411 16.7244 L153.432 16.6264 L155.453 16.5386 L157.474 16.4604 L159.495 16.391 L161.516 16.3298 L163.537 16.2761 L165.558 16.2292 L167.579 16.1886 L169.6 16.1536 L171.621 16.1237 L173.642 16.0984 L175.663 16.0772 L177.684 16.0597 L179.705 16.0453 L181.726 16.0337 L183.747 16.0244 L185.768 16.0173 L187.789 16.0118 L189.811 16.0077 L191.832 16.0048 L193.853 16.0028 L195.874 16.0015 L197.895 16.0007 L199.916 16.0003 L201.937 16.0001 L203.958 16 L205.979 16 L208 16"/>
<path fill="none" stroke="#dcdcdc" stroke-width="1.75" d="M16 112 L18.0211 107.053 L20.0421 102.311 L22.0632 97.7697 L24.0842 93.4213 L26.1053 89.2598 L28.1263 85.2793 L30.1474 81.4736 L32.1684 77.8372 L34.1895 74.3641 L36.2105 71.0488 L38.2316 67.8859 L40.2526 64.8702 L42.2737 61.9962 L44.2947 59.2592 L46.3158 56.654 L48.3368 54.1759 L50.3579 51.82 L52.3789 49.582 L54.4 47.4573 L56.4211 45.4415 L58.4421 43.5303 L60.4632 41.7198 L62.4842 40.0058 L64.5053 38.3844 L66.5263 36.8518 L68.5474 35.4043 L70.5684 34.0384 L72.5895 32.7505 L74.6105 31.5372 L76.6316 30.3953 L78.6526 29.3215 L80.6737 28.3128 L82.6947 27.3661 L84.7158 26.4786 L86.7368 25.6474 L88.7579 24.8698 L90.7789 24.1432 L92.8 23.465 L94.8211 22.8327 L96.8421 22.244 L98.8632 21.6967 L100.884 21.1884 L102.905 20.717 L104.926 20.2806 L106.947 19.8771 L108.968 19.5046 L110.989 19.1612 L113.011 18.8454 L115.032 18.5553 L117.053 18.2894 L119.074 18.046 L121.095 17.8239 L123.116 17.6214 L125.137 17.4374 L127.158 17.2704 L129.179 17.1194 L131.2 16.983 L133.221 16.8603 L135.242 16.7502 L137.263 16.6516 L139.284 16.5637 L141.305 16.4855 L143.326 16.4163 L145.347 16.3552 L147.368 16.3015 L149.389 16.2545 L151.411 16.2135 L153.432 16.178 L155.453 16.1474 L157.474 16.1212 L159.495 16.0988 L161.516 16.0799 L163.537 16.0639 L165.558 16.0507 L167.579 16.0397 L169.6 16.0307 L171.621 16.0234 L173.642 16.0176 L175.663 16.013 L177.684 16.0094 L179.705 16.0067 L181.726 16.0046 L183.747 16.0031 L185.768 16.002 L187.789 16.0012 L189.811 16.0007 L191.832 16.0004 L193.853 16.0002 L195.874 16.0001 L197.895 16 L199.916 16 L201.937 16 L203.958 16 L205.979 16 L208 16"/>
</svg>
