<svg class="m-image" style="width: 224px; height: 128px;" viewBox="0 0 224 128">
<path fill="none" stroke="#405363" stroke-width="1.0" d="
  M16 16 L208 16 M16 112 L208 112
  M16 106 l0 12 M208 10 l0 12"/>
<path fill="none" stroke="#cd3330" stroke-width="1.5" d="M1.85263 111.358 L3.87368 111.528 L5.89474 111.672 L7.91579 111.79 L9.93684 111.882 L11.9579 111.948 L13.9789 111.987 L16 112"/>
<path fill="none" stroke="#cd3330" stroke-width="1.5" d="M208 16 L210.021 14.4127 L212.042 12.8259 L214.063 11.24 L216.084 9.65529 L218.105 8.07239 L220.126 6.49164 L222.147 4.91348"/>
<path fill="none" stroke="#737373" stroke-width="1" d="M16 112 L18.0211 111.995 L20.0421 111.979 L22.0632 111.952 L24.0842 111.915 L26.1053 111.867 L28.1263 111.808 L30.1474 111.739 L32.1684 111.659 L34.1895 111.568 L36.2105 111.467 L38.2316 111.354 L40.2526 111.231 L42.2737 111.097 L44.2947 110.952 L46.3158 110.796 L48.3368 110.629 L50.3579 110.45 L52.3789 110.261 L54.4 110.06 L56.4211 109.848 L58.4421 109.625 L60.4632 109.39 L62.4842 109.144 L64.5053 108.886 L66.5263 108.616 L68.5474 108.335 L70.5684 108.041 L72.5895 107.736 L74.6105 107.418 L76.6316 107.088 L78.6526 106.745 L80.6737 106.39 L82.6947 106.022 L84.7158 105.641 L86.7368 105.247 L88.7579 104.84 L90.7789 104.42 L92.8 103.985 L94.8211 103.537 L96.8421 103.075 L98.8632 102.599 L100.884 102.108 L102.905 101.603 L104.926 101.082 L106.947 100.547 L108.968 99.9953 L110.989 99.4281 L113.011 98.8447 L115.032 98.2447 L117.053 97.6278 L119.074 96.9935 L121.095 96.3416 L123.116 95.6715 L125.137 94.9828 L127.158 94.275 L129.179 93.5476 L131.2 92.8 L133.221 92.0316 L135.242 91.2418 L137.263 90.4299 L139.284 89.5952 L141.305 88.7368 L143.326 87.854 L145.347 86.9459 L147.368 86.0113 L149.389 85.0493 L151.411 84.0588 L153.432 83.0383 L155.453 81.9867 L157.474 80.9022 L159.495 79.7833 L161.516 78.6282 L163.537 77.4347 L165.558 76.2006 L167.579 74.9233 L169.6 73.6 L171.621 72.2274 L173.642 70.8018 L175.663 69.319 L177.684 67.7741 L179.705 66.1612 L181.726 64.4737 L183.747 62.7034 L185.768 60.8405 L187.789 58.873 L189.811 56.7857 L191.832 54.5592 L193.853 52.1678 L195.874 49.5763 L197.895 46.7339 L199.916 43.5635 L201.937 39.9348 L203.958 35.5948 L205.979 29.8924 L208 16"/>
<path fill="none" stroke="#dcdcdc" stroke-width="1.75" d="M16 112 L18.0211 111.987 L20.0421 111.948 L22.0632 111.882 L24.0842 111.79 L26.1053 111.672 L28.1263 111.528 L30.1474 111.358 L32.1684 111.161 L34.1895 110.939 L36.2105 110.691 L38.2316 110.416 L40.2526 110.116 L42.2737 109.791 L44.2947 109.439 L46.3158 109.062 L48.3368 108.66 L50.3579 108.232 L52.3789 107.779 L54.4 107.301 L56.4211 106.798 L58.4421 106.271 L60.4632 105.718 L62.4842 105.141 L64.5053 104.54 L66.5263 103.914 L68.5474 103.265 L70.5684 102.591 L72.5895 101.894 L74.6105 101.173 L76.6316 100.429 L78.6526 99.6625 L80.6737 98.8726 L82.6947 98.0601 L84.7158 97.2251 L86.7368 96.368 L88.7579 95.4888 L90.7789 94.588 L92.8 93.6656 L94.8211 92.7221 L96.8421 91.7575 L98.8632 90.7722 L100.884 89.7665 L102.905 88.7406 L104.926 87.6949 L106.947 86.6295 L108.968 85.5448 L110.989 84.4411 L113.011 83.3187 L115.032 82.1779 L117.053 81.019 L119.074 79.8424 L121.095 78.6482 L123.116 77.437 L125.137 76.2089 L127.158 74.9644 L129.179 73.7038 L131.2 72.4274 L133.221 71.1356 L135.242 69.8286 L137.263 68.507 L139.284 67.1711 L141.305 65.8211 L143.326 64.4575 L145.347 63.0807 L147.368 61.6909 L149.389 60.2887 L151.411 58.8745 L153.432 57.4484 L155.453 56.0111 L157.474 54.5628 L159.495 53.1039 L161.516 51.6349 L163.537 50.1562 L165.558 48.6681 L167.579 47.1711 L169.6 45.6656 L171.621 44.152 L173.642 42.6307 L175.663 41.1021 L177.684 39.5666 L179.705 38.0247 L181.726 36.4768 L183.747 34.9232 L185.768 33.3645 L187.789 31.8011 L189.811 30.2333 L191.832 28.6616 L193.853 27.0865 L195.874 25.5084 L197.895 23.9276 L199.916 22.3447 L201.937 20.76 L203.958 19.1741 L205.979 17.5873 L208 16"/>
</svg>
