<svg class="m-image m-nopadb" style="width: 128px; height: 128px; margin-top: -16px; margin-bottom: -16px;" viewBox="0 0 128 128">
<path fill="none" stroke="#405363" stroke-width="1.0" d="
  M0 32 L128 32 M0 96 L128 96
  M0 92 l0 8 M128 28 l0 8"/>
<path fill="none" stroke="#dcdcdc" stroke-width="1.5" d="M0 96 L2.03175 93.0005 L4.06349 90.0962 L6.09524 87.2856 L8.12698 84.5671 L10.1587 81.9393 L12.1905 79.4005 L14.2222 76.9492 L16.254 74.584 L18.2857 72.3032 L20.3175 70.1053 L22.3492 67.9889 L24.381 65.9523 L26.4127 63.994 L28.4444 62.1125 L30.4762 60.3062 L32.5079 58.5737 L34.5397 56.9133 L36.5714 55.3236 L38.6032 53.803 L40.6349 52.35 L42.6667 50.963 L44.6984 49.6405 L46.7302 48.3809 L48.7619 47.1828 L50.7937 46.0446 L52.8254 44.9647 L54.8571 43.9417 L56.8889 42.9739 L58.9206 42.0599 L60.9524 41.1981 L62.9841 40.387 L65.0159 39.6251 L67.0476 38.9107 L69.0794 38.2424 L71.1111 37.6187 L73.1429 37.0379 L75.1746 36.4986 L77.2064 35.9992 L79.2381 35.5383 L81.2698 35.1142 L83.3016 34.7254 L85.3333 34.3704 L87.3651 34.0476 L89.3968 33.7556 L91.4286 33.4927 L93.4603 33.2575 L95.4921 33.0484 L97.5238 32.8638 L99.5556 32.7023 L101.587 32.5623 L103.619 32.4423 L105.651 32.3407 L107.683 32.256 L109.714 32.1866 L111.746 32.1311 L113.778 32.0878 L115.81 32.0553 L117.841 32.032 L119.873 32.0164 L121.905 32.0069 L123.937 32.0021 L125.968 32.0003 L128 32"/>
</svg>
