<svg class="m-image" style="width: 224px; height: 192px; margin-top: -24px; margin-bottom: -8px;" viewBox="0 0 224 192">
<path fill="none" stroke="#405363" stroke-width="1.0" d="
  M16 48 L208 48 M16 144 L208 144
  M16 138 l0 12 M208 42 l0 12"/>
<path fill="none" stroke="#cd3330" stroke-width="1.5" d="M1.85263 147.313 L3.87368 146.44 L5.89474 145.697 L7.91579 145.086 L9.93684 144.61 L11.9579 144.27 L13.9789 144.067 L16 144"/>
<path fill="none" stroke="#cd3330" stroke-width="1.5" d="M208 48 L210.021 47.9328 L212.042 47.7299 L214.063 47.3903 L216.084 46.9144 L218.105 46.3034 L220.126 45.5599 L222.147 44.6872"/>
<path fill="none" stroke="#dcdcdc" stroke-width="1.75" d="M16 144 L18.0211 144.066 L20.0421 144.263 L22.0632 144.585 L24.0842 145.028 L26.1053 145.585 L28.1263 146.247 L30.1474 147.006 L32.1684 147.851 L34.1895 148.773 L36.2105 149.759 L38.2316 150.796 L40.2526 151.871 L42.2737 152.97 L44.2947 154.077 L46.3158 155.178 L48.3368 156.256 L50.3579 157.295 L52.3789 158.278 L54.4 159.188 L56.4211 160.009 L58.4421 160.723 L60.4632 161.314 L62.4842 161.764 L64.5053 162.058 L66.5263 162.179 L68.5474 162.111 L70.5684 161.841 L72.5895 161.352 L74.6105 160.633 L76.6316 159.67 L78.6526 158.451 L80.6737 156.965 L82.6947 155.204 L84.7158 153.157 L86.7368 150.819 L88.7579 148.182 L90.7789 145.242 L92.8 141.995 L94.8211 138.439 L96.8421 134.574 L98.8632 130.4 L100.884 125.918 L102.905 121.133 L104.926 116.049 L106.947 110.672 L108.968 105.009 L110.989 99.0702 L113.011 92.9298 L115.032 86.9907 L117.053 81.3282 L119.074 75.9512 L121.095 70.867 L123.116 66.0818 L125.137 61.6003 L127.158 57.4259 L129.179 53.5607 L131.2 50.005 L133.221 46.7583 L135.242 43.8183 L137.263 41.1814 L139.284 38.8428 L141.305 36.7964 L143.326 35.0348 L145.347 33.5493 L147.368 32.3304 L149.389 31.367 L151.411 30.6476 L153.432 30.1593 L155.453 29.8886 L157.474 29.8212 L159.495 29.9422 L161.516 30.2358 L163.537 30.6862 L165.558 31.2768 L167.579 31.9909 L169.6 32.8117 L171.621 33.7221 L173.642 34.7052 L175.663 35.744 L177.684 36.8219 L179.705 37.9226 L181.726 39.03 L183.747 40.1287 L185.768 41.2039 L187.789 42.2411 L189.811 43.227 L191.832 44.1487 L193.853 44.9944 L195.874 45.7533 L197.895 46.4154 L199.916 46.9717 L201.937 47.4145 L203.958 47.737 L205.979 47.9337 L208 48"/>
</svg>
