<svg class="m-image m-nopadb" style="width: 128px; height: 128px; margin-top: -16px; margin-bottom: -16px;" viewBox="0 0 128 128">
<path fill="none" stroke="#405363" stroke-width="1.0" d="
  M0 32 L128 32 M0 96 L128 96
  M0 92 l0 8 M128 28 l0 8"/>
<path fill="none" stroke="#dcdcdc" stroke-width="1.5" d="M0 96 L2.03175 95.9975 L4.06349 95.9805 L6.09524 95.9357 L8.12698 95.8514 L10.1587 95.7169 L12.1905 95.5231 L14.2222 95.2619 L16.254 94.9265 L18.2857 94.5111 L20.3175 94.0112 L22.3492 93.4232 L24.381 92.7445 L26.4127 91.9736 L28.4444 91.1097 L30.4762 90.1529 L32.5079 89.1043 L34.5397 87.9656 L36.5714 86.7391 L38.6032 85.4281 L40.6349 84.0362 L42.6667 82.5679 L44.6984 81.0279 L46.7302 79.4217 L48.7619 77.755 L50.7937 76.034 L52.8254 74.2652 L54.8571 72.4555 L56.8889 70.612 L58.9206 68.7419 L60.9524 66.8528 L62.9841 64.9522 L65.0159 63.0478 L67.0476 61.1472 L69.0794 59.258 L71.1111 57.388 L73.1429 55.5445 L75.1746 53.7348 L77.2064 51.966 L79.2381 50.245 L81.2698 48.5783 L83.3016 46.9721 L85.3333 45.4321 L87.3651 43.9638 L89.3968 42.5719 L91.4286 41.2609 L93.4603 40.0344 L95.4921 38.8957 L97.5238 37.8471 L99.5556 36.8903 L101.587 36.0264 L103.619 35.2554 L105.651 34.5768 L107.683 33.9888 L109.714 33.4889 L111.746 33.0735 L113.778 32.7381 L115.81 32.4769 L117.841 32.283 L119.873 32.1486 L121.905 32.0643 L123.937 32.0195 L125.968 32.0025 L128 32"/>
</svg>
