<svg class="m-image m-nopadb" style="width: 128px; height: 128px; margin-top: -16px; margin-bottom: -16px;" viewBox="0 0 128 128">
<path fill="none" stroke="#405363" stroke-width="1.0" d="
  M0 32 L128 32 M0 96 L128 96
  M0 92 l0 8 M128 28 l0 8"/>
<path fill="none" stroke="#dcdcdc" stroke-width="1.5" d="M0 96 L2.03175 95.9302 L4.06349 95.9221 L6.09524 95.9131 L8.12698 95.9029 L10.1587 95.8917 L12.1905 95.8791 L14.2222 95.865 L16.254 95.8493 L18.2857 95.8318 L20.3175 95.8122 L22.3492 95.7904 L24.381 95.766 L26.4127 95.7388 L28.4444 95.7084 L30.4762 95.6745 L32.5079 95.6366 L34.5397 95.5943 L36.5714 95.5471 L38.6032 95.4945 L40.6349 95.4357 L42.6667 95.37 L44.6984 95.2968 L46.7302 95.215 L48.7619 95.1237 L50.7937 95.0218 L52.8254 94.908 L54.8571 94.781 L56.8889 94.6392 L58.9206 94.4809 L60.9524 94.3043 L62.9841 94.1071 L65.0159 93.8869 L67.0476 93.6411 L69.0794 93.3668 L71.1111 93.0605 L73.1429 92.7187 L75.1746 92.337 L77.2064 91.911 L79.2381 91.4354 L81.2698 90.9046 L83.3016 90.3119 L85.3333 89.6504 L87.3651 88.9119 L89.3968 88.0875 L91.4286 87.1673 L93.4603 86.14 L95.4921 84.9932 L97.5238 83.7131 L99.5556 82.2841 L101.587 80.6889 L103.619 78.9081 L105.651 76.9203 L107.683 74.7012 L109.714 72.2241 L111.746 69.4588 L113.778 66.372 L115.81 62.9262 L117.841 59.0795 L119.873 54.7855 L121.905 49.9921 L123.937 44.6412 L125.968 38.668 L128 32"/>
</svg>
