<svg class="m-image m-nopadb" style="width: 128px; height: 128px; margin-top: -16px; margin-bottom: -16px;" viewBox="0 0 128 128">
<path fill="none" stroke="#405363" stroke-width="1.0" d="
  M0 32 L128 32 M0 96 L128 96
  M0 92 l0 8 M128 28 l0 8"/>
<path fill="none" stroke="#dcdcdc" stroke-width="1.5" d="M0 96 L2.03175 86.3466 L4.06349 72.9397 L6.09524 57.9171 L8.12698 43.1626 L10.1587 30.1596 L12.1905 19.9167 L14.2222 12.9555 L16.254 9.35266 L18.2857 8.82019 L20.3175 10.8071 L22.3492 14.6087 L24.381 19.4708 L26.4127 24.6774 L28.4444 29.6183 L30.4762 33.8313 L32.5079 37.0214 L34.5397 39.0585 L36.5714 39.958 L38.6032 39.8511 L40.6349 38.9475 L42.6667 37.4989 L44.6984 35.7637 L46.7302 33.9792 L48.7619 32.3411 L50.7937 30.991 L52.8254 30.0127 L54.8571 29.4345 L56.8889 29.2378 L58.9206 29.3676 L60.9524 29.7459 L62.9841 30.2843 L65.0159 30.895 L67.0476 31.5002 L69.0794 32.0379 L71.1111 32.4654 L73.1429 32.76 L75.1746 32.9173 L77.2064 32.948 L79.2381 32.8739 L81.2698 32.7234 L83.3016 32.5273 L85.3333 32.315 L87.3651 32.1118 L89.3968 31.9371 L91.4286 31.8035 L93.4603 31.7167 L95.4921 31.6766 L97.5238 31.6781 L99.5556 31.7128 L101.587 31.7706 L103.619 31.8408 L105.651 31.9138 L107.683 31.9813 L109.714 32.0374 L111.746 32.0786 L113.778 32.1034 L115.81 32.1126 L117.841 32.1082 L119.873 32.0934 L121.905 32.0718 L123.937 32.047 L125.968 32.0222 L128 32"/>
</svg>
