<svg class="m-image m-nopadb" style="width: 128px; height: 128px; margin-top: -16px; margin-bottom: -16px;" viewBox="0 0 128 128">
<path fill="none" stroke="#405363" stroke-width="1.0" d="
  M0 32 L128 32 M0 96 L128 96
  M0 92 l0 8 M128 28 l0 8"/>
<path fill="none" stroke="#dcdcdc" stroke-width="1.5" d="M0 96 L2.03175 95.9839 L4.06349 95.9355 L6.09524 95.8549 L8.12698 95.742 L10.1587 95.5969 L12.1905 95.4195 L14.2222 95.2099 L16.254 94.968 L18.2857 94.6939 L20.3175 94.3875 L22.3492 94.0489 L24.381 93.678 L26.4127 93.2749 L28.4444 92.8395 L30.4762 92.3719 L32.5079 91.872 L34.5397 91.3399 L36.5714 90.7755 L38.6032 90.1789 L40.6349 89.55 L42.6667 88.8889 L44.6984 88.1955 L46.7302 87.4699 L48.7619 86.712 L50.7937 85.9219 L52.8254 85.0995 L54.8571 84.2449 L56.8889 83.358 L58.9206 82.4389 L60.9524 81.4875 L62.9841 80.5039 L65.0159 79.488 L67.0476 78.4399 L69.0794 77.3595 L71.1111 76.2469 L73.1429 75.102 L75.1746 73.9249 L77.2064 72.7155 L79.2381 71.4739 L81.2698 70.2 L83.3016 68.8939 L85.3333 67.5555 L87.3651 66.1849 L89.3968 64.7821 L91.4286 63.3469 L93.4603 61.8796 L95.4921 60.3799 L97.5238 58.8481 L99.5556 57.284 L101.587 55.6876 L103.619 54.059 L105.651 52.3981 L107.683 50.705 L109.714 48.9796 L111.746 47.222 L113.778 45.4321 L115.81 43.61 L117.841 41.7556 L119.873 39.869 L121.905 37.9501 L123.937 35.999 L125.968 34.0156 L128 32"/>
</svg>
