<svg class="m-image m-nopadb" style="width: 128px; height: 128px; margin-top: -16px; margin-bottom: -16px;" viewBox="0 0 128 128">
<path fill="none" stroke="#405363" stroke-width="1.0" d="
  M0 32 L128 32 M0 96 L128 96
  M0 92 l0 8 M128 28 l0 8"/>
<path fill="none" stroke="#dcdcdc" stroke-width="1.5" d="M0 96 L2.03175 95.9778 L4.06349 95.953 L6.09524 95.9282 L8.12698 95.9066 L10.1587 95.8918 L12.1905 95.8874 L14.2222 95.8966 L16.254 95.9214 L18.2857 95.9626 L20.3175 96.0187 L22.3492 96.0862 L24.381 96.1592 L26.4127 96.2294 L28.4444 96.2872 L30.4762 96.3219 L32.5079 96.3234 L34.5397 96.2833 L36.5714 96.1965 L38.6032 96.0629 L40.6349 95.8882 L42.6667 95.685 L44.6984 95.4727 L46.7302 95.2766 L48.7619 95.1261 L50.7937 95.052 L52.8254 95.0827 L54.8571 95.24 L56.8889 95.5346 L58.9206 95.9621 L60.9524 96.4998 L62.9841 97.105 L65.0159 97.7157 L67.0476 98.2541 L69.0794 98.6324 L71.1111 98.7622 L73.1429 98.5655 L75.1746 97.9873 L77.2064 97.009 L79.2381 95.6589 L81.2698 94.0208 L83.3016 92.2363 L85.3333 90.5011 L87.3651 89.0524 L89.3968 88.1489 L91.4286 88.042 L93.4603 88.9416 L95.4921 90.9786 L97.5238 94.1687 L99.5556 98.3818 L101.587 103.323 L103.619 108.529 L105.651 113.391 L107.683 117.193 L109.714 119.18 L111.746 118.647 L113.778 115.045 L115.81 108.083 L117.841 97.8403 L119.873 84.8374 L121.905 70.0828 L123.937 55.0602 L125.968 41.6534 L128 32"/>
</svg>
