<svg class="m-image" style="width: 224px; height: 128px;" viewBox="0 0 224 128">
<path fill="none" stroke="#405363" stroke-width="1.0" d="
  M16 16 L208 16 M16 112 L208 112
  M16 106 l0 12 M208 10 l0 12"/>
<path fill="none" stroke="#3ad267" stroke-width="1.5" d="M1.85263 119.074 L3.87368 118.063 L5.89474 117.053 L7.91579 116.042 L9.93684 115.032 L11.9579 114.021 L13.9789 113.011 L16 112"/>
<path fill="none" stroke="#3ad267" stroke-width="1.5" d="M208 16 L210.021 14.9895 L212.042 13.9789 L214.063 12.9684 L216.084 11.9579 L218.105 10.9474 L220.126 9.93684 L222.147 8.92632"/>
<path fill="none" stroke="#2f83cc" stroke-width="1.0" d="M78.2111 80.8944 L16 112 C80 80, 144 48, 208 16 L145.789 47.1056"/>
<circle cx="80" cy="80" r="2" stroke="#2f83cc" stroke-width="1.0" fill="none" />
<circle cx="144" cy="48" r="2" stroke="#2f83cc" stroke-width="1.0" fill="none" />
<path fill="none" stroke="#dcdcdc" stroke-width="1.75" d="M16 112 L18.0211 110.989 L20.0421 109.979 L22.0632 108.968 L24.0842 107.958 L26.1053 106.947 L28.1263 105.937 L30.1474 104.926 L32.1684 103.916 L34.1895 102.905 L36.2105 101.895 L38.2316 100.884 L40.2526 99.8737 L42.2737 98.8632 L44.2947 97.8526 L46.3158 96.8421 L48.3368 95.8316 L50.3579 94.8211 L52.3789 93.8105 L54.4 92.8 L56.4211 91.7895 L58.4421 90.7789 L60.4632 89.7684 L62.4842 88.7579 L64.5053 87.7474 L66.5263 86.7368 L68.5474 85.7263 L70.5684 84.7158 L72.5895 83.7053 L74.6105 82.6947 L76.6316 81.6842 L78.6526 80.6737 L80.6737 79.6632 L82.6947 78.6526 L84.7158 77.6421 L86.7368 76.6316 L88.7579 75.621 L90.7789 74.6105 L92.8 73.6 L94.8211 72.5895 L96.8421 71.5789 L98.8632 70.5684 L100.884 69.5579 L102.905 68.5474 L104.926 67.5368 L106.947 66.5263 L108.968 65.5158 L110.989 64.5053 L113.011 63.4947 L115.032 62.4842 L117.053 61.4737 L119.074 60.4632 L121.095 59.4526 L123.116 58.4421 L125.137 57.4316 L127.158 56.4211 L129.179 55.4105 L131.2 54.4 L133.221 53.3895 L135.242 52.379 L137.263 51.3684 L139.284 50.3579 L141.305 49.3474 L143.326 48.3368 L145.347 47.3263 L147.368 46.3158 L149.389 45.3053 L151.411 44.2947 L153.432 43.2842 L155.453 42.2737 L157.474 41.2632 L159.495 40.2526 L161.516 39.2421 L163.537 38.2316 L165.558 37.2211 L167.579 36.2105 L169.6 35.2 L171.621 34.1895 L173.642 33.1789 L175.663 32.1684 L177.684 31.1579 L179.705 30.1474 L181.726 29.1368 L183.747 28.1263 L185.768 27.1158 L187.789 26.1053 L189.811 25.0947 L191.832 24.0842 L193.853 23.0737 L195.874 22.0632 L197.895 21.0526 L199.916 20.0421 L201.937 19.0316 L203.958 18.021 L205.979 17.0105 L208 16"/>
</svg>
