<svg class="m-image m-nopadb" style="width: 128px; height: 128px; margin-top: -16px; margin-bottom: -16px;" viewBox="0 0 128 128">
<path fill="none" stroke="#405363" stroke-width="1.0" d="
  M0 32 L128 32 M0 96 L128 96
  M0 92 l0 8 M128 28 l0 8"/>
<path fill="none" stroke="#dcdcdc" stroke-width="1.5" d="M0 96 L2.03175 84.6422 L4.06349 80.002 L6.09524 76.4857 L8.12698 73.5586 L10.1587 71.0128 L12.1905 68.7413 L14.2222 66.6801 L16.254 64.7877 L18.2857 63.035 L20.3175 61.4006 L22.3492 59.8686 L24.381 58.4264 L26.4127 57.0641 L28.4444 55.7735 L30.4762 54.5479 L32.5079 53.3817 L34.5397 52.2702 L36.5714 51.2093 L38.6032 50.1955 L40.6349 49.2257 L42.6667 48.2972 L44.6984 47.4077 L46.7302 46.555 L48.7619 45.7374 L50.7937 44.953 L52.8254 44.2004 L54.8571 43.4783 L56.8889 42.7853 L58.9206 42.1204 L60.9524 41.4825 L62.9841 40.8708 L65.0159 40.2842 L67.0476 39.7221 L69.0794 39.1837 L71.1111 38.6684 L73.1429 38.1755 L75.1746 37.7045 L77.2064 37.2548 L79.2381 36.8259 L81.2698 36.4175 L83.3016 36.0291 L85.3333 35.6602 L87.3651 35.3106 L89.3968 34.9799 L91.4286 34.6678 L93.4603 34.3741 L95.4921 34.0984 L97.5238 33.8405 L99.5556 33.6003 L101.587 33.3774 L103.619 33.1717 L105.651 32.9831 L107.683 32.8114 L109.714 32.6564 L111.746 32.5181 L113.778 32.3963 L115.81 32.2909 L117.841 32.2019 L119.873 32.1291 L121.905 32.0726 L123.937 32.0323 L125.968 32.0081 L128 32"/>
</svg>
