<svg class="m-image m-nopadb" style="width: 128px; height: 128px; margin-top: -16px; margin-bottom: -16px;" viewBox="0 0 128 128">
<path fill="none" stroke="#405363" stroke-width="1.0" d="
  M0 32 L128 32 M0 96 L128 96
  M0 92 l0 8 M128 28 l0 8"/>
<path fill="none" stroke="#dcdcdc" stroke-width="1.5" d="M0 96 L2.03175 96 L4.06349 95.9999 L6.09524 95.9997 L8.12698 95.999 L10.1587 95.9975 L12.1905 95.9947 L14.2222 95.9902 L16.254 95.9834 L18.2857 95.9733 L20.3175 95.9594 L22.3492 95.9405 L24.381 95.9158 L26.4127 95.884 L28.4444 95.8439 L30.4762 95.7943 L32.5079 95.7337 L34.5397 95.6607 L36.5714 95.5735 L38.6032 95.4705 L40.6349 95.35 L42.6667 95.2099 L44.6984 95.0483 L46.7302 94.8631 L48.7619 94.6521 L50.7937 94.413 L52.8254 94.1434 L54.8571 93.8409 L56.8889 93.5028 L58.9206 93.1265 L60.9524 92.7092 L62.9841 92.248 L65.0159 91.7399 L67.0476 91.1819 L69.0794 90.5708 L71.1111 89.9034 L73.1429 89.1762 L75.1746 88.3858 L77.2064 87.5287 L79.2381 86.6011 L81.2698 85.5994 L83.3016 84.5197 L85.3333 83.358 L87.3651 82.1103 L89.3968 80.7725 L91.4286 79.3403 L93.4603 77.8093 L95.4921 76.1752 L97.5238 74.4333 L99.5556 72.5792 L101.587 70.6079 L103.619 68.5148 L105.651 66.2949 L107.683 63.9431 L109.714 61.4544 L111.746 58.8235 L113.778 56.0451 L115.81 53.1138 L117.841 50.0242 L119.873 46.7705 L121.905 43.347 L123.937 39.7481 L125.968 35.9678 L128 32"/>
</svg>
