<svg class="m-image" style="width: 224px; height: 128px;" viewBox="0 0 224 128">
<path fill="none" stroke="#405363" stroke-width="1.0" d="
  M16 16 L208 16 M16 112 L208 112
  M16 106 l0 12 M208 10 l0 12"/>
<path fill="none" stroke="#cd3330" stroke-width="1.5" d="M1.85263 111.476 L3.87368 111.616 L5.89474 111.733 L7.91579 111.829 L9.93684 111.904 L11.9579 111.957 L13.9789 111.989 L16 112"/>
<path fill="none" stroke="#cd3330" stroke-width="1.5" d="M208 16 L210.021 16.0106 L212.042 16.0426 L214.063 16.0958 L216.084 16.1705 L218.105 16.2667 L220.126 16.3845 L222.147 16.5241"/>
<path fill="none" stroke="#737373" stroke-width="1" d="M16 112 L18.0211 111.974 L20.0421 111.895 L22.0632 111.764 L24.0842 111.581 L26.1053 111.345 L28.1263 111.058 L30.1474 110.72 L32.1684 110.33 L34.1895 109.89 L36.2105 109.399 L38.2316 108.859 L40.2526 108.27 L42.2737 107.632 L44.2947 106.947 L46.3158 106.215 L48.3368 105.436 L50.3579 104.613 L52.3789 103.744 L54.4 102.833 L56.4211 101.879 L58.4421 100.883 L60.4632 99.8474 L62.4842 98.7724 L64.5053 97.6594 L66.5263 96.5095 L68.5474 95.3241 L70.5684 94.1045 L72.5895 92.8519 L74.6105 91.5678 L76.6316 90.2535 L78.6526 88.9105 L80.6737 87.5403 L82.6947 86.1444 L84.7158 84.7242 L86.7368 83.2814 L88.7579 81.8175 L90.7789 80.3341 L92.8 78.8328 L94.8211 77.3153 L96.8421 75.7833 L98.8632 74.2384 L100.884 72.6823 L102.905 71.1167 L104.926 69.5433 L106.947 67.9638 L108.968 66.38 L110.989 64.7936 L113.011 63.2064 L115.032 61.62 L117.053 60.0362 L119.074 58.4567 L121.095 56.8833 L123.116 55.3177 L125.137 53.7616 L127.158 52.2167 L129.179 50.6847 L131.2 49.1672 L133.221 47.6659 L135.242 46.1825 L137.263 44.7186 L139.284 43.2758 L141.305 41.8556 L143.326 40.4597 L145.347 39.0895 L147.368 37.7465 L149.389 36.4322 L151.411 35.1481 L153.432 33.8955 L155.453 32.6759 L157.474 31.4905 L159.495 30.3406 L161.516 29.2276 L163.537 28.1526 L165.558 27.1167 L167.579 26.1213 L169.6 25.1672 L171.621 24.2556 L173.642 23.3874 L175.663 22.5637 L177.684 21.7852 L179.705 21.053 L181.726 20.3677 L183.747 19.7301 L185.768 19.1409 L187.789 18.6008 L189.811 18.1103 L191.832 17.67 L193.853 17.2803 L195.874 16.9418 L197.895 16.6547 L199.916 16.4193 L201.937 16.236 L203.958 16.1049 L205.979 16.0262 L208 16"/>
<path fill="none" stroke="#dcdcdc" stroke-width="1.75" d="M16 112 L18.0211 111.989 L20.0421 111.957 L22.0632 111.904 L24.0842 111.829 L26.1053 111.733 L28.1263 111.616 L30.1474 111.476 L32.1684 111.314 L34.1895 111.131 L36.2105 110.924 L38.2316 110.695 L40.2526 110.443 L42.2737 110.167 L44.2947 109.868 L46.3158 109.544 L48.3368 109.195 L50.3579 108.821 L52.3789 108.42 L54.4 107.993 L56.4211 107.538 L58.4421 107.054 L60.4632 106.541 L62.4842 105.998 L64.5053 105.422 L66.5263 104.814 L68.5474 104.171 L70.5684 103.491 L72.5895 102.774 L74.6105 102.016 L76.6316 101.215 L78.6526 100.368 L80.6737 99.4729 L82.6947 98.5247 L84.7158 97.5192 L86.7368 96.4511 L88.7579 95.3141 L90.7789 94.1003 L92.8 92.8 L94.8211 91.4009 L96.8421 89.887 L98.8632 88.2368 L100.884 86.4202 L102.905 84.3929 L104.926 82.0839 L106.947 79.367 L108.968 75.9674 L110.989 70.9462 L113.011 57.0538 L115.032 52.0326 L117.053 48.633 L119.074 45.9161 L121.095 43.6071 L123.116 41.5797 L125.137 39.7632 L127.158 38.113 L129.179 36.5991 L131.2 35.2 L133.221 33.8997 L135.242 32.6859 L137.263 31.5489 L139.284 30.4808 L141.305 29.4753 L143.326 28.5271 L145.347 27.6316 L147.368 26.785 L149.389 25.9842 L151.411 25.2262 L153.432 24.5086 L155.453 23.8292 L157.474 23.1861 L159.495 22.5777 L161.516 22.0023 L163.537 21.4588 L165.558 20.9458 L167.579 20.4622 L169.6 20.0073 L171.621 19.5799 L173.642 19.1794 L175.663 18.8051 L177.684 18.4562 L179.705 18.1322 L181.726 17.8327 L183.747 17.557 L185.768 17.3048 L187.789 17.0758 L189.811 16.8695 L191.832 16.6857 L193.853 16.5241 L195.874 16.3845 L197.895 16.2667 L199.916 16.1705 L201.937 16.0958 L203.958 16.0426 L205.979 16.0106 L208 16"/>
</svg>
