<svg class="m-image" style="width: 224px; height: 192px; margin-top: -24px; margin-bottom: -8px;" viewBox="0 0 224 192">
<path fill="none" stroke="#405363" stroke-width="1.0" d="
  M16 48 L208 48 M16 144 L208 144
  M16 138 l0 12 M208 42 l0 12"/>
<path fill="none" stroke="#cd3330" stroke-width="1.5" d="M1.85263 58.5737 L3.87368 89.2578 L5.89474 113.806 L7.91579 131.88 L9.93684 143.495 L11.9579 148.975 L13.9789 148.89 L16 144"/>
<path fill="none" stroke="#3ad267" stroke-width="1.5" d="M208 48 L210.021 47.9814 L212.042 47.9662 L214.063 47.9547 L216.084 47.9469 L218.105 47.9428 L220.126 47.9419 L222.147 47.9439"/>
<path fill="none" stroke="#dcdcdc" stroke-width="1.75" d="M16 144 L18.0211 135.191 L20.0421 123.416 L22.0632 109.639 L24.0842 94.7905 L26.1053 79.7243 L28.1263 65.1892 L30.1474 51.8071 L32.1684 40.0602 L34.1895 30.2874 L36.2105 22.687 L38.2316 17.3271 L40.2526 14.159 L42.2737 13.0368 L44.2947 13.736 L46.3158 15.9761 L48.3368 19.4407 L50.3579 23.7983 L52.3789 28.7196 L54.4 33.8932 L56.4211 39.0377 L58.4421 43.9115 L60.4632 48.3188 L62.4842 52.1124 L64.5053 55.1947 L66.5263 57.5149 L68.5474 59.0659 L70.5684 59.8781 L72.5895 60.0129 L74.6105 59.5559 L76.6316 58.6093 L78.6526 57.2847 L80.6737 55.6968 L82.6947 53.957 L84.7158 52.1691 L86.7368 50.4249 L88.7579 48.8018 L90.7789 47.3607 L92.8 46.1459 L94.8211 45.1845 L96.8421 44.4881 L98.8632 44.0539 L100.884 43.867 L102.905 43.9028 L104.926 44.1293 L106.947 44.5099 L108.968 45.0054 L110.989 45.5766 L113.011 46.1859 L115.032 46.7991 L117.053 47.3863 L119.074 47.9232 L121.095 48.3908 L123.116 48.7762 L125.137 49.0723 L127.158 49.277 L129.179 49.3929 L131.2 49.4266 L133.221 49.3876 L135.242 49.2877 L137.263 49.1398 L139.284 48.9576 L141.305 48.7545 L143.326 48.5429 L145.347 48.3341 L147.368 48.1377 L149.389 47.9614 L151.411 47.8109 L153.432 47.6898 L155.453 47.6001 L157.474 47.5415 L159.495 47.5128 L161.516 47.5113 L163.537 47.5333 L165.558 47.5746 L167.579 47.6306 L169.6 47.6966 L171.621 47.7682 L173.642 47.8411 L175.663 47.9117 L177.684 47.9769 L179.705 48.0343 L181.726 48.0824 L183.747 48.1199 L185.768 48.1467 L187.789 48.1628 L189.811 48.169 L191.832 48.1662 L193.853 48.1559 L195.874 48.1395 L197.895 48.1188 L199.916 48.0951 L201.937 48.0701 L203.958 48.0452 L205.979 48.0215 L208 48"/>
</svg>
