<svg class="m-image" style="width: 224px; height: 128px;" viewBox="0 0 224 128">
<path fill="none" stroke="#405363" stroke-width="1.0" d="
  M16 16 L208 16 M16 112 L208 112
  M16 106 l0 12 M208 10 l0 12"/>
<path fill="none" stroke="#cd3330" stroke-width="1.5" d="M1.85263 130.898 L3.87368 126.82 L5.89474 123.201 L7.91579 120.042 L9.93684 117.342 L11.9579 115.102 L13.9789 113.321 L16 112"/>
<path fill="none" stroke="#cd3330" stroke-width="1.5" d="M208 16 L210.021 14.6788 L212.042 12.8982 L214.063 10.658 L216.084 7.95833 L218.105 4.79912 L220.126 1.18036 L222.147 -2.89795"/>
<path fill="none" stroke="#dcdcdc" stroke-width="1.75" d="M16 112 L18.0211 111.138 L20.0421 110.736 L22.0632 110.794 L24.0842 111.311 L26.1053 111.489 L28.1263 109.768 L30.1474 108.561 L32.1684 107.866 L34.1895 107.686 L36.2105 108.018 L38.2316 108.864 L40.2526 110.223 L42.2737 111.849 L44.2947 108.725 L46.3158 105.987 L48.3368 103.635 L50.3579 101.669 L52.3789 100.089 L54.4 98.896 L56.4211 98.0887 L58.4421 97.6674 L60.4632 97.6323 L62.4842 97.9833 L64.5053 98.7205 L66.5263 99.8438 L68.5474 101.353 L70.5684 103.249 L72.5895 105.53 L74.6105 108.198 L76.6316 111.252 L78.6526 107.801 L80.6737 102.653 L82.6947 97.8264 L84.7158 93.3215 L86.7368 89.1385 L88.7579 85.2772 L90.7789 81.7377 L92.8 78.52 L94.8211 75.624 L96.8421 73.0499 L98.8632 70.7975 L100.884 68.8668 L102.905 67.2579 L104.926 65.9709 L106.947 65.0055 L108.968 64.362 L110.989 64.0402 L113.011 63.9598 L115.032 63.638 L117.053 62.9945 L119.074 62.0291 L121.095 60.7421 L123.116 59.1332 L125.137 57.2025 L127.158 54.9501 L129.179 52.376 L131.2 49.48 L133.221 46.2623 L135.242 42.7228 L137.263 38.8615 L139.284 34.6784 L141.305 30.1736 L143.326 25.347 L145.347 20.1987 L147.368 16.7479 L149.389 19.8018 L151.411 22.4696 L153.432 24.7513 L155.453 26.6468 L157.474 28.1562 L159.495 29.2795 L161.516 30.0167 L163.537 30.3677 L165.558 30.3326 L167.579 29.9113 L169.6 29.104 L171.621 27.9105 L173.642 26.3309 L175.663 24.3651 L177.684 22.0133 L179.705 19.2753 L181.726 16.1512 L183.747 17.7766 L185.768 19.136 L187.789 19.9819 L189.811 20.3144 L191.832 20.1336 L193.853 19.4393 L195.874 18.2317 L197.895 16.5105 L199.916 16.6893 L201.937 17.2063 L203.958 17.2637 L205.979 16.8616 L208 16"/>
</svg>
