<svg class="m-image m-nopadb" style="width: 128px; height: 128px; margin-top: -16px; margin-bottom: -16px;" viewBox="0 0 128 128">
<path fill="none" stroke="#405363" stroke-width="1.0" d="
  M0 32 L128 32 M0 96 L128 96
  M0 92 l0 8 M128 28 l0 8"/>
<path fill="none" stroke="#dcdcdc" stroke-width="1.5" d="M0 96 L2.03175 96 L4.06349 96 L6.09524 96 L8.12698 95.9999 L10.1587 95.9998 L12.1905 95.9995 L14.2222 95.9989 L16.254 95.9979 L18.2857 95.9962 L20.3175 95.9936 L22.3492 95.9896 L24.381 95.984 L26.4127 95.9761 L28.4444 95.9653 L30.4762 95.951 L32.5079 95.9324 L34.5397 95.9084 L36.5714 95.8781 L38.6032 95.8403 L40.6349 95.7936 L42.6667 95.7366 L44.6984 95.6677 L46.7302 95.5849 L48.7619 95.4865 L50.7937 95.3702 L52.8254 95.2338 L54.8571 95.0747 L56.8889 94.8901 L58.9206 94.6773 L60.9524 94.4329 L62.9841 94.1538 L65.0159 93.8362 L67.0476 93.4762 L69.0794 93.07 L71.1111 92.613 L73.1429 92.1007 L75.1746 91.5282 L77.2064 90.8903 L79.2381 90.1816 L81.2698 89.3965 L83.3016 88.5287 L85.3333 87.572 L87.3651 86.5198 L89.3968 85.3649 L91.4286 84.1002 L93.4603 82.7179 L95.4921 81.2101 L97.5238 79.5683 L99.5556 77.7838 L101.587 75.8476 L103.619 73.7501 L105.651 71.4815 L107.683 69.0315 L109.714 66.3895 L111.746 63.5443 L113.778 60.4846 L115.81 57.1982 L117.841 53.673 L119.873 49.8961 L121.905 45.8543 L123.937 41.5339 L125.968 36.9207 L128 32"/>
</svg>
