<svg class="m-image m-nopadb" style="width: 128px; height: 128px; margin-top: -16px; margin-bottom: -16px;" viewBox="0 0 128 128">
<path fill="none" stroke="#405363" stroke-width="1.0" d="
  M0 32 L128 32 M0 96 L128 96
  M0 92 l0 8 M128 28 l0 8"/>
<path fill="none" stroke="#dcdcdc" stroke-width="1.5" d="M0 96 L2.03175 96 L4.06349 96 L6.09524 95.9997 L8.12698 95.9989 L10.1587 95.9968 L12.1905 95.992 L14.2222 95.9827 L16.254 95.9662 L18.2857 95.9391 L20.3175 95.8968 L22.3492 95.8338 L24.381 95.7433 L26.4127 95.6169 L28.4444 95.4451 L30.4762 95.2165 L32.5079 94.9181 L34.5397 94.535 L36.5714 94.0503 L38.6032 93.4451 L40.6349 92.6982 L42.6667 91.786 L44.6984 90.6825 L46.7302 89.359 L48.7619 87.7841 L50.7937 85.9238 L52.8254 83.7408 L54.8571 81.1947 L56.8889 78.2423 L58.9206 74.8365 L60.9524 70.9272 L62.9841 66.4603 L65.0159 61.5397 L67.0476 57.0728 L69.0794 53.1635 L71.1111 49.7577 L73.1429 46.8053 L75.1746 44.2592 L77.2064 42.0762 L79.2381 40.2159 L81.2698 38.641 L83.3016 37.3175 L85.3333 36.214 L87.3651 35.3018 L89.3968 34.5549 L91.4286 33.9497 L93.4603 33.465 L95.4921 33.0819 L97.5238 32.7835 L99.5556 32.5549 L101.587 32.3831 L103.619 32.2567 L105.651 32.1662 L107.683 32.1032 L109.714 32.0609 L111.746 32.0338 L113.778 32.0173 L115.81 32.008 L117.841 32.0032 L119.873 32.0011 L121.905 32.0003 L123.937 32 L125.968 32 L128 32"/>
</svg>
