<svg class="m-image m-nopadb" style="width: 128px; height: 128px; margin-top: -16px; margin-bottom: -16px;" viewBox="0 0 128 128">
<path fill="none" stroke="#405363" stroke-width="1.0" d="
  M0 32 L128 32 M0 96 L128 96
  M0 92 l0 8 M128 28 l0 8"/>
<path fill="none" stroke="#dcdcdc" stroke-width="1.5" d="M0 96 L2.03175 95.9521 L4.06349 95.8106 L6.09524 95.5784 L8.12698 95.2588 L10.1587 94.8546 L12.1905 94.3691 L14.2222 93.8052 L16.254 93.1661 L18.2857 92.4548 L20.3175 91.6744 L22.3492 90.828 L24.381 89.9186 L26.4127 88.9493 L28.4444 87.9232 L30.4762 86.8433 L32.5079 85.7128 L34.5397 84.5346 L36.5714 83.312 L38.6032 82.0478 L40.6349 80.7453 L42.6667 79.4074 L44.6984 78.0373 L46.7302 76.638 L48.7619 75.2126 L50.7937 73.7642 L52.8254 72.2958 L54.8571 70.8105 L56.8889 69.3114 L58.9206 67.8015 L60.9524 66.284 L62.9841 64.7618 L65.0159 63.2382 L67.0476 61.716 L69.0794 60.1985 L71.1111 58.6886 L73.1429 57.1895 L75.1746 55.7042 L77.2064 54.2358 L79.2381 52.7874 L81.2698 51.362 L83.3016 49.9627 L85.3333 48.5926 L87.3651 47.2547 L89.3968 45.9522 L91.4286 44.688 L93.4603 43.4654 L95.4921 42.2872 L97.5238 41.1567 L99.5556 40.0768 L101.587 39.0507 L103.619 38.0814 L105.651 37.172 L107.683 36.3256 L109.714 35.5452 L111.746 34.8339 L113.778 34.1948 L115.81 33.6309 L117.841 33.1454 L119.873 32.7412 L121.905 32.4215 L123.937 32.1894 L125.968 32.0479 L128 32"/>
</svg>
