<svg class="m-image" style="width: 224px; height: 128px;" viewBox="0 0 224 128">
<path fill="none" stroke="#405363" stroke-width="1.0" d="
  M16 16 L208 16 M16 112 L208 112
  M16 106 l0 12 M208 10 l0 12"/>
<path fill="none" stroke="#cd3330" stroke-width="1.5" d="M1.85263 125.269 L3.87368 122.684 L5.89474 120.329 L7.91579 118.204 L9.93684 116.308 L11.9579 114.642 L13.9789 113.206 L16 112"/>
<path fill="none" stroke="#cd3330" stroke-width="1.5" d="M208 16 L210.021 16.0804 L212.042 16.3218 L214.063 16.724 L216.084 17.2871 L218.105 18.0111 L220.126 18.896 L222.147 19.9417"/>
<path fill="none" stroke="#dcdcdc" stroke-width="1.75" d="M16 112 L18.0211 111.023 L20.0421 110.277 L22.0632 109.76 L24.0842 109.473 L26.1053 109.415 L28.1263 109.587 L30.1474 109.99 L32.1684 110.621 L34.1895 111.483 L36.2105 110.979 L38.2316 109.129 L40.2526 107.537 L42.2737 106.201 L44.2947 105.121 L46.3158 104.299 L48.3368 103.733 L50.3579 103.424 L52.3789 103.371 L54.4 103.575 L56.4211 104.036 L58.4421 104.754 L60.4632 105.728 L62.4842 106.959 L64.5053 108.447 L66.5263 110.191 L68.5474 111.698 L70.5684 108.477 L72.5895 105.449 L74.6105 102.615 L76.6316 99.9734 L78.6526 97.5251 L80.6737 95.2697 L82.6947 93.2074 L84.7158 91.3382 L86.7368 89.6621 L88.7579 88.179 L90.7789 86.889 L92.8 85.792 L94.8211 84.8881 L96.8421 84.1773 L98.8632 83.6595 L100.884 83.3348 L102.905 83.2032 L104.926 83.2646 L106.947 83.5191 L108.968 83.9667 L110.989 84.6073 L113.011 85.441 L115.032 86.4677 L117.053 87.6876 L119.074 89.1005 L121.095 90.7064 L123.116 92.5054 L125.137 94.4975 L127.158 96.6826 L129.179 99.0608 L131.2 101.632 L133.221 104.396 L135.242 107.354 L137.263 110.504 L139.284 108.992 L141.305 103.603 L143.326 98.3739 L145.347 93.3059 L147.368 88.3989 L149.389 83.6527 L151.411 79.0675 L153.432 74.6431 L155.453 70.3796 L157.474 66.277 L159.495 62.3353 L161.516 58.5545 L163.537 54.9345 L165.558 51.4755 L167.579 48.1773 L169.6 45.04 L171.621 42.0636 L173.642 39.2481 L175.663 36.5935 L177.684 34.0997 L179.705 31.7669 L181.726 29.5949 L183.747 27.5838 L185.768 25.7336 L187.789 24.0443 L189.811 22.5159 L191.832 21.1484 L193.853 19.9417 L195.874 18.896 L197.895 18.0111 L199.916 17.2871 L201.937 16.724 L203.958 16.3218 L205.979 16.0804 L208 16"/>
</svg>
