<svg class="m-image m-nopadb" style="width: 128px; height: 128px; margin-top: -16px; margin-bottom: -16px;" viewBox="0 0 128 128">
<path fill="none" stroke="#405363" stroke-width="1.0" d="
  M0 32 L128 32 M0 96 L128 96
  M0 92 l0 8 M128 28 l0 8"/>
<path fill="none" stroke="#dcdcdc" stroke-width="1.5" d="M0 96 L2.03175 94.4044 L4.06349 92.8099 L6.09524 91.2173 L8.12698 89.6277 L10.1587 88.042 L12.1905 86.4613 L14.2222 84.8865 L16.254 83.3186 L18.2857 81.7587 L20.3175 80.2075 L22.3492 78.6662 L24.381 77.1357 L26.4127 75.6169 L28.4444 74.1107 L30.4762 72.6182 L32.5079 71.1402 L34.5397 69.6776 L36.5714 68.2314 L38.6032 66.8025 L40.6349 65.3917 L42.6667 64 L44.6984 62.6282 L46.7302 61.277 L48.7619 59.9475 L50.7937 58.6404 L52.8254 57.3565 L54.8571 56.0966 L56.8889 54.8616 L58.9206 53.6521 L60.9524 52.4689 L62.9841 51.3128 L65.0159 50.1845 L67.0476 49.0847 L69.0794 48.014 L71.1111 46.9732 L73.1429 45.9628 L75.1746 44.9835 L77.2064 44.036 L79.2381 43.1207 L81.2698 42.2383 L83.3016 41.3894 L85.3333 40.5744 L87.3651 39.7938 L89.3968 39.0482 L91.4286 38.338 L93.4603 37.6636 L95.4921 37.0255 L97.5238 36.4241 L99.5556 35.8597 L101.587 35.3327 L103.619 34.8433 L105.651 34.3921 L107.683 33.9791 L109.714 33.6046 L111.746 33.269 L113.778 32.9723 L115.81 32.7148 L117.841 32.4967 L119.873 32.318 L121.905 32.179 L123.937 32.0796 L125.968 32.0199 L128 32"/>
</svg>
