<svg class="m-image m-nopadb" style="width: 128px; height: 128px; margin-top: -16px; margin-bottom: -16px;" viewBox="0 0 128 128">
<path fill="none" stroke="#405363" stroke-width="1.0" d="
  M0 32 L128 32 M0 96 L128 96
  M0 92 l0 8 M128 28 l0 8"/>
<path fill="none" stroke="#dcdcdc" stroke-width="1.5" d="M0 96 L2.03175 95.8781 L4.06349 95.5122 L6.09524 94.9025 L8.12698 94.0489 L10.1587 92.9514 L12.1905 91.61 L14.2222 90.0247 L16.254 88.1955 L18.2857 86.1225 L20.3175 83.8055 L22.3492 81.2446 L24.381 78.4399 L26.4127 75.3913 L28.4444 72.0988 L30.4762 68.5624 L32.5079 64.7821 L34.5397 60.7579 L36.5714 56.4898 L38.6032 51.9778 L40.6349 47.222 L42.6667 42.2222 L44.6984 36.9786 L46.7302 32.3035 L48.7619 35.483 L50.7937 38.3698 L52.8254 40.9639 L54.8571 43.2653 L56.8889 45.2741 L58.9206 46.9902 L60.9524 48.4136 L62.9841 49.5444 L65.0159 50.3825 L67.0476 50.9279 L69.0794 51.1806 L71.1111 51.1407 L73.1429 50.8082 L75.1746 50.1829 L77.2064 49.265 L79.2381 48.0544 L81.2698 46.5511 L83.3016 44.7552 L85.3333 42.6666 L87.3651 40.2854 L89.3968 37.6115 L91.4286 34.6449 L93.4603 32.3786 L95.4921 34.2305 L97.5238 35.6934 L99.5556 36.7671 L101.587 37.4517 L103.619 37.747 L105.651 37.6533 L107.683 37.1704 L109.714 36.2983 L111.746 35.0372 L113.778 33.3869 L115.81 32.3134 L117.841 33.132 L119.873 33.6022 L121.905 33.7241 L123.937 33.4977 L125.968 32.923 L128 32"/>
</svg>
