<svg class="m-image" style="width: 224px; height: 128px;" viewBox="0 0 224 128">
<path fill="none" stroke="#405363" stroke-width="1.0" d="
  M16 16 L208 16 M16 112 L208 112
  M16 106 l0 12 M208 10 l0 12"/>
<path fill="none" stroke="#cd3330" stroke-width="1.5" d="M1.85263 112.003 L3.87368 112.002 L5.89474 112.001 L7.91579 112 L9.93684 112 L11.9579 112 L13.9789 112 L16 112"/>
<path fill="none" stroke="#cd3330" stroke-width="1.5" d="M208 16 L210.021 16 L212.042 16 L214.063 16 L216.084 15.9998 L218.105 15.9994 L220.126 15.9985 L222.147 15.9967"/>
<path fill="none" stroke="#737373" stroke-width="1" d="M16 112 L18.0211 111.979 L20.0421 111.915 L22.0632 111.809 L24.0842 111.66 L26.1053 111.468 L28.1263 111.234 L30.1474 110.958 L32.1684 110.638 L34.1895 110.277 L36.2105 109.873 L38.2316 109.426 L40.2526 108.937 L42.2737 108.405 L44.2947 107.83 L46.3158 107.213 L48.3368 106.554 L50.3579 105.852 L52.3789 105.107 L54.4 104.32 L56.4211 103.49 L58.4421 102.618 L60.4632 101.703 L62.4842 100.746 L64.5053 99.746 L66.5263 98.7036 L68.5474 97.6186 L70.5684 96.4911 L72.5895 95.321 L74.6105 94.1084 L76.6316 92.8532 L78.6526 91.5555 L80.6737 90.2152 L82.6947 88.8324 L84.7158 87.407 L86.7368 85.9391 L88.7579 84.4286 L90.7789 82.8756 L92.8 81.28 L94.8211 79.6419 L96.8421 77.9612 L98.8632 76.238 L100.884 74.4722 L102.905 72.6639 L104.926 70.8131 L106.947 68.9197 L108.968 66.9837 L110.989 65.0052 L113.011 62.9948 L115.032 61.0163 L117.053 59.0803 L119.074 57.1869 L121.095 55.3361 L123.116 53.5278 L125.137 51.762 L127.158 50.0388 L129.179 48.3581 L131.2 46.72 L133.221 45.1244 L135.242 43.5714 L137.263 42.0609 L139.284 40.593 L141.305 39.1676 L143.326 37.7848 L145.347 36.4445 L147.368 35.1468 L149.389 33.8916 L151.411 32.679 L153.432 31.5089 L155.453 30.3814 L157.474 29.2964 L159.495 28.254 L161.516 27.2541 L163.537 26.2967 L165.558 25.3819 L167.579 24.5097 L169.6 23.68 L171.621 22.8929 L173.642 22.1483 L175.663 21.4462 L177.684 20.7867 L179.705 20.1697 L181.726 19.5953 L183.747 19.0635 L185.768 18.5742 L187.789 18.1274 L189.811 17.7232 L191.832 17.3615 L193.853 17.0424 L195.874 16.7659 L197.895 16.5319 L199.916 16.3404 L201.937 16.1915 L203.958 16.0851 L205.979 16.0213 L208 16"/>
<path fill="none" stroke="#737373" stroke-width="1" d="M16 112 L18.0211 112 L20.0421 111.996 L22.0632 111.988 L24.0842 111.971 L26.1053 111.944 L28.1263 111.903 L30.1474 111.846 L32.1684 111.771 L34.1895 111.673 L36.2105 111.552 L38.2316 111.404 L40.2526 111.226 L42.2737 111.016 L44.2947 110.771 L46.3158 110.488 L48.3368 110.165 L50.3579 109.8 L52.3789 109.388 L54.4 108.928 L56.4211 108.417 L58.4421 107.852 L60.4632 107.231 L62.4842 106.551 L64.5053 105.809 L66.5263 105.002 L68.5474 104.128 L70.5684 103.184 L72.5895 102.168 L74.6105 101.077 L76.6316 99.9073 L78.6526 98.6572 L80.6737 97.3239 L82.6947 95.9046 L84.7158 94.3966 L86.7368 92.7972 L88.7579 91.1038 L90.7789 89.3136 L92.8 87.424 L94.8211 85.4323 L96.8421 83.3358 L98.8632 81.1318 L100.884 78.8176 L102.905 76.3905 L104.926 73.8479 L106.947 71.1871 L108.968 68.4053 L110.989 65.4999 L113.011 62.5001 L115.032 59.5947 L117.053 56.8129 L119.074 54.1521 L121.095 51.6095 L123.116 49.1824 L125.137 46.8682 L127.158 44.6642 L129.179 42.5677 L131.2 40.576 L133.221 38.6864 L135.242 36.8962 L137.263 35.2028 L139.284 33.6034 L141.305 32.0954 L143.326 30.6761 L145.347 29.3428 L147.368 28.0927 L149.389 26.9233 L151.411 25.8318 L153.432 24.8156 L155.453 23.8719 L157.474 22.9981 L159.495 22.1915 L161.516 21.4493 L163.537 20.769 L165.558 20.1478 L167.579 19.583 L169.6 19.072 L171.621 18.612 L173.642 18.2004 L175.663 17.8345 L177.684 17.5116 L179.705 17.229 L181.726 16.984 L183.747 16.7739 L185.768 16.5961 L187.789 16.4479 L189.811 16.3265 L191.832 16.2293 L193.853 16.1536 L195.874 16.0967 L197.895 16.056 L199.916 16.0287 L201.937 16.0121 L203.958 16.0036 L205.979 16.0004 L208 16"/>
<path fill="none" stroke="#737373" stroke-width="1" d="M16 112 L18.0211 112 L20.0421 112 L22.0632 111.999 L24.0842 111.998 L26.1053 111.994 L28.1263 111.988 L30.1474 111.977 L32.1684 111.961 L34.1895 111.938 L36.2105 111.906 L38.2316 111.862 L40.2526 111.804 L42.2737 111.731 L44.2947 111.638 L46.3158 111.523 L48.3368 111.382 L50.3579 111.212 L52.3789 111.01 L54.4 110.771 L56.4211 110.491 L58.4421 110.166 L60.4632 109.791 L62.4842 109.361 L64.5053 108.872 L66.5263 108.317 L68.5474 107.691 L70.5684 106.989 L72.5895 106.204 L74.6105 105.331 L76.6316 104.362 L78.6526 103.292 L80.6737 102.113 L82.6947 100.818 L84.7158 99.3997 L86.7368 97.8506 L88.7579 96.1629 L90.7789 94.3285 L92.8 92.3392 L94.8211 90.1865 L96.8421 87.8617 L98.8632 85.3558 L100.884 82.6597 L102.905 79.764 L104.926 76.6591 L106.947 73.3351 L108.968 69.782 L110.989 65.9894 L113.011 62.0106 L115.032 58.2181 L117.053 54.6649 L119.074 51.3409 L121.095 48.236 L123.116 45.3402 L125.137 42.6442 L127.158 40.1383 L129.179 37.8135 L131.2 35.6608 L133.221 33.6715 L135.242 31.8371 L137.263 30.1494 L139.284 28.6003 L141.305 27.1821 L143.326 25.887 L145.347 24.7079 L147.368 23.6375 L149.389 22.669 L151.411 21.7956 L153.432 21.011 L155.453 20.3088 L157.474 19.6832 L159.495 19.1283 L161.516 18.6386 L163.537 18.2088 L165.558 17.8338 L167.579 17.5086 L169.6 17.2288 L171.621 16.9898 L173.642 16.7875 L175.663 16.6179 L177.684 16.4773 L179.705 16.3622 L181.726 16.2693 L183.747 16.1955 L185.768 16.138 L187.789 16.0943 L189.811 16.0619 L191.832 16.0386 L193.853 16.0226 L195.874 16.0122 L197.895 16.0059 L199.916 16.0024 L201.937 16.0008 L203.958 16.0002 L205.979 16 L208 16"/>
<path fill="none" stroke="#dcdcdc" stroke-width="1.75" d="M16 112 L18.0211 112 L20.0421 112 L22.0632 112 L24.0842 112 L26.1053 111.999 L28.1263 111.998 L30.1474 111.997 L32.1684 111.993 L34.1895 111.988 L36.2105 111.98 L38.2316 111.968 L40.2526 111.951 L42.2737 111.926 L44.2947 111.893 L46.3158 111.849 L48.3368 111.792 L50.3579 111.718 L52.3789 111.625 L54.4 111.508 L56.4211 111.365 L58.4421 111.189 L60.4632 110.977 L62.4842 110.722 L64.5053 110.419 L66.5263 110.061 L68.5474 109.641 L70.5684 109.152 L72.5895 108.584 L74.6105 107.928 L76.6316 107.176 L78.6526 106.317 L80.6737 105.339 L82.6947 104.231 L84.7158 102.981 L86.7368 101.574 L88.7579 99.9971 L90.7789 98.2348 L92.8 96.2714 L94.8211 94.09 L96.8421 91.673 L98.8632 89.0019 L100.884 86.057 L102.905 82.818 L104.926 79.2632 L106.947 75.3701 L108.968 71.1152 L110.989 66.4737 L113.011 61.5263 L115.032 56.8849 L117.053 52.6299 L119.074 48.7368 L121.095 45.182 L123.116 41.943 L125.137 38.9981 L127.158 36.327 L129.179 33.91 L131.2 31.7286 L133.221 29.7652 L135.242 28.0029 L137.263 26.4259 L139.284 25.0192 L141.305 23.7686 L143.326 22.6608 L145.347 21.6831 L147.368 20.8237 L149.389 20.0716 L151.411 19.4164 L153.432 18.8483 L155.453 18.3585 L157.474 17.9385 L159.495 17.5806 L161.516 17.2776 L163.537 17.023 L165.558 16.8107 L167.579 16.6352 L169.6 16.4915 L171.621 16.3751 L173.642 16.2819 L175.663 16.2082 L177.684 16.1507 L179.705 16.1068 L181.726 16.0737 L183.747 16.0494 L185.768 16.032 L187.789 16.0198 L189.811 16.0117 L191.832 16.0065 L193.853 16.0033 L195.874 16.0015 L197.895 16.0006 L199.916 16.0002 L201.937 16 L203.958 16 L205.979 16 L208 16"/>
</svg>
