<svg class="m-image m-nopadb" style="width: 128px; height: 128px; margin-top: -16px; margin-bottom: -16px;" viewBox="0 0 128 128">
<path fill="none" stroke="#405363" stroke-width="1.0" d="
  M0 32 L128 32 M0 96 L128 96
  M0 92 l0 8 M128 28 l0 8"/>
<path fill="none" stroke="#dcdcdc" stroke-width="1.5" d="M0 96 L2.03175 91.0793 L4.06349 86.4661 L6.09524 82.1457 L8.12698 78.1039 L10.1587 74.327 L12.1905 70.8018 L14.2222 67.5154 L16.254 64.4557 L18.2857 61.6105 L20.3175 58.9685 L22.3492 56.5185 L24.381 54.2499 L26.4127 52.1524 L28.4444 50.2162 L30.4762 48.4317 L32.5079 46.7899 L34.5397 45.2821 L36.5714 43.8998 L38.6032 42.6351 L40.6349 41.4802 L42.6667 40.428 L44.6984 39.4713 L46.7302 38.6035 L48.7619 37.8184 L50.7937 37.1097 L52.8254 36.4718 L54.8571 35.8993 L56.8889 35.387 L58.9206 34.93 L60.9524 34.5238 L62.9841 34.1638 L65.0159 33.8462 L67.0476 33.5671 L69.0794 33.3227 L71.1111 33.1098 L73.1429 32.9253 L75.1746 32.7662 L77.2064 32.6298 L79.2381 32.5135 L81.2698 32.4151 L83.3016 32.3323 L85.3333 32.2634 L87.3651 32.2064 L89.3968 32.1597 L91.4286 32.1218 L93.4603 32.0916 L95.4921 32.0676 L97.5238 32.049 L99.5556 32.0347 L101.587 32.0239 L103.619 32.016 L105.651 32.0104 L107.683 32.0064 L109.714 32.0038 L111.746 32.0021 L113.778 32.0011 L115.81 32.0005 L117.841 32.0002 L119.873 32.0001 L121.905 32 L123.937 32 L125.968 32 L128 32"/>
</svg>
