<svg class="m-image m-nopadb" style="width: 128px; height: 128px; margin-top: -16px; margin-bottom: -16px;" viewBox="0 0 128 128">
<path fill="none" stroke="#405363" stroke-width="1.0" d="
  M0 32 L128 32 M0 96 L128 96
  M0 92 l0 8 M128 28 l0 8"/>
<path fill="none" stroke="#dcdcdc" stroke-width="1.5" d="M0 96 L2.03175 95.9765 L4.06349 95.9533 L6.09524 95.9437 L8.12698 95.9607 L10.1587 96.0094 L12.1905 96.0796 L14.2222 96.1436 L16.254 96.1617 L18.2857 96.0982 L20.3175 95.9441 L22.3492 95.7364 L24.381 95.5631 L26.4127 95.5413 L28.4444 95.7673 L30.4762 96.2499 L32.5079 96.8579 L34.5397 97.3162 L36.5714 97.2827 L38.6032 96.5045 L40.6349 95.0104 L42.6667 93.2505 L44.6984 92.0745 L46.7302 92.4708 L48.7619 95.0844 L50.7937 99.6613 L52.8254 104.696 L54.8571 107.59 L56.8889 105.522 L58.9206 96.9202 L60.9524 83.0414 L62.9841 68.8267 L65.0159 59.1733 L67.0476 44.9585 L69.0794 31.0798 L71.1111 22.4777 L73.1429 20.4101 L75.1746 23.3044 L77.2064 28.3387 L79.2381 32.9156 L81.2698 35.5292 L83.3016 35.9255 L85.3333 34.7495 L87.3651 32.9896 L89.3968 31.4955 L91.4286 30.7173 L93.4603 30.6838 L95.4921 31.1421 L97.5238 31.7501 L99.5556 32.2327 L101.587 32.4587 L103.619 32.4369 L105.651 32.2636 L107.683 32.0559 L109.714 31.9017 L111.746 31.8383 L113.778 31.8564 L115.81 31.9204 L117.841 31.9906 L119.873 32.0393 L121.905 32.0563 L123.937 32.0467 L125.968 32.0235 L128 32"/>
</svg>
