<svg class="m-image m-nopadb" style="width: 128px; height: 128px; margin-top: -16px; margin-bottom: -16px;" viewBox="0 0 128 128">
<path fill="none" stroke="#405363" stroke-width="1.0" d="
  M0 32 L128 32 M0 96 L128 96
  M0 92 l0 8 M128 28 l0 8"/>
<path fill="none" stroke="#dcdcdc" stroke-width="1.5" d="M0 96 L2.03175 96.1001 L4.06349 96.3944 L6.09524 96.8707 L8.12698 97.5129 L10.1587 98.3012 L12.1905 99.2124 L14.2222 100.22 L16.254 101.294 L18.2857 102.402 L20.3175 103.51 L22.3492 104.581 L24.381 105.579 L26.4127 106.463 L28.4444 107.197 L30.4762 107.74 L32.5079 108.055 L34.5397 108.106 L36.5714 107.856 L38.6032 107.274 L40.6349 106.329 L42.6667 104.994 L44.6984 103.245 L46.7302 101.062 L48.7619 98.4301 L50.7937 95.3377 L52.8254 91.7781 L54.8571 87.7492 L56.8889 83.254 L58.9206 78.2999 L60.9524 72.8994 L62.9841 67.0695 L65.0159 60.9305 L67.0476 55.1006 L69.0794 49.7001 L71.1111 44.746 L73.1429 40.2508 L75.1746 36.2219 L77.2064 32.6623 L79.2381 29.5699 L81.2698 26.938 L83.3016 24.7553 L85.3333 23.0063 L87.3651 21.671 L89.3968 20.7258 L91.4286 20.1436 L93.4603 19.8941 L95.4921 19.9446 L97.5238 20.2599 L99.5556 20.8032 L101.587 21.5365 L103.619 22.4213 L105.651 23.4187 L107.683 24.4902 L109.714 25.5982 L111.746 26.7063 L113.778 27.7802 L115.81 28.7876 L117.841 29.6987 L119.873 30.4871 L121.905 31.1293 L123.937 31.6056 L125.968 31.8999 L128 32"/>
</svg>
