<svg class="m-image m-nopadb" style="width: 128px; height: 128px; margin-top: -16px; margin-bottom: -16px;" viewBox="0 0 128 128">
<path fill="none" stroke="#405363" stroke-width="1.0" d="
  M0 32 L128 32 M0 96 L128 96
  M0 92 l0 8 M128 28 l0 8"/>
<path fill="none" stroke="#dcdcdc" stroke-width="1.5" d="M0 96 L2.03175 95.9678 L4.06349 95.871 L6.09524 95.7097 L8.12698 95.484 L10.1587 95.1938 L12.1905 94.839 L14.2222 94.4198 L16.254 93.936 L18.2857 93.3878 L20.3175 92.775 L22.3492 92.0978 L24.381 91.356 L26.4127 90.5498 L28.4444 89.679 L30.4762 88.7438 L32.5079 87.744 L34.5397 86.6798 L36.5714 85.551 L38.6032 84.3578 L40.6349 83.1 L42.6667 81.7778 L44.6984 80.391 L46.7302 78.9398 L48.7619 77.424 L50.7937 75.8438 L52.8254 74.199 L54.8571 72.4898 L56.8889 70.716 L58.9206 68.8778 L60.9524 66.9751 L62.9841 65.0078 L65.0159 62.9922 L67.0476 61.0249 L69.0794 59.1222 L71.1111 57.2839 L73.1429 55.5102 L75.1746 53.801 L77.2064 52.1562 L79.2381 50.576 L81.2698 49.0602 L83.3016 47.609 L85.3333 46.2222 L87.3651 44.9 L89.3968 43.6422 L91.4286 42.449 L93.4603 41.3202 L95.4921 40.256 L97.5238 39.2562 L99.5556 38.321 L101.587 37.4502 L103.619 36.644 L105.651 35.9022 L107.683 35.225 L109.714 34.6122 L111.746 34.064 L113.778 33.5802 L115.81 33.161 L117.841 32.8063 L119.873 32.516 L121.905 32.2902 L123.937 32.129 L125.968 32.0322 L128 32"/>
</svg>
