<svg class="m-image m-nopadb" style="width: 128px; height: 128px; margin-top: -16px; margin-bottom: -16px;" viewBox="0 0 128 128">
<path fill="none" stroke="#405363" stroke-width="1.0" d="
  M0 32 L128 32 M0 96 L128 96
  M0 92 l0 8 M128 28 l0 8"/>
<path fill="none" stroke="#dcdcdc" stroke-width="1.5" d="M0 96 L2.03175 92.0322 L4.06349 88.2519 L6.09524 84.653 L8.12698 81.2295 L10.1587 77.9759 L12.1905 74.8862 L14.2222 71.9549 L16.254 69.1765 L18.2857 66.5456 L20.3175 64.0569 L22.3492 61.7051 L24.381 59.4852 L26.4127 57.3921 L28.4444 55.4208 L30.4762 53.5667 L32.5079 51.8248 L34.5397 50.1907 L36.5714 48.6597 L38.6032 47.2275 L40.6349 45.8897 L42.6667 44.642 L44.6984 43.4803 L46.7302 42.4006 L48.7619 41.3989 L50.7937 40.4713 L52.8254 39.6142 L54.8571 38.8238 L56.8889 38.0966 L58.9206 37.4292 L60.9524 36.8181 L62.9841 36.2601 L65.0159 35.752 L67.0476 35.2908 L69.0794 34.8735 L71.1111 34.4972 L73.1429 34.1591 L75.1746 33.8566 L77.2064 33.587 L79.2381 33.3479 L81.2698 33.1369 L83.3016 32.9517 L85.3333 32.7901 L87.3651 32.65 L89.3968 32.5295 L91.4286 32.4265 L93.4603 32.3393 L95.4921 32.2663 L97.5238 32.2057 L99.5556 32.1561 L101.587 32.116 L103.619 32.0842 L105.651 32.0595 L107.683 32.0406 L109.714 32.0267 L111.746 32.0166 L113.778 32.0098 L115.81 32.0053 L117.841 32.0025 L119.873 32.001 L121.905 32.0003 L123.937 32.0001 L125.968 32 L128 32"/>
</svg>
