<svg class="m-image m-nopadb" style="width: 128px; height: 128px; margin-top: -16px; margin-bottom: -16px;" viewBox="0 0 128 128">
<path fill="none" stroke="#405363" stroke-width="1.0" d="
  M0 32 L128 32 M0 96 L128 96
  M0 92 l0 8 M128 28 l0 8"/>
<path fill="none" stroke="#dcdcdc" stroke-width="1.5" d="M0 96 L2.03175 95.077 L4.06349 94.5023 L6.09524 94.2759 L8.12698 94.3978 L10.1587 94.868 L12.1905 95.6866 L14.2222 94.6131 L16.254 92.9628 L18.2857 91.7017 L20.3175 90.8296 L22.3492 90.3467 L24.381 90.253 L26.4127 90.5483 L28.4444 91.2329 L30.4762 92.3066 L32.5079 93.7695 L34.5397 95.6215 L36.5714 93.3551 L38.6032 90.3885 L40.6349 87.7146 L42.6667 85.3333 L44.6984 83.2448 L46.7302 81.4488 L48.7619 79.9456 L50.7937 78.735 L52.8254 77.8171 L54.8571 77.1919 L56.8889 76.8593 L58.9206 76.8194 L60.9524 77.0721 L62.9841 77.6175 L65.0159 78.4557 L67.0476 79.5864 L69.0794 81.0099 L71.1111 82.7259 L73.1429 84.7347 L75.1746 87.0361 L77.2064 89.6302 L79.2381 92.517 L81.2698 95.6965 L83.3016 91.0214 L85.3333 85.7778 L87.3651 80.778 L89.3968 76.0222 L91.4286 71.5102 L93.4603 67.2421 L95.4921 63.2179 L97.5238 59.4376 L99.5556 55.9012 L101.587 52.6087 L103.619 49.5601 L105.651 46.7553 L107.683 44.1945 L109.714 41.8775 L111.746 39.8045 L113.778 37.9753 L115.81 36.39 L117.841 35.0486 L119.873 33.9511 L121.905 33.0975 L123.937 32.4878 L125.968 32.1219 L128 32"/>
</svg>
