<svg class="m-image m-nopadb" style="width: 128px; height: 128px; margin-top: -16px; margin-bottom: -16px;" viewBox="0 0 128 128">
<path fill="none" stroke="#405363" stroke-width="1.0" d="
  M0 32 L128 32 M0 96 L128 96
  M0 92 l0 8 M128 28 l0 8"/>
<path fill="none" stroke="#dcdcdc" stroke-width="1.5" d="M0 96 L2.03175 95.2511 L4.06349 95.1989 L6.09524 95.8433 L8.12698 94.4814 L10.1587 93.4148 L12.1905 93.1265 L14.2222 93.6165 L16.254 94.8847 L18.2857 94.6776 L20.3175 91.8573 L22.3492 89.6224 L24.381 87.9728 L26.4127 86.9085 L28.4444 86.4296 L30.4762 86.5361 L32.5079 87.2278 L34.5397 88.5049 L36.5714 90.3674 L38.6032 92.8151 L40.6349 95.8482 L42.6667 90.8889 L44.6984 86.0111 L46.7302 81.6211 L48.7619 77.7188 L50.7937 74.3044 L52.8254 71.3777 L54.8571 68.9388 L56.8889 66.9877 L58.9206 65.5243 L60.9524 64.5488 L62.9841 64.061 L65.0159 63.939 L67.0476 63.4512 L69.0794 62.4757 L71.1111 61.0123 L73.1429 59.0612 L75.1746 56.6223 L77.2064 53.6956 L79.2381 50.2812 L81.2698 46.3789 L83.3016 41.9889 L85.3333 37.1111 L87.3651 32.1518 L89.3968 35.1849 L91.4286 37.6326 L93.4603 39.4951 L95.4921 40.7722 L97.5238 41.4639 L99.5556 41.5704 L101.587 41.0914 L103.619 40.0272 L105.651 38.3776 L107.683 36.1427 L109.714 33.3224 L111.746 33.1153 L113.778 34.3835 L115.81 34.8735 L117.841 34.5852 L119.873 33.5186 L121.905 32.1567 L123.937 32.8011 L125.968 32.7489 L128 32"/>
</svg>
