<svg class="m-image m-nopadb" style="width: 128px; height: 128px; margin-top: -16px; margin-bottom: -16px;" viewBox="0 0 128 128">
<path fill="none" stroke="#405363" stroke-width="1.0" d="
  M0 32 L128 32 M0 96 L128 96
  M0 92 l0 8 M128 28 l0 8"/>
<path fill="none" stroke="#dcdcdc" stroke-width="1.5" d="M0 96 L2.03175 95.9611 L4.06349 95.9515 L6.09524 95.9395 L8.12698 95.9246 L10.1587 95.9061 L12.1905 95.883 L14.2222 95.8542 L16.254 95.8183 L18.2857 95.7736 L20.3175 95.7178 L22.3492 95.6484 L24.381 95.5618 L26.4127 95.454 L28.4444 95.3196 L30.4762 95.1521 L32.5079 94.9435 L34.5397 94.6834 L36.5714 94.3593 L38.6032 93.9555 L40.6349 93.4523 L42.6667 92.8252 L44.6984 92.0438 L46.7302 91.07 L48.7619 89.8566 L50.7937 88.3444 L52.8254 86.4601 L54.8571 84.112 L56.8889 81.186 L58.9206 77.5398 L60.9524 72.996 L62.9841 67.334 L65.0159 60.666 L67.0476 55.0039 L69.0794 50.4602 L71.1111 46.814 L73.1429 43.8879 L75.1746 41.5399 L77.2064 39.6556 L79.2381 38.1434 L81.2698 36.93 L83.3016 35.9562 L85.3333 35.1748 L87.3651 34.5477 L89.3968 34.0445 L91.4286 33.6407 L93.4603 33.3166 L95.4921 33.0566 L97.5238 32.8479 L99.5556 32.6804 L101.587 32.546 L103.619 32.4382 L105.651 32.3516 L107.683 32.2822 L109.714 32.2264 L111.746 32.1817 L113.778 32.1458 L115.81 32.117 L117.841 32.0939 L119.873 32.0754 L121.905 32.0605 L123.937 32.0485 L125.968 32.0389 L128 32"/>
</svg>
