<svg class="m-image" style="width: 224px; height: 128px;" viewBox="0 0 224 128">
<path fill="none" stroke="#405363" stroke-width="1.0" d="
  M16 16 L208 16 M16 112 L208 112
  M16 106 l0 12 M208 10 l0 12"/>
<path fill="none" stroke="#3ad267" stroke-width="1.5" d="M1.85263 112 L3.87368 112 L5.89474 112 L7.91579 112 L9.93684 112 L11.9579 112 L13.9789 112 L16 112"/>
<path fill="none" stroke="#3ad267" stroke-width="1.5" d="M208 16 L210.021 16 L212.042 16 L214.063 16 L216.084 16 L218.105 16 L220.126 16 L222.147 16"/>
<path fill="none" stroke="#737373" stroke-width="1" d="M16 112 L18.0211 111.968 L20.0421 111.874 L22.0632 111.719 L24.0842 111.504 L26.1053 111.23 L28.1263 110.9 L30.1474 110.513 L32.1684 110.072 L34.1895 109.578 L36.2105 109.033 L38.2316 108.437 L40.2526 107.792 L42.2737 107.099 L44.2947 106.36 L46.3158 105.576 L48.3368 104.748 L50.3579 103.878 L52.3789 102.967 L54.4 102.016 L56.4211 101.027 L58.4421 100.001 L60.4632 98.9394 L62.4842 97.8436 L64.5053 96.7148 L66.5263 95.5545 L68.5474 94.3639 L70.5684 93.1444 L72.5895 91.8974 L74.6105 90.6242 L76.6316 89.3261 L78.6526 88.0046 L80.6737 86.6608 L82.6947 85.2962 L84.7158 83.9122 L86.7368 82.51 L88.7579 81.091 L90.7789 79.6566 L92.8 78.208 L94.8211 76.7467 L96.8421 75.2739 L98.8632 73.7911 L100.884 72.2996 L102.905 70.8006 L104.926 69.2957 L106.947 67.786 L108.968 66.2729 L110.989 64.7579 L113.011 63.2421 L115.032 61.7271 L117.053 60.214 L119.074 58.7043 L121.095 57.1994 L123.116 55.7004 L125.137 54.2089 L127.158 52.7261 L129.179 51.2533 L131.2 49.792 L133.221 48.3434 L135.242 46.909 L137.263 45.49 L139.284 44.0878 L141.305 42.7038 L143.326 41.3392 L145.347 39.9954 L147.368 38.6739 L149.389 37.3758 L151.411 36.1026 L153.432 34.8556 L155.453 33.6361 L157.474 32.4456 L159.495 31.2852 L161.516 30.1564 L163.537 29.0606 L165.558 27.999 L167.579 26.973 L169.6 25.984 L171.621 25.0333 L173.642 24.1222 L175.663 23.252 L177.684 22.4243 L179.705 21.6401 L181.726 20.901 L183.747 20.2083 L185.768 19.5632 L187.789 18.9672 L189.811 18.4216 L191.832 17.9277 L193.853 17.4868 L195.874 17.1004 L197.895 16.7698 L199.916 16.4962 L201.937 16.2812 L203.958 16.1259 L205.979 16.0317 L208 16"/>
<path fill="none" stroke="#dcdcdc" stroke-width="1.75" d="M16 112 L18.0211 111.999 L20.0421 111.991 L22.0632 111.971 L24.0842 111.933 L26.1053 111.871 L28.1263 111.78 L30.1474 111.657 L32.1684 111.497 L34.1895 111.295 L36.2105 111.05 L38.2316 110.757 L40.2526 110.413 L42.2737 110.017 L44.2947 109.567 L46.3158 109.06 L48.3368 108.494 L50.3579 107.87 L52.3789 107.185 L54.4 106.44 L56.4211 105.633 L58.4421 104.765 L60.4632 103.835 L62.4842 102.845 L64.5053 101.794 L66.5263 100.684 L68.5474 99.5148 L70.5684 98.2885 L72.5895 97.0061 L74.6105 95.6692 L76.6316 94.2796 L78.6526 92.8393 L80.6737 91.3502 L82.6947 89.8146 L84.7158 88.2349 L86.7368 86.6135 L88.7579 84.953 L90.7789 83.2561 L92.8 81.5258 L94.8211 79.7648 L96.8421 77.9761 L98.8632 76.1629 L100.884 74.3283 L102.905 72.4754 L104.926 70.6076 L106.947 68.7281 L108.968 66.8402 L110.989 64.9473 L113.011 63.0527 L115.032 61.1598 L117.053 59.2719 L119.074 57.3924 L121.095 55.5246 L123.116 53.6717 L125.137 51.8371 L127.158 50.0239 L129.179 48.2352 L131.2 46.4742 L133.221 44.7438 L135.242 43.047 L137.263 41.3865 L139.284 39.7651 L141.305 38.1854 L143.326 36.6498 L145.347 35.1607 L147.368 33.7204 L149.389 32.3308 L151.411 30.994 L153.432 29.7116 L155.453 28.4852 L157.474 27.3162 L159.495 26.2058 L161.516 25.155 L163.537 24.1647 L165.558 23.2352 L167.579 22.3671 L169.6 21.5603 L171.621 20.8148 L173.642 20.1302 L175.663 19.5057 L177.684 18.9405 L179.705 18.4333 L181.726 17.9826 L183.747 17.5867 L185.768 17.2435 L187.789 16.9503 L189.811 16.7046 L191.832 16.5034 L193.853 16.3429 L195.874 16.2195 L197.895 16.1291 L199.916 16.0672 L201.937 16.0289 L203.958 16.0087 L205.979 16.0011 L208 16"/>
</svg>
