<svg class="m-image m-nopadb" style="width: 128px; height: 128px; margin-top: -16px; margin-bottom: -16px;" viewBox="0 0 128 128">
<path fill="none" stroke="#405363" stroke-width="1.0" d="
  M0 32 L128 32 M0 96 L128 96
  M0 92 l0 8 M128 28 l0 8"/>
<path fill="none" stroke="#dcdcdc" stroke-width="1.5" d="M0 96 L2.03175 95.9919 L4.06349 95.9677 L6.09524 95.9274 L8.12698 95.8709 L10.1587 95.7981 L12.1905 95.7091 L14.2222 95.6037 L16.254 95.4819 L18.2857 95.3436 L20.3175 95.1886 L22.3492 95.0169 L24.381 94.8283 L26.4127 94.6226 L28.4444 94.3997 L30.4762 94.1595 L32.5079 93.9016 L34.5397 93.6259 L36.5714 93.3322 L38.6032 93.0201 L40.6349 92.6894 L42.6667 92.3398 L44.6984 91.9709 L46.7302 91.5825 L48.7619 91.1741 L50.7937 90.7452 L52.8254 90.2955 L54.8571 89.8245 L56.8889 89.3316 L58.9206 88.8163 L60.9524 88.2779 L62.9841 87.7158 L65.0159 87.1292 L67.0476 86.5175 L69.0794 85.8796 L71.1111 85.2147 L73.1429 84.5217 L75.1746 83.7996 L77.2064 83.047 L79.2381 82.2626 L81.2698 81.4449 L83.3016 80.5923 L85.3333 79.7028 L87.3651 78.7743 L89.3968 77.8045 L91.4286 76.7907 L93.4603 75.7298 L95.4921 74.6183 L97.5238 73.4521 L99.5556 72.2265 L101.587 70.9359 L103.619 69.5736 L105.651 68.1314 L107.683 66.5994 L109.714 64.965 L111.746 63.2123 L113.778 61.3199 L115.81 59.2587 L117.841 56.9872 L119.873 54.4414 L121.905 51.5143 L123.937 47.998 L125.968 43.3578 L128 32"/>
</svg>
