<svg class="m-image" style="width: 224px; height: 192px; margin-top: -24px; margin-bottom: -8px;" viewBox="0 0 224 192">
<path fill="none" stroke="#405363" stroke-width="1.0" d="
  M16 48 L208 48 M16 144 L208 144
  M16 138 l0 12 M208 42 l0 12"/>
<path fill="none" stroke="#cd3330" stroke-width="1.5" d="M1.85263 190.471 L3.87368 183.481 L5.89474 176.602 L7.91579 169.839 L9.93684 163.194 L11.9579 156.67 L13.9789 150.271 L16 144"/>
<path fill="none" stroke="#cd3330" stroke-width="1.5" d="M208 48 L210.021 47.9665 L212.042 47.8655 L214.063 47.6967 L216.084 47.4597 L218.105 47.1544 L220.126 46.7807 L222.147 46.3387"/>
<path fill="none" stroke="#dcdcdc" stroke-width="1.75" d="M16 144 L18.0211 137.86 L20.0421 131.852 L22.0632 125.981 L24.0842 120.249 L26.1053 114.656 L28.1263 109.207 L30.1474 103.902 L32.1684 98.7442 L34.1895 93.734 L36.2105 88.8734 L38.2316 84.1636 L40.2526 79.6057 L42.2737 75.2006 L44.2947 70.9492 L46.3158 66.8519 L48.3368 62.9092 L50.3579 59.1213 L52.3789 55.4883 L54.4 52.0101 L56.4211 48.6863 L58.4421 45.5166 L60.4632 42.5003 L62.4842 39.6366 L64.5053 36.9245 L66.5263 34.3628 L68.5474 31.9504 L70.5684 29.6857 L72.5895 27.5671 L74.6105 25.5929 L76.6316 23.7611 L78.6526 22.0696 L80.6737 20.5162 L82.6947 19.0987 L84.7158 17.8143 L86.7368 16.6607 L88.7579 15.6348 L90.7789 14.734 L92.8 13.9551 L94.8211 13.2951 L96.8421 12.7507 L98.8632 12.3186 L100.884 11.9953 L102.905 11.7772 L104.926 11.6609 L106.947 11.6425 L108.968 11.7182 L110.989 11.8843 L113.011 12.1368 L115.032 12.4716 L117.053 12.8849 L119.074 13.3724 L121.095 13.93 L123.116 14.5536 L125.137 15.239 L127.158 15.9819 L129.179 16.7781 L131.2 17.6234 L133.221 18.5135 L135.242 19.4442 L137.263 20.4112 L139.284 21.4103 L141.305 22.4373 L143.326 23.488 L145.347 24.5582 L147.368 25.6438 L149.389 26.7408 L151.411 27.8451 L153.432 28.9529 L155.453 30.06 L157.474 31.1628 L159.495 32.2575 L161.516 33.3403 L163.537 34.4077 L165.558 35.4561 L167.579 36.4822 L169.6 37.4825 L171.621 38.4539 L173.642 39.3932 L175.663 40.2974 L177.684 41.1635 L179.705 41.9889 L181.726 42.7708 L183.747 43.5067 L185.768 44.1941 L187.789 44.8308 L189.811 45.4146 L191.832 45.9435 L193.853 46.4155 L195.874 46.829 L197.895 47.1824 L199.916 47.474 L201.937 47.7028 L203.958 47.8673 L205.979 47.9667 L208 48"/>
</svg>
