<svg class="m-image m-nopadb" style="width: 128px; height: 128px; margin-top: -16px; margin-bottom: -16px;" viewBox="0 0 128 128">
<path fill="none" stroke="#405363" stroke-width="1.0" d="
  M0 32 L128 32 M0 96 L128 96
  M0 92 l0 8 M128 28 l0 8"/>
<path fill="none" stroke="#dcdcdc" stroke-width="1.5" d="M0 96 L2.03175 93.9844 L4.06349 92.001 L6.09524 90.0499 L8.12698 88.131 L10.1587 86.2444 L12.1905 84.39 L14.2222 82.5679 L16.254 80.778 L18.2857 79.0204 L20.3175 77.295 L22.3492 75.6019 L24.381 73.941 L26.4127 72.3124 L28.4444 70.716 L30.4762 69.1519 L32.5079 67.6201 L34.5397 66.1204 L36.5714 64.6531 L38.6032 63.2179 L40.6349 61.8151 L42.6667 60.4444 L44.6984 59.1061 L46.7302 57.7999 L48.7619 56.5261 L50.7937 55.2845 L52.8254 54.0751 L54.8571 52.898 L56.8889 51.7531 L58.9206 50.6405 L60.9524 49.5601 L62.9841 48.512 L65.0159 47.4961 L67.0476 46.5125 L69.0794 45.5611 L71.1111 44.642 L73.1429 43.7551 L75.1746 42.9005 L77.2064 42.0781 L79.2381 41.288 L81.2698 40.5301 L83.3016 39.8045 L85.3333 39.1111 L87.3651 38.45 L89.3968 37.8211 L91.4286 37.2245 L93.4603 36.6601 L95.4921 36.128 L97.5238 35.6281 L99.5556 35.1605 L101.587 34.7251 L103.619 34.322 L105.651 33.9511 L107.683 33.6125 L109.714 33.3061 L111.746 33.032 L113.778 32.7901 L115.81 32.5805 L117.841 32.4031 L119.873 32.258 L121.905 32.1451 L123.937 32.0645 L125.968 32.0161 L128 32"/>
</svg>
