<svg class="m-image" style="width: 224px; height: 128px;" viewBox="0 0 224 128">
<path fill="none" stroke="#405363" stroke-width="1.0" d="
  M16 16 L208 16 M16 112 L208 112
  M16 106 l0 12 M208 10 l0 12"/>
<path fill="none" stroke="#3ad267" stroke-width="1.5" d="M1.85263 112 L3.87368 112 L5.89474 112 L7.91579 112 L9.93684 112 L11.9579 112 L13.9789 112 L16 112"/>
<path fill="none" stroke="#3ad267" stroke-width="1.5" d="M208 16 L210.021 16 L212.042 16 L214.063 16 L216.084 16 L218.105 16 L220.126 16 L222.147 16"/>
<path fill="none" stroke="#dcdcdc" stroke-width="1.75" d="M16 112 L18.0211 111.946 L20.0421 111.937 L22.0632 111.927 L24.0842 111.916 L26.1053 111.903 L28.1263 111.887 L30.1474 111.87 L32.1684 111.849 L34.1895 111.826 L36.2105 111.798 L38.2316 111.767 L40.2526 111.73 L42.2737 111.688 L44.2947 111.638 L46.3158 111.582 L48.3368 111.516 L50.3579 111.44 L52.3789 111.352 L54.4 111.25 L56.4211 111.132 L58.4421 110.996 L60.4632 110.838 L62.4842 110.656 L64.5053 110.444 L66.5263 110.2 L68.5474 109.917 L70.5684 109.59 L72.5895 109.211 L74.6105 108.773 L76.6316 108.266 L78.6526 107.679 L80.6737 107 L82.6947 106.215 L84.7158 105.306 L86.7368 104.254 L88.7579 103.037 L90.7789 101.629 L92.8 100 L94.8211 98.1147 L96.8421 95.9332 L98.8632 93.4089 L100.884 90.488 L102.905 87.1083 L104.926 83.1975 L106.947 78.6724 L108.968 73.4363 L110.989 67.3775 L113.011 60.6225 L115.032 54.5637 L117.053 49.3276 L119.074 44.8025 L121.095 40.8917 L123.116 37.512 L125.137 34.5911 L127.158 32.0668 L129.179 29.8853 L131.2 28 L133.221 26.3707 L135.242 24.9626 L137.263 23.7456 L139.284 22.6939 L141.305 21.7851 L143.326 20.9996 L145.347 20.3207 L147.368 19.7341 L149.389 19.2271 L151.411 18.7889 L153.432 18.4102 L155.453 18.083 L157.474 17.8002 L159.495 17.5557 L161.516 17.3445 L163.537 17.1619 L165.558 17.0042 L167.579 16.8678 L169.6 16.75 L171.621 16.6482 L173.642 16.5602 L175.663 16.4841 L177.684 16.4184 L179.705 16.3616 L181.726 16.3125 L183.747 16.2701 L185.768 16.2334 L187.789 16.2017 L189.811 16.1743 L191.832 16.1506 L193.853 16.1302 L195.874 16.1125 L197.895 16.0972 L199.916 16.084 L201.937 16.0726 L203.958 16.0628 L205.979 16.0542 L208 16"/>
</svg>
