<svg class="m-image m-nopadb" style="width: 128px; height: 128px; margin-top: -16px; margin-bottom: -16px;" viewBox="0 0 128 128">
<path fill="none" stroke="#405363" stroke-width="1.0" d="
  M0 32 L128 32 M0 96 L128 96
  M0 92 l0 8 M128 28 l0 8"/>
<path fill="none" stroke="#dcdcdc" stroke-width="1.5" d="M0 96 L2.03175 96 L4.06349 96 L6.09524 96 L8.12698 96 L10.1587 96 L12.1905 96 L14.2222 96 L16.254 96 L18.2857 96 L20.3175 96 L22.3492 96 L24.381 96 L26.4127 96 L28.4444 96 L30.4762 96 L32.5079 96 L34.5397 96 L36.5714 96 L38.6032 96 L40.6349 96 L42.6667 96 L44.6984 96 L46.7302 96 L48.7619 96 L50.7937 96 L52.8254 96 L54.8571 96 L56.8889 96 L58.9206 96 L60.9524 96 L62.9841 96 L65.0159 32 L67.0476 32 L69.0794 32 L71.1111 32 L73.1429 32 L75.1746 32 L77.2064 32 L79.2381 32 L81.2698 32 L83.3016 32 L85.3333 32 L87.3651 32 L89.3968 32 L91.4286 32 L93.4603 32 L95.4921 32 L97.5238 32 L99.5556 32 L101.587 32 L103.619 32 L105.651 32 L107.683 32 L109.714 32 L111.746 32 L113.778 32 L115.81 32 L117.841 32 L119.873 32 L121.905 32 L123.937 32 L125.968 32 L128 32"/>
</svg>
