<svg class="m-image m-nopadb" style="width: 128px; height: 128px; margin-top: -16px; margin-bottom: -16px;" viewBox="0 0 128 128">
<path fill="none" stroke="#405363" stroke-width="1.0" d="
  M0 32 L128 32 M0 96 L128 96
  M0 92 l0 8 M128 28 l0 8"/>
<path fill="none" stroke="#dcdcdc" stroke-width="1.5" d="M0 96 L2.03175 95.9997 L4.06349 95.998 L6.09524 95.9931 L8.12698 95.9836 L10.1587 95.968 L12.1905 95.9447 L14.2222 95.9122 L16.254 95.869 L18.2857 95.8134 L20.3175 95.744 L22.3492 95.6593 L24.381 95.5577 L26.4127 95.4377 L28.4444 95.2977 L30.4762 95.1362 L32.5079 94.9516 L34.5397 94.7425 L36.5714 94.5073 L38.6032 94.2444 L40.6349 93.9524 L42.6667 93.6296 L44.6984 93.2746 L46.7302 92.8858 L48.7619 92.4617 L50.7937 92.0007 L52.8254 91.5014 L54.8571 90.9621 L56.8889 90.3813 L58.9206 89.7576 L60.9524 89.0893 L62.9841 88.3749 L65.0159 87.613 L67.0476 86.8019 L69.0794 85.9401 L71.1111 85.0261 L73.1429 84.0583 L75.1746 83.0353 L77.2064 81.9554 L79.2381 80.8172 L81.2698 79.6191 L83.3016 78.3595 L85.3333 77.037 L87.3651 75.65 L89.3968 74.197 L91.4286 72.6764 L93.4603 71.0867 L95.4921 69.4263 L97.5238 67.6938 L99.5556 65.8875 L101.587 64.006 L103.619 62.0477 L105.651 60.0111 L107.683 57.8947 L109.714 55.6968 L111.746 53.416 L113.778 51.0508 L115.81 48.5995 L117.841 46.0607 L119.873 43.4329 L121.905 40.7144 L123.937 37.9038 L125.968 34.9995 L128 32"/>
</svg>
