<svg class="m-image" style="width: 224px; height: 128px;" viewBox="0 0 224 128">
<path fill="none" stroke="#405363" stroke-width="1.0" d="
  M16 16 L208 16 M16 112 L208 112
  M16 106 l0 12 M208 10 l0 12"/>
<path fill="none" stroke="#cd3330" stroke-width="1.5" d="M1.85263 111.997 L3.87368 111.998 L5.89474 111.999 L7.91579 112 L9.93684 112 L11.9579 112 L13.9789 112 L16 112"/>
<path fill="none" stroke="#3ad267" stroke-width="1.5" d="M208 16 L210.021 11.8936 L212.042 7.65692 L214.063 3.28712 L216.084 -1.21857 L218.105 -5.86284 L220.126 -10.6485 L222.147 -15.5785"/>
<path fill="none" stroke="#737373" stroke-width="1" d="M16 112 L18.0211 111.989 L20.0421 111.957 L22.0632 111.904 L24.0842 111.83 L26.1053 111.734 L28.1263 111.617 L30.1474 111.479 L32.1684 111.319 L34.1895 111.138 L36.2105 110.936 L38.2316 110.713 L40.2526 110.468 L42.2737 110.202 L44.2947 109.915 L46.3158 109.607 L48.3368 109.277 L50.3579 108.926 L52.3789 108.554 L54.4 108.16 L56.4211 107.745 L58.4421 107.309 L60.4632 106.852 L62.4842 106.373 L64.5053 105.873 L66.5263 105.352 L68.5474 104.809 L70.5684 104.246 L72.5895 103.66 L74.6105 103.054 L76.6316 102.427 L78.6526 101.778 L80.6737 101.108 L82.6947 100.416 L84.7158 99.7035 L86.7368 98.9695 L88.7579 98.2143 L90.7789 97.4378 L92.8 96.64 L94.8211 95.8209 L96.8421 94.9806 L98.8632 94.119 L100.884 93.2361 L102.905 92.332 L104.926 91.4065 L106.947 90.4598 L108.968 89.4919 L110.989 88.5026 L113.011 87.4921 L115.032 86.4603 L117.053 85.4072 L119.074 84.3329 L121.095 83.2372 L123.116 82.1203 L125.137 80.9822 L127.158 79.8227 L129.179 78.642 L131.2 77.44 L133.221 76.2167 L135.242 74.9722 L137.263 73.7064 L139.284 72.4193 L141.305 71.1109 L143.326 69.7813 L145.347 68.4304 L147.368 67.0582 L149.389 65.6647 L151.411 64.25 L153.432 62.814 L155.453 61.3567 L157.474 59.8781 L159.495 58.3783 L161.516 56.8572 L163.537 55.3148 L165.558 53.7511 L167.579 52.1662 L169.6 50.56 L171.621 48.9325 L173.642 47.2838 L175.663 45.6137 L177.684 43.9224 L179.705 42.2099 L181.726 40.476 L183.747 38.7209 L185.768 36.9445 L187.789 35.1468 L189.811 33.3279 L191.832 31.4876 L193.853 29.6261 L195.874 27.7434 L197.895 25.8393 L199.916 23.914 L201.937 21.9674 L203.958 19.9996 L205.979 18.0104 L208 16"/>
<path fill="none" stroke="#737373" stroke-width="1" d="M16 112 L18.0211 112 L20.0421 111.999 L22.0632 111.997 L24.0842 111.993 L26.1053 111.986 L28.1263 111.976 L30.1474 111.962 L32.1684 111.943 L34.1895 111.918 L36.2105 111.888 L38.2316 111.851 L40.2526 111.807 L42.2737 111.754 L44.2947 111.693 L46.3158 111.622 L48.3368 111.541 L50.3579 111.45 L52.3789 111.347 L54.4 111.232 L56.4211 111.104 L58.4421 110.963 L60.4632 110.808 L62.4842 110.638 L64.5053 110.452 L66.5263 110.25 L68.5474 110.032 L70.5684 109.796 L72.5895 109.542 L74.6105 109.269 L76.6316 108.977 L78.6526 108.664 L80.6737 108.331 L82.6947 107.976 L84.7158 107.599 L86.7368 107.199 L88.7579 106.776 L90.7789 106.328 L92.8 105.856 L94.8211 105.358 L96.8421 104.834 L98.8632 104.283 L100.884 103.704 L102.905 103.098 L104.926 102.462 L106.947 101.797 L108.968 101.101 L110.989 100.375 L113.011 99.6171 L115.032 98.8269 L117.053 98.0038 L119.074 97.1471 L121.095 96.2562 L123.116 95.3303 L125.137 94.3688 L127.158 93.371 L129.179 92.3363 L131.2 91.264 L133.221 90.1534 L135.242 89.0038 L137.263 87.8146 L139.284 86.585 L141.305 85.3145 L143.326 84.0023 L145.347 82.6478 L147.368 81.2503 L149.389 79.8092 L151.411 78.3237 L153.432 76.7932 L155.453 75.2169 L157.474 73.5944 L159.495 71.9248 L161.516 70.2075 L163.537 68.4419 L165.558 66.6272 L167.579 64.7628 L169.6 62.848 L171.621 60.8821 L173.642 58.8646 L175.663 56.7946 L177.684 54.6715 L179.705 52.4947 L181.726 50.2635 L183.747 47.9772 L185.768 45.6351 L187.789 43.2366 L189.811 40.781 L191.832 38.2676 L193.853 35.6958 L195.874 33.0648 L197.895 30.3741 L199.916 27.6229 L201.937 24.8106 L203.958 21.9364 L205.979 18.9998 L208 16"/>
<path fill="none" stroke="#737373" stroke-width="1" d="M16 112 L18.0211 112 L20.0421 112 L22.0632 112 L24.0842 112 L26.1053 112 L28.1263 112 L30.1474 112 L32.1684 112 L34.1895 111.999 L36.2105 111.999 L38.2316 111.998 L40.2526 111.997 L42.2737 111.995 L44.2947 111.993 L46.3158 111.991 L48.3368 111.987 L50.3579 111.982 L52.3789 111.977 L54.4 111.969 L56.4211 111.96 L58.4421 111.949 L60.4632 111.936 L62.4842 111.92 L64.5053 111.901 L66.5263 111.879 L68.5474 111.853 L70.5684 111.822 L72.5895 111.786 L74.6105 111.746 L76.6316 111.699 L78.6526 111.645 L80.6737 111.584 L82.6947 111.514 L84.7158 111.436 L86.7368 111.348 L88.7579 111.25 L90.7789 111.14 L92.8 111.017 L94.8211 110.881 L96.8421 110.73 L98.8632 110.563 L100.884 110.379 L102.905 110.176 L104.926 109.954 L106.947 109.711 L108.968 109.445 L110.989 109.155 L113.011 108.839 L115.032 108.495 L117.053 108.123 L119.074 107.719 L121.095 107.283 L123.116 106.812 L125.137 106.303 L127.158 105.756 L129.179 105.167 L131.2 104.535 L133.221 103.857 L135.242 103.13 L137.263 102.353 L139.284 101.521 L141.305 100.634 L143.326 99.6872 L145.347 98.6785 L147.368 97.6047 L149.389 96.4628 L151.411 95.2495 L153.432 93.9616 L155.453 92.5957 L157.474 91.1482 L159.495 89.6156 L161.516 87.9942 L163.537 86.2802 L165.558 84.4697 L167.579 82.5585 L169.6 80.5427 L171.621 78.418 L173.642 76.18 L175.663 73.8241 L177.684 71.346 L179.705 68.7408 L181.726 66.0038 L183.747 63.1298 L185.768 60.1141 L187.789 56.9512 L189.811 53.6359 L191.832 50.1628 L193.853 46.5264 L195.874 42.7207 L197.895 38.7402 L199.916 34.5787 L201.937 30.2303 L203.958 25.6887 L205.979 20.9474 L208 16"/>
<path fill="none" stroke="#dcdcdc" stroke-width="1.75" d="M16 112 L18.0211 112 L20.0421 112 L22.0632 112 L24.0842 112 L26.1053 111.999 L28.1263 111.998 L30.1474 111.997 L32.1684 111.995 L34.1895 111.992 L36.2105 111.988 L38.2316 111.983 L40.2526 111.976 L42.2737 111.966 L44.2947 111.955 L46.3158 111.94 L48.3368 111.923 L50.3579 111.902 L52.3789 111.876 L54.4 111.846 L56.4211 111.811 L58.4421 111.771 L60.4632 111.724 L62.4842 111.67 L64.5053 111.609 L66.5263 111.54 L68.5474 111.461 L70.5684 111.374 L72.5895 111.276 L74.6105 111.166 L76.6316 111.045 L78.6526 110.912 L80.6737 110.764 L82.6947 110.602 L84.7158 110.425 L86.7368 110.231 L88.7579 110.02 L90.7789 109.791 L92.8 109.542 L94.8211 109.273 L96.8421 108.983 L98.8632 108.669 L100.884 108.332 L102.905 107.971 L104.926 107.582 L106.947 107.167 L108.968 106.723 L110.989 106.249 L113.011 105.743 L115.032 105.205 L117.053 104.634 L119.074 104.026 L121.095 103.382 L123.116 102.7 L125.137 101.978 L127.158 101.215 L129.179 100.409 L131.2 99.5584 L133.221 98.6621 L135.242 97.7181 L137.263 96.725 L139.284 95.6809 L141.305 94.5842 L143.326 93.4331 L145.347 92.2259 L147.368 90.9608 L149.389 89.6358 L151.411 88.2493 L153.432 86.7993 L155.453 85.2839 L157.474 83.7011 L159.495 82.0491 L161.516 80.3257 L163.537 78.529 L165.558 76.657 L167.579 74.7075 L169.6 72.6784 L171.621 70.5676 L173.642 68.373 L175.663 66.0923 L177.684 63.7234 L179.705 61.2639 L181.726 58.7117 L183.747 56.0643 L185.768 53.3195 L187.789 50.4749 L189.811 47.5281 L191.832 44.4767 L193.853 41.3182 L195.874 38.0502 L197.895 34.6702 L199.916 31.1756 L201.937 27.5639 L203.958 23.8325 L205.979 19.9787 L208 16"/>
</svg>
