<svg class="m-image m-nopadb" style="width: 128px; height: 128px; margin-top: -16px; margin-bottom: -16px;" viewBox="0 0 128 128">
<path fill="none" stroke="#405363" stroke-width="1.0" d="
  M0 32 L128 32 M0 96 L128 96
  M0 92 l0 8 M128 28 l0 8"/>
<path fill="none" stroke="#dcdcdc" stroke-width="1.5" d="M0 96 L2.03175 96.0504 L4.06349 96.2002 L6.09524 96.4473 L8.12698 96.7888 L10.1587 97.2214 L12.1905 97.7413 L14.2222 98.3444 L16.254 99.0258 L18.2857 99.7803 L20.3175 100.603 L22.3492 101.486 L24.381 102.425 L26.4127 103.412 L28.4444 104.44 L30.4762 105.501 L32.5079 106.587 L34.5397 107.691 L36.5714 108.804 L38.6032 109.916 L40.6349 111.02 L42.6667 112.105 L44.6984 113.163 L46.7302 114.183 L48.7619 115.157 L50.7937 116.075 L52.8254 116.927 L54.8571 117.703 L56.8889 118.394 L58.9206 118.989 L60.9524 119.48 L62.9841 119.857 L65.0159 120.111 L67.0476 120.232 L69.0794 120.212 L71.1111 120.041 L73.1429 119.713 L75.1746 119.218 L77.2064 118.548 L79.2381 117.698 L81.2698 116.658 L83.3016 115.423 L85.3333 113.987 L87.3651 112.344 L89.3968 110.489 L91.4286 108.417 L93.4603 106.124 L95.4921 103.606 L97.5238 100.86 L99.5556 97.884 L101.587 94.6754 L103.619 91.2331 L105.651 87.5561 L107.683 83.6445 L109.714 79.4984 L111.746 75.119 L113.778 70.5079 L115.81 65.6672 L117.841 60.5998 L119.873 55.309 L121.905 49.7989 L123.937 44.0738 L125.968 38.139 L128 32"/>
</svg>
