<svg class="m-image m-nopadb" style="width: 128px; height: 128px; margin-top: -16px; margin-bottom: -16px;" viewBox="0 0 128 128">
<path fill="none" stroke="#405363" stroke-width="1.0" d="
  M0 32 L128 32 M0 96 L128 96
  M0 92 l0 8 M128 28 l0 8"/>
<path fill="none" stroke="#dcdcdc" stroke-width="1.5" d="M0 96 L2.03175 95.9801 L4.06349 95.9204 L6.09524 95.821 L8.12698 95.682 L10.1587 95.5033 L12.1905 95.2852 L14.2222 95.0277 L16.254 94.731 L18.2857 94.3954 L20.3175 94.021 L22.3492 93.608 L24.381 93.1567 L26.4127 92.6674 L28.4444 92.1403 L30.4762 91.5759 L32.5079 90.9745 L34.5397 90.3364 L36.5714 89.662 L38.6032 88.9518 L40.6349 88.2062 L42.6667 87.4256 L44.6984 86.6106 L46.7302 85.7617 L48.7619 84.8793 L50.7937 83.964 L52.8254 83.0165 L54.8571 82.0372 L56.8889 81.0268 L58.9206 79.986 L60.9524 78.9153 L62.9841 77.8155 L65.0159 76.6872 L67.0476 75.5311 L69.0794 74.3479 L71.1111 73.1384 L73.1429 71.9033 L75.1746 70.6435 L77.2064 69.3596 L79.2381 68.0525 L81.2698 66.723 L83.3016 65.3718 L85.3333 64 L87.3651 62.6083 L89.3968 61.1975 L91.4286 59.7686 L93.4603 58.3224 L95.4921 56.8598 L97.5238 55.3818 L99.5556 53.8893 L101.587 52.3831 L103.619 50.8643 L105.651 49.3338 L107.683 47.7925 L109.714 46.2413 L111.746 44.6814 L113.778 43.1135 L115.81 41.5387 L117.841 39.958 L119.873 38.3723 L121.905 36.7827 L123.937 35.1901 L125.968 33.5956 L128 32"/>
</svg>
