<svg class="m-image" style="width: 224px; height: 128px;" viewBox="0 0 224 128">
<path fill="none" stroke="#405363" stroke-width="1.0" d="
  M16 16 L208 16 M16 112 L208 112
  M16 106 l0 12 M208 10 l0 12"/>
<path fill="none" stroke="#3ad267" stroke-width="1.5" d="M1.85263 112 L3.87368 112 L5.89474 112 L7.91579 112 L9.93684 112 L11.9579 112 L13.9789 112 L16 112"/>
<path fill="none" stroke="#3ad267" stroke-width="1.5" d="M208 16 L210.021 8.7337 L212.042 0.91745 L214.063 -7.49046 L216.084 -16.5349 L218.105 -26.2637 L220.126 -36.7289 L222.147 -47.9863"/>
<path fill="none" stroke="#dcdcdc" stroke-width="1.75" d="M16 112 L18.0211 111.899 L20.0421 111.892 L22.0632 111.883 L24.0842 111.874 L26.1053 111.865 L28.1263 111.855 L30.1474 111.844 L32.1684 111.832 L34.1895 111.819 L36.2105 111.806 L38.2316 111.791 L40.2526 111.775 L42.2737 111.758 L44.2947 111.74 L46.3158 111.72 L48.3368 111.699 L50.3579 111.676 L52.3789 111.651 L54.4 111.625 L56.4211 111.597 L58.4421 111.566 L60.4632 111.533 L62.4842 111.498 L64.5053 111.46 L66.5263 111.419 L68.5474 111.375 L70.5684 111.328 L72.5895 111.277 L74.6105 111.222 L76.6316 111.163 L78.6526 111.1 L80.6737 111.032 L82.6947 110.959 L84.7158 110.88 L86.7368 110.795 L88.7579 110.704 L90.7789 110.606 L92.8 110.5 L94.8211 110.386 L96.8421 110.264 L98.8632 110.133 L100.884 109.992 L102.905 109.84 L104.926 109.676 L106.947 109.5 L108.968 109.311 L110.989 109.107 L113.011 108.889 L115.032 108.653 L117.053 108.4 L119.074 108.127 L121.095 107.834 L123.116 107.519 L125.137 107.18 L127.158 106.815 L129.179 106.422 L131.2 106 L133.221 105.546 L135.242 105.057 L137.263 104.532 L139.284 103.967 L141.305 103.359 L143.326 102.704 L145.347 102.001 L147.368 101.244 L149.389 100.43 L151.411 99.5541 L153.432 98.6121 L155.453 97.5988 L157.474 96.5087 L159.495 95.3362 L161.516 94.0749 L163.537 92.7181 L165.558 91.2587 L167.579 89.6887 L169.6 88 L171.621 86.1834 L173.642 84.2294 L175.663 82.1274 L177.684 79.8663 L179.705 77.4341 L181.726 74.8178 L183.747 72.0034 L185.768 68.9761 L187.789 65.7196 L189.811 62.2165 L191.832 58.4484 L193.853 54.3951 L195.874 50.0349 L197.895 45.3447 L199.916 40.2996 L201.937 34.8725 L203.958 29.0347 L205.979 22.755 L208 16"/>
</svg>
