<svg class="m-image" style="width: 224px; height: 128px;" viewBox="0 0 224 128">
<path fill="none" stroke="#405363" stroke-width="1.0" d="
  M16 16 L208 16 M16 112 L208 112
  M16 106 l0 12 M208 10 l0 12"/>
<path fill="none" stroke="#3ad267" stroke-width="1.5" d="M1.85263 175.986 L3.87368 164.729 L5.89474 154.264 L7.91579 144.535 L9.93684 135.49 L11.9579 127.083 L13.9789 119.266 L16 112"/>
<path fill="none" stroke="#3ad267" stroke-width="1.5" d="M208 16 L210.021 16 L212.042 16 L214.063 16 L216.084 16 L218.105 16 L220.126 16 L222.147 16"/>
<path fill="none" stroke="#dcdcdc" stroke-width="1.75" d="M16 112 L18.0211 105.245 L20.0421 98.9653 L22.0632 93.1275 L24.0842 87.7004 L26.1053 82.6553 L28.1263 77.9651 L30.1474 73.6049 L32.1684 69.5516 L34.1895 65.7834 L36.2105 62.2804 L38.2316 59.0239 L40.2526 55.9966 L42.2737 53.1822 L44.2947 50.5659 L46.3158 48.1337 L48.3368 45.8726 L50.3579 43.7706 L52.3789 41.8166 L54.4 40 L56.4211 38.3112 L58.4421 36.7413 L60.4632 35.2819 L62.4842 33.9251 L64.5053 32.6638 L66.5263 31.4913 L68.5474 30.4012 L70.5684 29.3879 L72.5895 28.4459 L74.6105 27.5701 L76.6316 26.756 L78.6526 25.9991 L80.6737 25.2956 L82.6947 24.6415 L84.7158 24.0334 L86.7368 23.4682 L88.7579 22.9427 L90.7789 22.4541 L92.8 22 L94.8211 21.5778 L96.8421 21.1853 L98.8632 20.8205 L100.884 20.4813 L102.905 20.1659 L104.926 19.8728 L106.947 19.6003 L108.968 19.347 L110.989 19.1115 L113.011 18.8925 L115.032 18.689 L117.053 18.4998 L119.074 18.3239 L121.095 18.1604 L123.116 18.0084 L125.137 17.867 L127.158 17.7357 L129.179 17.6135 L131.2 17.5 L133.221 17.3945 L135.242 17.2963 L137.263 17.2051 L139.284 17.1203 L141.305 17.0415 L143.326 16.9682 L145.347 16.9001 L147.368 16.8367 L149.389 16.7779 L151.411 16.7231 L153.432 16.6722 L155.453 16.6249 L157.474 16.581 L159.495 16.5401 L161.516 16.5021 L163.537 16.4668 L165.558 16.4339 L167.579 16.4034 L169.6 16.375 L171.621 16.3486 L173.642 16.3241 L175.663 16.3013 L177.684 16.2801 L179.705 16.2604 L181.726 16.2421 L183.747 16.225 L185.768 16.2092 L187.789 16.1945 L189.811 16.1808 L191.832 16.1681 L193.853 16.1562 L195.874 16.1452 L197.895 16.135 L199.916 16.1255 L201.937 16.1167 L203.958 16.1085 L205.979 16.1008 L208 16"/>
</svg>
