<svg class="m-image m-nopadb" style="width: 128px; height: 128px; margin-top: -16px; margin-bottom: -16px;" viewBox="0 0 128 128">
<path fill="none" stroke="#405363" stroke-width="1.0" d="
  M0 32 L128 32 M0 96 L128 96
  M0 92 l0 8 M128 28 l0 8"/>
<path fill="none" stroke="#dcdcdc" stroke-width="1.5" d="M0 96 L2.03175 89.332 L4.06349 83.3588 L6.09524 78.0079 L8.12698 73.2145 L10.1587 68.9205 L12.1905 65.0738 L14.2222 61.628 L16.254 58.5411 L18.2857 55.7759 L20.3175 53.2988 L22.3492 51.0797 L24.381 49.0919 L26.4127 47.3111 L28.4444 45.7159 L30.4762 44.2869 L32.5079 43.0068 L34.5397 41.86 L36.5714 40.8327 L38.6032 39.9125 L40.6349 39.0881 L42.6667 38.3496 L44.6984 37.6881 L46.7302 37.0954 L48.7619 36.5646 L50.7937 36.089 L52.8254 35.663 L54.8571 35.2813 L56.8889 34.9395 L58.9206 34.6332 L60.9524 34.3589 L62.9841 34.1131 L65.0159 33.893 L67.0476 33.6957 L69.0794 33.5191 L71.1111 33.3608 L73.1429 33.219 L75.1746 33.092 L77.2064 32.9782 L79.2381 32.8763 L81.2698 32.785 L83.3016 32.7032 L85.3333 32.63 L87.3651 32.5643 L89.3968 32.5055 L91.4286 32.4529 L93.4603 32.4057 L95.4921 32.3634 L97.5238 32.3256 L99.5556 32.2916 L101.587 32.2613 L103.619 32.234 L105.651 32.2096 L107.683 32.1878 L109.714 32.1682 L111.746 32.1507 L113.778 32.135 L115.81 32.1209 L117.841 32.1083 L119.873 32.0971 L121.905 32.0869 L123.937 32.0779 L125.968 32.0698 L128 32"/>
</svg>
