<svg class="m-image" style="width: 224px; height: 128px;" viewBox="0 0 224 128">
<path fill="none" stroke="#405363" stroke-width="1.0" d="
  M16 16 L208 16 M16 112 L208 112
  M16 106 l0 12 M208 10 l0 12"/>
<path fill="none" stroke="#cd3330" stroke-width="1.5" d="M1.85263 -nan L3.87368 -nan L5.89474 -nan L7.91579 -nan L9.93684 -nan L11.9579 -nan L13.9789 -nan L16 112"/>
<path fill="none" stroke="#cd3330" stroke-width="1.5" d="M208 16 L210.021 16.0053 L212.042 16.0213 L214.063 16.0479 L216.084 16.0851 L218.105 16.133 L220.126 16.1917 L222.147 16.261"/>
<path fill="none" stroke="#737373" stroke-width="1" d="M16 112 L18.0211 110.413 L20.0421 108.826 L22.0632 107.24 L24.0842 105.655 L26.1053 104.072 L28.1263 102.492 L30.1474 100.913 L32.1684 99.3383 L34.1895 97.7667 L36.2105 96.1989 L38.2316 94.6355 L40.2526 93.0768 L42.2737 91.5232 L44.2947 89.9753 L46.3158 88.4334 L48.3368 86.8979 L50.3579 85.3693 L52.3789 83.848 L54.4 82.3344 L56.4211 80.8288 L58.4421 79.3318 L60.4632 77.8438 L62.4842 76.3651 L64.5053 74.8961 L66.5263 73.4372 L68.5474 71.9889 L70.5684 70.5516 L72.5895 69.1255 L74.6105 67.7112 L76.6316 66.3091 L78.6526 64.9193 L80.6737 63.5425 L82.6947 62.1789 L84.7158 60.8289 L86.7368 59.493 L88.7579 58.1714 L90.7789 56.8644 L92.8 55.5726 L94.8211 54.2962 L96.8421 53.0356 L98.8632 51.7911 L100.884 50.563 L102.905 49.3518 L104.926 48.1576 L106.947 46.981 L108.968 45.8221 L110.989 44.6813 L113.011 43.5589 L115.032 42.4552 L117.053 41.3705 L119.074 40.3051 L121.095 39.2594 L123.116 38.2335 L125.137 37.2278 L127.158 36.2425 L129.179 35.278 L131.2 34.3344 L133.221 33.412 L135.242 32.5111 L137.263 31.632 L139.284 30.7748 L141.305 29.9399 L143.326 29.1274 L145.347 28.3375 L147.368 27.5705 L149.389 26.8266 L151.411 26.106 L153.432 25.4088 L155.453 24.7354 L157.474 24.0858 L159.495 23.4602 L161.516 22.8588 L163.537 22.2818 L165.558 21.7293 L167.579 21.2015 L169.6 20.6986 L171.621 20.2206 L173.642 19.7676 L175.663 19.3399 L177.684 18.9376 L179.705 18.5607 L181.726 18.2093 L183.747 17.8835 L185.768 17.5835 L187.789 17.3093 L189.811 17.061 L191.832 16.8386 L193.853 16.6423 L195.874 16.472 L197.895 16.3279 L199.916 16.2099 L201.937 16.1181 L203.958 16.0525 L205.979 16.0131 L208 16"/>
<path fill="none" stroke="#dcdcdc" stroke-width="1.75" d="M16 112 L18.0211 98.1076 L20.0421 92.4052 L22.0632 88.0652 L24.0842 84.4365 L26.1053 81.266 L28.1263 78.4238 L30.1474 75.8322 L32.1684 73.4408 L34.1895 71.2143 L36.2105 69.127 L38.2316 67.1595 L40.2526 65.2966 L42.2737 63.5263 L44.2947 61.8388 L46.3158 60.2259 L48.3368 58.681 L50.3579 57.1982 L52.3789 55.7726 L54.4 54.4 L56.4211 53.0767 L58.4421 51.7994 L60.4632 50.5653 L62.4842 49.3718 L64.5053 48.2167 L66.5263 47.0978 L68.5474 46.0133 L70.5684 44.9616 L72.5895 43.9412 L74.6105 42.9507 L76.6316 41.9887 L78.6526 41.0541 L80.6737 40.146 L82.6947 39.2632 L84.7158 38.4048 L86.7368 37.5701 L88.7579 36.7582 L90.7789 35.9684 L92.8 35.2 L94.8211 34.4524 L96.8421 33.725 L98.8632 33.0172 L100.884 32.3285 L102.905 31.6584 L104.926 31.0065 L106.947 30.3722 L108.968 29.7553 L110.989 29.1553 L113.011 28.5719 L115.032 28.0047 L117.053 27.4533 L119.074 26.9175 L121.095 26.397 L123.116 25.8915 L125.137 25.4008 L127.158 24.9245 L129.179 24.4625 L131.2 24.0145 L133.221 23.5804 L135.242 23.1599 L137.263 22.7527 L139.284 22.3589 L141.305 21.978 L143.326 21.6101 L145.347 21.255 L147.368 20.9124 L149.389 20.5823 L151.411 20.2645 L153.432 19.9589 L155.453 19.6653 L157.474 19.3837 L159.495 19.114 L161.516 18.856 L163.537 18.6096 L165.558 18.3749 L167.579 18.1515 L169.6 17.9396 L171.621 17.739 L173.642 17.5496 L175.663 17.3713 L177.684 17.2042 L179.705 17.0482 L181.726 16.9031 L183.747 16.769 L185.768 16.6457 L187.789 16.5333 L189.811 16.4318 L191.832 16.341 L193.853 16.261 L195.874 16.1917 L197.895 16.133 L199.916 16.0851 L201.937 16.0479 L203.958 16.0213 L205.979 16.0053 L208 16"/>
</svg>
