<svg class="m-image" style="width: 224px; height: 192px; margin-top: -24px; margin-bottom: -8px;" viewBox="0 0 224 192">
<path fill="none" stroke="#405363" stroke-width="1.0" d="
  M16 48 L208 48 M16 144 L208 144
  M16 138 l0 12 M208 42 l0 12"/>
<path fill="none" stroke="#3ad267" stroke-width="1.5" d="M1.85263 144.056 L3.87368 144.058 L5.89474 144.057 L7.91579 144.053 L9.93684 144.045 L11.9579 144.034 L13.9789 144.019 L16 144"/>
<path fill="none" stroke="#cd3330" stroke-width="1.5" d="M208 48 L210.021 43.1102 L212.042 43.0252 L214.063 48.5046 L216.084 60.1202 L218.105 78.194 L220.126 102.742 L222.147 133.427"/>
<path fill="none" stroke="#dcdcdc" stroke-width="1.75" d="M16 144 L18.0211 143.978 L20.0421 143.955 L22.0632 143.93 L24.0842 143.905 L26.1053 143.881 L28.1263 143.86 L30.1474 143.844 L32.1684 143.834 L34.1895 143.831 L36.2105 143.837 L38.2316 143.853 L40.2526 143.88 L42.2737 143.918 L44.2947 143.966 L46.3158 144.023 L48.3368 144.088 L50.3579 144.159 L52.3789 144.232 L54.4 144.303 L56.4211 144.369 L58.4421 144.425 L60.4632 144.467 L62.4842 144.489 L64.5053 144.487 L66.5263 144.458 L68.5474 144.4 L70.5684 144.31 L72.5895 144.189 L74.6105 144.039 L76.6316 143.862 L78.6526 143.666 L80.6737 143.457 L82.6947 143.246 L84.7158 143.042 L86.7368 142.86 L88.7579 142.712 L90.7789 142.612 L92.8 142.573 L94.8211 142.607 L96.8421 142.723 L98.8632 142.928 L100.884 143.224 L102.905 143.609 L104.926 144.077 L106.947 144.614 L108.968 145.201 L110.989 145.814 L113.011 146.423 L115.032 146.995 L117.053 147.49 L119.074 147.871 L121.095 148.097 L123.116 148.133 L125.137 147.946 L127.158 147.512 L129.179 146.815 L131.2 145.854 L133.221 144.639 L135.242 143.198 L137.263 141.575 L139.284 139.831 L141.305 138.043 L143.326 136.303 L145.347 134.715 L147.368 133.391 L149.389 132.444 L151.411 131.987 L153.432 132.122 L155.453 132.934 L157.474 134.485 L159.495 136.805 L161.516 139.888 L163.537 143.681 L165.558 148.088 L167.579 152.962 L169.6 158.107 L171.621 163.28 L173.642 168.202 L175.663 172.559 L177.684 176.024 L179.705 178.264 L181.726 178.963 L183.747 177.841 L185.768 174.673 L187.789 169.313 L189.811 161.713 L191.832 151.94 L193.853 140.193 L195.874 126.811 L197.895 112.276 L199.916 97.2093 L201.937 82.3606 L203.958 68.584 L205.979 56.8088 L208 48"/>
</svg>
