<svg class="m-image" style="width: 224px; height: 128px;" viewBox="0 0 224 128">
<path fill="none" stroke="#405363" stroke-width="1.0" d="
  M16 16 L208 16 M16 112 L208 112
  M16 106 l0 12 M208 10 l0 12"/>
<path fill="none" stroke="#cd3330" stroke-width="1.5" d="M1.85263 108.058 L3.87368 109.104 L5.89474 109.989 L7.91579 110.713 L9.93684 111.276 L11.9579 111.678 L13.9789 111.92 L16 112"/>
<path fill="none" stroke="#cd3330" stroke-width="1.5" d="M208 16 L210.021 14.7938 L212.042 13.3577 L214.063 11.692 L216.084 9.7963 L218.105 7.67108 L220.126 5.31607 L222.147 2.73135"/>
<path fill="none" stroke="#dcdcdc" stroke-width="1.75" d="M16 112 L18.0211 111.92 L20.0421 111.678 L22.0632 111.276 L24.0842 110.713 L26.1053 109.989 L28.1263 109.104 L30.1474 108.058 L32.1684 106.852 L34.1895 105.484 L36.2105 103.956 L38.2316 102.266 L40.2526 100.416 L42.2737 98.4051 L44.2947 96.2331 L46.3158 93.9003 L48.3368 91.4065 L50.3579 88.7519 L52.3789 85.9364 L54.4 82.96 L56.4211 79.8227 L58.4421 76.5245 L60.4632 73.0655 L62.4842 69.4455 L64.5053 65.6647 L66.5263 61.723 L68.5474 57.6204 L70.5684 53.3569 L72.5895 48.9325 L74.6105 44.3473 L76.6316 39.6011 L78.6526 34.6941 L80.6737 29.6261 L82.6947 24.3973 L84.7158 19.0076 L86.7368 17.4958 L88.7579 20.6463 L90.7789 23.6036 L92.8 26.368 L94.8211 28.9392 L96.8421 31.3174 L98.8632 33.5025 L100.884 35.4946 L102.905 37.2936 L104.926 38.8995 L106.947 40.3124 L108.968 41.5323 L110.989 42.559 L113.011 43.3927 L115.032 44.0333 L117.053 44.4809 L119.074 44.7354 L121.095 44.7968 L123.116 44.6652 L125.137 44.3405 L127.158 43.8227 L129.179 43.1119 L131.2 42.208 L133.221 41.111 L135.242 39.821 L137.263 38.3379 L139.284 36.6618 L141.305 34.7926 L143.326 32.7303 L145.347 30.4749 L147.368 28.0266 L149.389 25.3851 L151.411 22.5506 L153.432 19.5229 L155.453 16.3023 L157.474 17.8087 L159.495 19.5531 L161.516 21.0408 L163.537 22.2719 L165.558 23.2462 L167.579 23.9638 L169.6 24.4246 L171.621 24.6289 L173.642 24.5764 L175.663 24.2672 L177.684 23.7011 L179.705 22.8786 L181.726 21.7993 L183.747 20.4633 L185.768 18.8706 L187.789 17.0211 L189.811 16.5169 L191.832 17.3785 L193.853 18.0103 L195.874 18.4125 L197.895 18.5847 L199.916 18.5273 L201.937 18.2401 L203.958 17.7231 L205.979 16.9765 L208 16"/>
</svg>
