<svg class="m-image" style="width: 224px; height: 192px; margin-top: -24px; margin-bottom: -8px;" viewBox="0 0 224 192">
<path fill="none" stroke="#405363" stroke-width="1.0" d="
  M16 48 L208 48 M16 144 L208 144
  M16 138 l0 12 M208 42 l0 12"/>
<path fill="none" stroke="#cd3330" stroke-width="1.5" d="M1.85263 145.661 L3.87368 145.219 L5.89474 144.846 L7.91579 144.54 L9.93684 144.303 L11.9579 144.134 L13.9789 144.034 L16 144"/>
<path fill="none" stroke="#cd3330" stroke-width="1.5" d="M208 48 L210.021 41.7289 L212.042 35.33 L214.063 28.8064 L216.084 22.1611 L218.105 15.3976 L220.126 8.51913 L222.147 1.5293"/>
<path fill="none" stroke="#dcdcdc" stroke-width="1.75" d="M16 144 L18.0211 144.033 L20.0421 144.133 L22.0632 144.297 L24.0842 144.526 L26.1053 144.818 L28.1263 145.171 L30.1474 145.584 L32.1684 146.057 L34.1895 146.585 L36.2105 147.169 L38.2316 147.806 L40.2526 148.493 L42.2737 149.229 L44.2947 150.011 L46.3158 150.836 L48.3368 151.703 L50.3579 152.607 L52.3789 153.546 L54.4 154.517 L56.4211 155.518 L58.4421 156.544 L60.4632 157.592 L62.4842 158.66 L64.5053 159.743 L66.5263 160.837 L68.5474 161.94 L70.5684 163.047 L72.5895 164.155 L74.6105 165.259 L76.6316 166.356 L78.6526 167.442 L80.6737 168.512 L82.6947 169.563 L84.7158 170.59 L86.7368 171.589 L88.7579 172.556 L90.7789 173.486 L92.8 174.377 L94.8211 175.222 L96.8421 176.018 L98.8632 176.761 L100.884 177.446 L102.905 178.07 L104.926 178.628 L106.947 179.115 L108.968 179.528 L110.989 179.863 L113.011 180.116 L115.032 180.282 L117.053 180.358 L119.074 180.339 L121.095 180.223 L123.116 180.005 L125.137 179.681 L127.158 179.249 L129.179 178.705 L131.2 178.045 L133.221 177.266 L135.242 176.365 L137.263 175.339 L139.284 174.186 L141.305 172.901 L143.326 171.484 L145.347 169.93 L147.368 168.239 L149.389 166.407 L151.411 164.433 L153.432 162.314 L155.453 160.05 L157.474 157.637 L159.495 155.076 L161.516 152.363 L163.537 149.5 L165.558 146.483 L167.579 143.314 L169.6 139.99 L171.621 136.512 L173.642 132.879 L175.663 129.091 L177.684 125.148 L179.705 121.051 L181.726 116.799 L183.747 112.394 L185.768 107.836 L187.789 103.127 L189.811 98.266 L191.832 93.2558 L193.853 88.0976 L195.874 82.7929 L197.895 77.3435 L199.916 71.7514 L201.937 66.0187 L203.958 60.1476 L205.979 54.1404 L208 48"/>
</svg>
