<svg class="m-image m-nopadb" style="width: 128px; height: 128px; margin-top: -16px; margin-bottom: -16px;" viewBox="0 0 128 128">
<path fill="none" stroke="#405363" stroke-width="1.0" d="
  M0 32 L128 32 M0 96 L128 96
  M0 92 l0 8 M128 28 l0 8"/>
<path fill="none" stroke="#dcdcdc" stroke-width="1.5" d="M0 96 L2.03175 95.9839 L4.06349 95.9354 L6.09524 95.8545 L8.12698 95.741 L10.1587 95.5943 L12.1905 95.4141 L14.2222 95.1999 L16.254 94.9508 L18.2857 94.6661 L20.3175 94.3447 L22.3492 93.9855 L24.381 93.587 L26.4127 93.1478 L28.4444 92.6658 L30.4762 92.1389 L32.5079 91.5646 L34.5397 90.9398 L36.5714 90.2609 L38.6032 89.5235 L40.6349 88.7225 L42.6667 87.8514 L44.6984 86.9023 L46.7302 85.8649 L48.7619 84.726 L50.7937 83.468 L52.8254 82.0657 L54.8571 80.4825 L56.8889 78.6599 L58.9206 76.4936 L60.9524 73.7571 L62.9841 69.6789 L65.0159 58.3211 L67.0476 54.2429 L69.0794 51.5064 L71.1111 49.3401 L73.1429 47.5175 L75.1746 45.9343 L77.2064 44.532 L79.2381 43.2739 L81.2698 42.1351 L83.3016 41.0977 L85.3333 40.1486 L87.3651 39.2775 L89.3968 38.4765 L91.4286 37.7391 L93.4603 37.0602 L95.4921 36.4354 L97.5238 35.861 L99.5556 35.3342 L101.587 34.8522 L103.619 34.413 L105.651 34.0145 L107.683 33.6553 L109.714 33.3339 L111.746 33.0492 L113.778 32.8001 L115.81 32.5859 L117.841 32.4057 L119.873 32.259 L121.905 32.1455 L123.937 32.0646 L125.968 32.0161 L128 32"/>
</svg>
