<svg class="m-image m-nopadb" style="width: 128px; height: 128px; margin-top: -16px; margin-bottom: -16px;" viewBox="0 0 128 128">
<path fill="none" stroke="#405363" stroke-width="1.0" d="
  M0 32 L128 32 M0 96 L128 96
  M0 92 l0 8 M128 28 l0 8"/>
<path fill="none" stroke="#dcdcdc" stroke-width="1.5" d="M0 96 L2.03175 94.9841 L4.06349 93.9683 L6.09524 92.9524 L8.12698 91.9365 L10.1587 90.9206 L12.1905 89.9048 L14.2222 88.8889 L16.254 87.873 L18.2857 86.8571 L20.3175 85.8413 L22.3492 84.8254 L24.381 83.8095 L26.4127 82.7936 L28.4444 81.7778 L30.4762 80.7619 L32.5079 79.746 L34.5397 78.7302 L36.5714 77.7143 L38.6032 76.6984 L40.6349 75.6825 L42.6667 74.6667 L44.6984 73.6508 L46.7302 72.6349 L48.7619 71.619 L50.7937 70.6032 L52.8254 69.5873 L54.8571 68.5714 L56.8889 67.5556 L58.9206 66.5397 L60.9524 65.5238 L62.9841 64.5079 L65.0159 63.4921 L67.0476 62.4762 L69.0794 61.4603 L71.1111 60.4444 L73.1429 59.4286 L75.1746 58.4127 L77.2064 57.3968 L79.2381 56.381 L81.2698 55.3651 L83.3016 54.3492 L85.3333 53.3333 L87.3651 52.3175 L89.3968 51.3016 L91.4286 50.2857 L93.4603 49.2698 L95.4921 48.254 L97.5238 47.2381 L99.5556 46.2222 L101.587 45.2064 L103.619 44.1905 L105.651 43.1746 L107.683 42.1587 L109.714 41.1429 L111.746 40.127 L113.778 39.1111 L115.81 38.0952 L117.841 37.0794 L119.873 36.0635 L121.905 35.0476 L123.937 34.0318 L125.968 33.0159 L128 32"/>
</svg>
