<svg class="m-image m-nopadb" style="width: 128px; height: 128px; margin-top: -16px; margin-bottom: -16px;" viewBox="0 0 128 128">
<path fill="none" stroke="#405363" stroke-width="1.0" d="
  M0 32 L128 32 M0 96 L128 96
  M0 92 l0 8 M128 28 l0 8"/>
<path fill="none" stroke="#dcdcdc" stroke-width="1.5" d="M0 96 L2.03175 95.999 L4.06349 95.9918 L6.09524 95.9724 L8.12698 95.9345 L10.1587 95.872 L12.1905 95.7789 L14.2222 95.6488 L16.254 95.4758 L18.2857 95.2536 L20.3175 94.9762 L22.3492 94.6373 L24.381 94.2309 L26.4127 93.7507 L28.4444 93.1907 L30.4762 92.5446 L32.5079 91.8065 L34.5397 90.97 L36.5714 90.0292 L38.6032 88.9777 L40.6349 87.8095 L42.6667 86.5185 L44.6984 85.0985 L46.7302 83.5433 L48.7619 81.8469 L50.7937 80.003 L52.8254 78.0056 L54.8571 75.8484 L56.8889 73.5254 L58.9206 71.0304 L60.9524 68.3572 L62.9841 65.4998 L65.0159 62.5002 L67.0476 59.6428 L69.0794 56.9696 L71.1111 54.4746 L73.1429 52.1516 L75.1746 49.9944 L77.2064 47.997 L79.2381 46.1531 L81.2698 44.4567 L83.3016 42.9015 L85.3333 41.4815 L87.3651 40.1905 L89.3968 39.0223 L91.4286 37.9708 L93.4603 37.03 L95.4921 36.1935 L97.5238 35.4553 L99.5556 34.8093 L101.587 34.2493 L103.619 33.7691 L105.651 33.3627 L107.683 33.0238 L109.714 32.7464 L111.746 32.5242 L113.778 32.3512 L115.81 32.2211 L117.841 32.128 L119.873 32.0655 L121.905 32.0276 L123.937 32.0082 L125.968 32.001 L128 32"/>
</svg>
