<svg class="m-image m-nopadb" style="width: 128px; height: 128px; margin-top: -16px; margin-bottom: -16px;" viewBox="0 0 128 128">
<path fill="none" stroke="#405363" stroke-width="1.0" d="
  M0 32 L128 32 M0 96 L128 96
  M0 92 l0 8 M128 28 l0 8"/>
<path fill="none" stroke="#dcdcdc" stroke-width="1.5" d="M0 96 L2.03175 89.861 L4.06349 83.9262 L6.09524 78.2011 L8.12698 72.691 L10.1587 67.4002 L12.1905 62.3328 L14.2222 57.4921 L16.254 52.881 L18.2857 48.5016 L20.3175 44.3556 L22.3492 40.4439 L24.381 36.7669 L26.4127 33.3246 L28.4444 30.116 L30.4762 27.1397 L32.5079 24.3939 L34.5397 21.8759 L36.5714 19.5827 L38.6032 17.5107 L40.6349 15.6555 L42.6667 14.0125 L44.6984 12.5766 L46.7302 11.3419 L48.7619 10.3025 L50.7937 9.45158 L52.8254 8.78229 L54.8571 8.28719 L56.8889 7.95854 L58.9206 7.78831 L60.9524 7.76808 L62.9841 7.88921 L65.0159 8.14279 L67.0476 8.51974 L69.0794 9.01072 L71.1111 9.60634 L73.1429 10.297 L75.1746 11.0731 L77.2064 11.9249 L79.2381 12.8427 L81.2698 13.8168 L83.3016 14.8374 L85.3333 15.8952 L87.3651 16.9804 L89.3968 18.0839 L91.4286 19.1964 L93.4603 20.3089 L95.4921 21.4127 L97.5238 22.4993 L99.5556 23.5605 L101.587 24.5883 L103.619 25.5751 L105.651 26.5138 L107.683 27.3975 L109.714 28.2197 L111.746 28.9742 L113.778 29.6557 L115.81 30.2587 L117.841 30.7786 L119.873 31.2112 L121.905 31.5527 L123.937 31.7998 L125.968 31.9496 L128 32"/>
</svg>
