<svg style="width: 465px; height: 85px;" viewBox="0 0 123.03 22.49" class="m-image">
 <g transform="translate(-177.27 3.9688)" stroke="#2f363f" stroke-width=".26458">
  <rect x="179.92" y="2.6458" width="7.9375" height="6.6146" fill="#3bd267" stop-color="#000000" style="-inkscape-stroke:none;font-variation-settings:normal"/>
  <rect x="189.18" y="5.2917" width="7.9375" height="6.6146" fill="#3bd267" stop-color="#000000" style="-inkscape-stroke:none;font-variation-settings:normal"/>
  <g fill="#2f83cc">
   <rect x="198.44" y="2.6458" width="7.9375" height="6.6146" stop-color="#000000" style="-inkscape-stroke:none;font-variation-settings:normal"/>
   <rect x="207.7" y="5.2917" width="7.9375" height="6.6146" stop-color="#000000" style="-inkscape-stroke:none;font-variation-settings:normal"/>
   <rect x="220.93" y="2.6458" width="7.9375" height="6.6146" stop-color="#000000" style="-inkscape-stroke:none;font-variation-settings:normal"/>
   <rect x="230.19" y="5.2917" width="7.9375" height="6.6146" stop-color="#000000" style="-inkscape-stroke:none;font-variation-settings:normal"/>
  </g>
  <rect x="239.45" y="2.6458" width="7.9375" height="6.6146" fill="#a5c9ea" stop-color="#000000" style="-inkscape-stroke:none;font-variation-settings:normal"/>
  <rect x="248.71" y="5.2917" width="7.9375" height="6.6146" fill="#a5c9ea" stop-color="#000000" style="-inkscape-stroke:none;font-variation-settings:normal"/>
  <rect x="261.94" y="2.6458" width="7.9375" height="6.6146" fill="#cd3431" stop-color="#000000" style="-inkscape-stroke:none;font-variation-settings:normal"/>
  <rect x="271.2" y="5.2917" width="7.9375" height="6.6146" fill="#cd3431" stop-color="#000000" style="-inkscape-stroke:none;font-variation-settings:normal"/>
  <rect x="280.46" y="2.6458" width="7.9375" height="6.6146" fill="#c7cf2f" stop-color="#000000" style="-inkscape-stroke:none;font-variation-settings:normal"/>
  <rect x="289.72" y="5.2917" width="7.9375" height="6.6146" fill="#c7cf2f" stop-color="#000000" style="-inkscape-stroke:none;font-variation-settings:normal"/>
 </g>
 <g transform="translate(-15.875 1.3229)" stroke="#2f363f" stroke-width=".26458">
  <rect transform="translate(-161.4 2.6458)" x="207.7" y="1.3229" width="7.9375" height="2.6458" fill="#3bd267" stop-color="#000000" style="-inkscape-stroke:none;font-variation-settings:normal"/>
  <rect transform="translate(-161.4 2.6458)" x="220.93" y="10.583" width="7.9375" height="2.6458" fill="#a5c9ea" stop-color="#000000" style="-inkscape-stroke:none;font-variation-settings:normal"/>
  <rect transform="translate(-161.4 2.6458)" x="230.19" y="13.229" width="7.9375" height="2.6458" fill="#a5c9ea" stop-color="#000000" style="-inkscape-stroke:none;font-variation-settings:normal"/>
  <g fill="#2f83cc">
   <rect transform="translate(-161.4 2.6458)" x="179.92" y="10.583" width="7.9375" height="2.6458" stop-color="#000000" style="-inkscape-stroke:none;font-variation-settings:normal"/>
   <rect transform="translate(-161.4 2.6458)" x="189.18" y="13.229" width="7.9375" height="2.6458" stop-color="#000000" style="-inkscape-stroke:none;font-variation-settings:normal"/>
   <rect transform="translate(-161.4 2.6458)" x="239.45" y="-1.3229" width="7.9375" height="2.6458" stop-color="#000000" style="-inkscape-stroke:none;font-variation-settings:normal"/>
   <rect transform="translate(-161.4 2.6458)" x="248.71" y="1.3229" width="7.9375" height="2.6458" stop-color="#000000" style="-inkscape-stroke:none;font-variation-settings:normal"/>
  </g>
  <rect transform="translate(-161.4 2.6458)" x="280.46" y="-1.3229" width="7.9375" height="2.6458" fill="#cd3431" stop-color="#000000" style="-inkscape-stroke:none;font-variation-settings:normal"/>
  <rect transform="translate(-161.4 2.6458)" x="289.72" y="1.3229" width="7.9375" height="2.6458" fill="#cd3431" stop-color="#000000" style="-inkscape-stroke:none;font-variation-settings:normal"/>
  <rect transform="translate(-161.4 2.6458)" x="261.94" y="10.583" width="7.9375" height="2.6458" fill="#c7cf2f" stop-color="#000000" style="-inkscape-stroke:none;font-variation-settings:normal"/>
  <rect transform="translate(-161.4 2.6458)" x="271.2" y="13.229" width="7.9375" height="2.6458" fill="#c7cf2f" stop-color="#000000" style="-inkscape-stroke:none;font-variation-settings:normal"/>
  <rect transform="translate(-161.4 2.6458)" x="198.44" y="-1.3229" width="7.9375" height="2.6458" fill="#3bd267" stop-color="#000000" style="-inkscape-stroke:none;font-variation-settings:normal"/>
 </g>
</svg>
