<svg class="m-image" style="width: 620px; height: 440px" viewBox="0 0 164.04 116.42">
 <g transform="translate(-6.6146 -39.687)" display="none" fill="none" stroke-width=".39688">
  <g stroke="#c7cf2f">
   <path d="m31.75 93.927c8.4877 0.10627-3.0463-18.647 5.2917-18.521"/>
   <path d="m52.917 75.406c8.4877 0.10627-3.0463-12.032 5.2917-11.906"/>
   <path d="m31.75 62.177c8.4877 0.10627 18.12 1.1971 26.458 1.3229"/>
   <path d="m31.75 62.177c8.4877 0.10627-3.0463 13.103 5.2917 13.229"/>
   <path d="m15.875 62.177c-10.062 0.0058-8.338 31.624 4e-6 31.75"/>
   <path d="m74.083 63.5c12.343 0.023409-26.975 30.498-42.333 30.427"/>
  </g>
  <g stroke="#3bd267">
   <path d="m52.917 72.76c8.4877 0.10627 7.0188-6.5655 0-6.6146" stop-color="#000000" style="font-variation-settings:normal"/>
   <path d="m52.917 72.76c8.4877 0.10627 7.7839-2.6664 0-2.6458" stop-color="#000000" style="font-variation-settings:normal"/>
   <path d="m52.917 72.76c8.4877 0.10627 7.0188 5.3407 0 5.2917"/>
  </g>
  <g stroke="#747474">
   <path d="m37.042 72.76c-11.059 0.040797 1.7271-13.18-5.2917-13.229" stop-color="#000000" style="font-variation-settings:normal"/>
   <path d="m51.594 92.604c-11.059 0.040797-12.825-33.024-19.844-33.073" stop-color="#000000" style="font-variation-settings:normal"/>
   <path d="m70.115 82.021c-11.059 0.040797-31.346-22.441-38.365-22.49" stop-color="#000000" style="font-variation-settings:normal"/>
  </g>
  <g stroke="#3bd267">
   <path d="m52.917 72.76c8.4877 0.10627 8.5948-27.6 1.5761-27.649" stop-color="#000000" style="font-variation-settings:normal"/>
   <path d="m85.99 82.021c8.4877 0.10627-24.478-36.86-31.497-36.909" stop-color="#000000" style="font-variation-settings:normal"/>
   <path d="m85.99 82.021c8.4877 0.10627-26.054-15.826-33.073-15.875" stop-color="#000000" style="font-variation-settings:normal"/>
   <path d="m85.99 82.021c8.4877 0.10627 7.0188-2.5968 0-2.6458" stop-color="#000000" style="font-variation-settings:normal"/>
   <path d="m85.99 82.021c8.4877 0.10627 7.0188-6.5655 0-6.6146" stop-color="#000000" style="font-variation-settings:normal"/>
   <path d="m67.469 92.604c8.4877 0.10627 7.0188-6.5655 4e-6 -6.6146" stop-color="#000000" style="font-variation-settings:normal"/>
   <path d="m67.469 92.604c8.4877 0.10627 7.0188-2.5968 0-2.6458" stop-color="#000000" style="font-variation-settings:normal"/>
   <path d="m67.469 92.604c8.4877 0.10627-7.5333-26.409-14.552-26.458" stop-color="#000000" style="font-variation-settings:normal"/>
   <path d="m67.469 92.604c8.4877 0.10627 7.0188 2.6949 0 2.6458" stop-color="#000000" style="font-variation-settings:normal"/>
   <path d="m67.469 92.604c8.4877 0.10627-5.9573-47.444-12.976-47.493" stop-color="#000000" style="font-variation-settings:normal"/>
  </g>
  <g stroke="#747474">
   <path d="m31.75 59.531c8.4877 0.10627 29.761-14.371 22.743-14.42" stop-color="#000000" style="font-variation-settings:normal"/>
   <path d="m31.75 59.531c8.4877 0.10627 7.0188-3.9197 4e-6 -3.9688" stop-color="#000000" style="font-variation-settings:normal"/>
   <path d="m70.115 82.021c-11.059 0.040797-31.346-22.441-38.365-22.49" stop-color="#000000" style="font-variation-settings:normal"/>
  </g>
  <g stroke="#c7cf2f">
   <path d="m31.75 55.562c8.4877 0.10627 7.0188 6.6636-8e-6 6.6146" stop-color="#000000" style="font-variation-settings:normal"/>
   <path d="m31.75 89.958c8.4877 0.10627 7.0188 4.0178-4e-6 3.9688" stop-color="#000000" style="font-variation-settings:normal"/>
   <path d="m52.917 66.146c8.4877 0.10627 7.0188 9.3095 0 9.2604" stop-color="#000000" style="font-variation-settings:normal"/>
   <path d="m74.083 59.531c8.4877 0.10627 7.0188 4.0178 0 3.9687" stop-color="#000000" style="font-variation-settings:normal"/>
   <path d="m37.042 66.146c-15.875 1e-6 1.7271 27.83-5.2917 27.781" stop-color="#000000" style="font-variation-settings:normal"/>
   <path d="m38.618 45.111c-18.157 0.17354 0.15104 48.865-6.8677 48.816" stop-color="#000000" style="font-variation-settings:normal"/>
   <path d="m54.493 45.111c8.4877 0.10627-6.3079 17.8 3.7156 18.389" stop-color="#000000" style="font-variation-settings:normal"/>
   <path d="m38.618 45.111c-16.175 0.10989 21.318 30.344 14.299 30.295" stop-color="#000000" style="font-variation-settings:normal"/>
  </g>
 </g>
 <g transform="translate(-7.9375)" display="none">
  <g transform="translate(-9.2604 -26.458)" display="inline">
   <rect x="37.042" y="63.5" width="15.875" height="2.6458" display="inline" fill="#cd3431" fill-rule="evenodd" stop-color="#000000" stroke="#2f363f" stroke-width=".13229" style="font-variation-settings:normal"/>
   <text x="41.234787" y="65.563751" fill="#000000" font-family="sans-serif" font-size="10.583px" stroke-width=".26458" style="line-height:1.25" xml:space="preserve"><tspan x="41.234787" y="65.563751" font-family="'Source Sans Pro'" font-size="2.1167px" stroke-width=".26458" style="font-variant-caps:normal;font-variant-east-asian:normal;font-variant-ligatures:normal;font-variant-numeric:normal">materials</tspan></text>
  </g>
  <rect x="46.302" y="37.042" width="3.9026" height="2.6458" display="inline" fill="#cd3431" fill-rule="evenodd" stop-color="#000000" stroke="#2f363f" stroke-width=".13229" style="font-variation-settings:normal"/>
  <g transform="translate(-9.2604 -25.135)" display="inline">
   <rect x="37.042" y="66.146" width="15.875" height="2.6458" display="inline" fill="#2f83cc" fill-rule="evenodd" stop-color="#000000" stroke="#2f363f" stroke-width=".13229" style="font-variation-settings:normal"/>
   <text x="44.968582" y="68.209587" fill="#000000" font-family="sans-serif" font-size="10.583px" stroke-width=".26458" text-align="center" text-anchor="middle" style="line-height:1.25" xml:space="preserve"><tspan x="44.968582" y="68.209587" font-family="'Source Sans Pro'" font-size="2.1167px" stroke-width=".26458" text-align="center" text-anchor="middle" style="font-variant-caps:normal;font-variant-east-asian:normal;font-variant-ligatures:normal;font-variant-numeric:normal">textures</tspan></text>
  </g>
  <g transform="translate(-9.2604 -33.073)" display="inline">
   <rect x="37.042" y="66.146" width="15.875" height="2.6458" display="inline" fill="#3bd267" fill-rule="evenodd" stop-color="#000000" stroke="#2f363f" stroke-width=".13229" style="font-variation-settings:normal"/>
   <text x="44.968582" y="68.209587" fill="#000000" font-family="sans-serif" font-size="10.583px" stroke-width=".26458" text-align="center" text-anchor="middle" style="line-height:1.25" xml:space="preserve"><tspan x="44.968582" y="68.209587" font-family="'Source Sans Pro'" font-size="2.1167px" stroke-width=".26458" text-align="center" text-anchor="middle" style="font-variant-caps:normal;font-variant-east-asian:normal;font-variant-ligatures:normal;font-variant-numeric:normal">meshes</tspan></text>
  </g>
  <rect x="46.302" y="33.073" width="7.8714" height="2.6458" display="inline" fill="#3bd267" fill-rule="evenodd" stop-color="#000000" stroke="#2f363f" stroke-width=".13229" style="font-variation-settings:normal"/>
  <g transform="translate(-9.2604 -35.719)" display="inline">
   <rect x="37.042" y="60.854" width="15.875" height="2.6458" display="inline" fill="#a5c9ea" fill-rule="evenodd" stop-color="#000000" stroke="#2f363f" stroke-width=".13229" style="font-variation-settings:normal"/>
   <text x="45.033138" y="62.930618" fill="#000000" font-family="sans-serif" font-size="10.583px" stroke-width=".26458" text-align="center" text-anchor="middle" style="line-height:1.25" xml:space="preserve"><tspan x="45.033138" y="62.930618" font-family="'Source Sans Pro'" font-size="2.1167px" stroke-width=".26458" text-align="center" text-anchor="middle" style="font-variant-caps:normal;font-variant-east-asian:normal;font-variant-ligatures:normal;font-variant-numeric:normal">transforms</tspan></text>
  </g>
  <rect x="46.302" y="25.135" width="2.5797" height="2.6458" display="inline" fill="#a5c9ea" fill-rule="evenodd" stop-color="#000000" stroke="#2f363f" stroke-width=".13229" style="font-variation-settings:normal"/>
  <g transform="translate(-9.2604 -44.979)" display="inline">
   <rect x="37.042" y="66.146" width="15.875" height="2.6458" display="inline" fill="#2f83cc" fill-rule="evenodd" stop-color="#000000" stroke="#2f363f" stroke-width=".13229" style="font-variation-settings:normal"/>
   <text x="44.968582" y="68.209587" fill="#000000" font-family="sans-serif" font-size="10.583px" stroke-width=".26458" text-align="center" text-anchor="middle" style="line-height:1.25" xml:space="preserve"><tspan x="44.968582" y="68.209587" font-family="'Source Sans Pro'" font-size="2.1167px" stroke-width=".26458" text-align="center" text-anchor="middle" style="font-variant-caps:normal;font-variant-east-asian:normal;font-variant-ligatures:normal;font-variant-numeric:normal">parents</tspan></text>
  </g>
  <rect x="46.302" y="21.167" width="2.5797" height="2.6458" display="inline" fill="#2f83cc" fill-rule="evenodd" stop-color="#000000" stroke="#2f363f" stroke-width=".13229" style="font-variation-settings:normal"/>
  <g transform="translate(-9.2604 -37.042)" display="inline">
   <rect x="37.042" y="66.146" width="15.875" height="2.6458" display="inline" fill="#c7cf2f" fill-rule="evenodd" stop-color="#000000" stroke="#2f363f" stroke-width=".13229" style="font-variation-settings:normal"/>
   <text x="44.926247" y="68.158577" fill="#000000" font-family="sans-serif" font-size="10.583px" stroke-width=".26458" text-align="center" text-anchor="middle" style="line-height:1.25" xml:space="preserve"><tspan x="44.926247" y="68.158577" font-family="'Source Sans Pro'" font-size="2.1167px" stroke-width=".26458" text-align="center" text-anchor="middle" style="font-variant-caps:normal;font-variant-east-asian:normal;font-variant-ligatures:normal;font-variant-numeric:normal">physics</tspan></text>
  </g>
  <g transform="translate(-9.2604 -51.594)" display="inline">
   <rect x="37.042" y="66.146" width="15.875" height="2.6458" display="inline" fill="#747474" fill-rule="evenodd" stop-color="#000000" stroke="#2f363f" stroke-width=".13229" style="font-variation-settings:normal"/>
   <text x="44.968582" y="68.209587" fill="#000000" font-family="sans-serif" font-size="10.583px" stroke-width=".26458" text-align="center" text-anchor="middle" style="line-height:1.25" xml:space="preserve"><tspan x="44.968582" y="68.209587" font-family="'Source Sans Pro'" font-size="2.1167px" stroke-width=".26458" text-align="center" text-anchor="middle" style="font-variant-caps:normal;font-variant-east-asian:normal;font-variant-ligatures:normal;font-variant-numeric:normal">camera</tspan></text>
  </g>
  <g fill="#c7cf2f" fill-rule="evenodd" stroke="#2f363f" stroke-width=".13229">
   <rect x="46.335" y="29.104" width="5.2255" height="2.6458" display="inline" stop-color="#000000" style="font-variation-settings:normal"/>
   <rect x="51.627" y="29.104" width="5.2255" height="2.6458" display="inline" stop-color="#000000" style="font-variation-settings:normal"/>
   <rect x="62.243" y="29.104" width="5.2255" height="2.6458" display="inline" stop-color="#000000" style="font-variation-settings:normal"/>
   <rect x="56.918" y="29.104" width="5.2255" height="2.6458" display="inline" stop-color="#000000" style="font-variation-settings:normal"/>
  </g>
  <g fill="#2f83cc" fill-rule="evenodd" stroke="#2f363f" stroke-width=".13229">
   <rect x="49.014" y="21.167" width="2.5797" height="2.6458" display="inline" stop-color="#000000" style="font-variation-settings:normal"/>
   <rect x="51.66" y="21.167" width="2.5797" height="2.6458" display="inline" stop-color="#000000" style="font-variation-settings:normal"/>
   <rect x="54.306" y="21.167" width="2.5797" height="2.6458" display="inline" stop-color="#000000" style="font-variation-settings:normal"/>
   <rect x="56.918" y="21.167" width="2.5797" height="2.6458" display="inline" stop-color="#000000" style="font-variation-settings:normal"/>
   <rect x="56.918" y="21.167" width="2.5797" height="2.6458" display="inline" stop-color="#000000" style="font-variation-settings:normal"/>
  </g>
  <g fill="#a5c9ea" fill-rule="evenodd" stroke="#2f363f" stroke-width=".13229">
   <rect x="49.014" y="25.135" width="2.5797" height="2.6458" display="inline" stop-color="#000000" style="font-variation-settings:normal"/>
   <rect x="51.627" y="25.135" width="2.5797" height="2.6458" display="inline" stop-color="#000000" style="font-variation-settings:normal"/>
   <rect x="54.306" y="25.135" width="2.5797" height="2.6458" display="inline" stop-color="#000000" style="font-variation-settings:normal"/>
   <rect x="56.952" y="25.135" width="2.5797" height="2.6458" display="inline" stop-color="#000000" style="font-variation-settings:normal"/>
   <rect x="59.597" y="25.135" width="2.5797" height="2.6458" display="inline" stop-color="#000000" style="font-variation-settings:normal"/>
   <rect x="62.243" y="25.135" width="2.5797" height="2.6458" display="inline" stop-color="#000000" style="font-variation-settings:normal"/>
  </g>
  <g fill-rule="evenodd" stroke="#2f363f" stroke-width=".13229">
   <rect x="59.531" y="21.167" width="2.5797" height="2.6458" display="inline" fill="#2f83cc" stop-color="#000000" style="font-variation-settings:normal"/>
   <rect x="54.306" y="33.073" width="7.8714" height="2.6458" display="inline" fill="#3bd267" stop-color="#000000" style="font-variation-settings:normal"/>
   <rect x="62.21" y="33.073" width="7.8714" height="2.6458" display="inline" fill="#3bd267" stop-color="#000000" style="font-variation-settings:normal"/>
   <rect x="49.642" y="37.042" width="3.9026" height="2.6458" display="inline" fill="#cd3431" stop-color="#000000" style="font-variation-settings:normal"/>
   <rect x="52.983" y="37.042" width="3.9026" height="2.6458" display="inline" fill="#cd3431" stop-color="#000000" style="font-variation-settings:normal"/>
   <rect x="46.302" y="41.01" width="10.517" height="2.6458" display="inline" fill="#2f83cc" stop-color="#000000" style="font-variation-settings:normal"/>
   <rect x="56.918" y="41.01" width="10.517" height="2.6458" display="inline" fill="#2f83cc" stop-color="#000000" style="font-variation-settings:normal"/>
  </g>
 </g>
 <g transform="matrix(1.8788 0 0 1.913 -12.427 -75.924)" stroke-width=".52747">
  <rect x="6.6146" y="39.687" width="87.312" height="60.854" fill="#2f363f" stop-color="#000000"/>
 </g>
 <g transform="matrix(2 0 0 2 -13.229 -79.375)" fill="none" stroke="#2f83cc" stroke-width=".066146">
  <path d="m44.979 64.823c-0.04047 7.8835 32.952 0.94798 33.073 9.1281" stop-color="#000000" style="font-variation-settings:normal"/>
  <path d="m44.979 64.823c-0.04047 7.8835 14.431 11.664 14.552 19.844" stop-color="#000000" style="font-variation-settings:normal"/>
  <path d="m44.979 64.823c-0.04047 7.8835-21.287 15.5-21.167 23.68" stop-color="#000000" style="font-variation-settings:normal"/>
  <path d="m23.813 54.24c-0.04047 7.8835-6.7353 12.987-6.6146 21.167" stop-color="#000000" style="font-variation-settings:normal"/>
  <path d="m46.555 43.656c-0.04047 7.8835 19.47 6.2397 19.591 14.42" stop-color="#000000" style="font-variation-settings:normal"/>
  <path d="m46.555 43.656c-0.04047 7.8835-22.863 2.4032-22.743 10.583" stop-color="#000000" style="font-variation-settings:normal"/>
  <path d="m46.555 43.656c-0.04047 7.8835-1.6968 12.987-1.5761 21.167" stop-color="#000000" style="font-variation-settings:normal"/>
 </g>
 <g transform="matrix(2 0 0 2 -13.229 -66.146)">
  <rect x="37.042" y="63.5" width="15.875" height="2.6458" fill="#cd3431" fill-rule="evenodd" stop-color="#000000" stroke="#2f363f" stroke-width=".066146" style="font-variation-settings:normal"/>
  <text x="41.234787" y="65.563751" fill="#000000" font-family="sans-serif" font-size="10.583px" stroke-width=".13229" style="line-height:1.25" xml:space="preserve"><tspan x="41.234787" y="65.563751" font-family="'Source Sans Pro'" font-size="2.1167px" stroke-width=".13229" style="font-variant-caps:normal;font-variant-east-asian:normal;font-variant-ligatures:normal;font-variant-numeric:normal">material</tspan></text>
 </g>
 <g transform="matrix(2 0 0 2 -13.229 -76.729)">
  <rect x="37.042" y="66.146" width="15.875" height="2.6458" fill="#3bd267" fill-rule="evenodd" stop-color="#000000" stroke="#2f363f" stroke-width=".066146" style="font-variation-settings:normal"/>
  <text x="44.968582" y="68.209587" fill="#000000" font-family="sans-serif" font-size="10.583px" stroke-width=".13229" text-align="center" text-anchor="middle" style="line-height:1.25" xml:space="preserve"><tspan x="44.968582" y="68.209587" font-family="'Source Sans Pro'" font-size="2.1167px" stroke-width=".13229" text-align="center" text-anchor="middle" style="font-variant-caps:normal;font-variant-east-asian:normal;font-variant-ligatures:normal;font-variant-numeric:normal">mesh</tspan></text>
 </g>
 <g transform="matrix(2 0 0 2 -13.229 -66.146)">
  <rect x="37.042" y="66.146" width="15.875" height="2.6458" fill="#2f83cc" fill-rule="evenodd" stop-color="#000000" stroke="#2f363f" stroke-width=".066146" style="font-variation-settings:normal"/>
  <text x="44.968582" y="68.209587" fill="#000000" font-family="sans-serif" font-size="10.583px" stroke-width=".13229" text-align="center" text-anchor="middle" style="line-height:1.25" xml:space="preserve"><tspan x="44.968582" y="68.209587" font-family="'Source Sans Pro'" font-size="2.1167px" stroke-width=".13229" text-align="center" text-anchor="middle" style="font-variant-caps:normal;font-variant-east-asian:normal;font-variant-ligatures:normal;font-variant-numeric:normal">skin</tspan></text>
 </g>
 <g transform="matrix(2 0 0 2 52.917 -47.625)">
  <rect x="37.042" y="63.5" width="15.875" height="2.6458" fill="#cd3431" fill-rule="evenodd" stop-color="#000000" stroke="#2f363f" stroke-width=".066146" style="font-variation-settings:normal"/>
  <text x="41.234787" y="65.563751" fill="#000000" font-family="sans-serif" font-size="10.583px" stroke-width=".13229" style="line-height:1.25" xml:space="preserve"><tspan x="41.234787" y="65.563751" font-family="'Source Sans Pro'" font-size="2.1167px" stroke-width=".13229" style="font-variant-caps:normal;font-variant-east-asian:normal;font-variant-ligatures:normal;font-variant-numeric:normal">material</tspan></text>
 </g>
 <g transform="matrix(2 0 0 2 52.917 -58.208)">
  <rect x="37.042" y="66.146" width="15.875" height="2.6458" fill="#3bd267" fill-rule="evenodd" stop-color="#000000" stroke="#2f363f" stroke-width=".066146" style="font-variation-settings:normal"/>
  <text x="44.968582" y="68.209587" fill="#000000" font-family="sans-serif" font-size="10.583px" stroke-width=".13229" text-align="center" text-anchor="middle" style="line-height:1.25" xml:space="preserve"><tspan x="44.968582" y="68.209587" font-family="'Source Sans Pro'" font-size="2.1167px" stroke-width=".13229" text-align="center" text-anchor="middle" style="font-variant-caps:normal;font-variant-east-asian:normal;font-variant-ligatures:normal;font-variant-numeric:normal">mesh</tspan></text>
 </g>
 <g transform="matrix(2 0 0 2 29.104 -89.958)">
  <rect x="37.042" y="66.146" width="15.875" height="2.6458" fill="#c7cf2f" fill-rule="evenodd" stop-color="#000000" stroke="#2f363f" stroke-width=".066146" style="font-variation-settings:normal"/>
  <text x="44.926247" y="68.158577" fill="#000000" font-family="sans-serif" font-size="10.583px" stroke-width=".13229" text-align="center" text-anchor="middle" style="line-height:1.25" xml:space="preserve"><tspan x="44.926247" y="68.158577" font-family="'Source Sans Pro'" font-size="2.1167px" stroke-width=".13229" text-align="center" text-anchor="middle" style="font-variant-caps:normal;font-variant-east-asian:normal;font-variant-ligatures:normal;font-variant-numeric:normal">light</tspan></text>
 </g>
 <g transform="matrix(2 0 0 2 15.875 -26.458)">
  <rect x="37.042" y="63.5" width="15.875" height="2.6458" fill="#cd3431" fill-rule="evenodd" stop-color="#000000" stroke="#2f363f" stroke-width=".066146" style="font-variation-settings:normal"/>
  <text x="41.234787" y="65.563751" fill="#000000" font-family="sans-serif" font-size="10.583px" stroke-width=".13229" style="line-height:1.25" xml:space="preserve"><tspan x="41.234787" y="65.563751" font-family="'Source Sans Pro'" font-size="2.1167px" stroke-width=".13229" style="font-variant-caps:normal;font-variant-east-asian:normal;font-variant-ligatures:normal;font-variant-numeric:normal">material</tspan></text>
 </g>
 <g transform="matrix(2 0 0 2 15.875 -37.042)">
  <rect x="37.042" y="66.146" width="15.875" height="2.6458" fill="#3bd267" fill-rule="evenodd" stop-color="#000000" stroke="#2f363f" stroke-width=".066146" style="font-variation-settings:normal"/>
  <text x="44.968582" y="68.209587" fill="#000000" font-family="sans-serif" font-size="10.583px" stroke-width=".13229" text-align="center" text-anchor="middle" style="line-height:1.25" xml:space="preserve"><tspan x="44.968582" y="68.209587" font-family="'Source Sans Pro'" font-size="2.1167px" stroke-width=".13229" text-align="center" text-anchor="middle" style="font-variant-caps:normal;font-variant-east-asian:normal;font-variant-ligatures:normal;font-variant-numeric:normal">mesh</tspan></text>
 </g>
 <g transform="matrix(2 0 0 2 15.875 -26.458)">
  <rect x="37.042" y="66.146" width="15.875" height="2.6458" fill="#2f83cc" fill-rule="evenodd" stop-color="#000000" stroke="#2f363f" stroke-width=".066146" style="font-variation-settings:normal"/>
  <text x="44.968582" y="68.209587" fill="#000000" font-family="sans-serif" font-size="10.583px" stroke-width=".13229" text-align="center" text-anchor="middle" style="line-height:1.25" xml:space="preserve"><tspan x="44.968582" y="68.209587" font-family="'Source Sans Pro'" font-size="2.1167px" stroke-width=".13229" text-align="center" text-anchor="middle" style="font-variant-caps:normal;font-variant-east-asian:normal;font-variant-ligatures:normal;font-variant-numeric:normal">skin</tspan></text>
 </g>
 <g transform="matrix(2 0 0 2 -55.629 -29.104)">
  <rect x="37.042" y="66.146" width="15.875" height="2.6458" fill="#c7cf2f" fill-rule="evenodd" stop-color="#000000" stroke="#2f363f" stroke-width=".066146" style="font-variation-settings:normal"/>
  <text x="44.926247" y="68.158577" fill="#000000" font-family="sans-serif" font-size="10.583px" stroke-width=".13229" text-align="center" text-anchor="middle" style="line-height:1.25" xml:space="preserve"><tspan x="44.926247" y="68.158577" font-family="'Source Sans Pro'" font-size="2.1167px" stroke-width=".13229" text-align="center" text-anchor="middle" style="font-variant-caps:normal;font-variant-east-asian:normal;font-variant-ligatures:normal;font-variant-numeric:normal">light</tspan></text>
 </g>
 <g transform="matrix(2 0 0 2 -55.563 -97.896)">
  <rect x="37.042" y="66.146" width="15.875" height="2.6458" fill="#747474" fill-rule="evenodd" stop-color="#000000" stroke="#2f363f" stroke-width=".066146" style="font-variation-settings:normal"/>
  <text x="44.968582" y="68.209587" fill="#000000" font-family="sans-serif" font-size="10.583px" stroke-width=".13229" text-align="center" text-anchor="middle" style="line-height:1.25" xml:space="preserve"><tspan x="44.968582" y="68.209587" font-family="'Source Sans Pro'" font-size="2.1167px" stroke-width=".13229" text-align="center" text-anchor="middle" style="font-variant-caps:normal;font-variant-east-asian:normal;font-variant-ligatures:normal;font-variant-numeric:normal">camera</tspan></text>
 </g>
 <g transform="matrix(2 0 0 2 -55.563 -92.604)">
  <rect x="37.042" y="66.146" width="15.875" height="2.6458" fill="#c7cf2f" fill-rule="evenodd" stop-color="#000000" stroke="#2f363f" stroke-width=".066146" style="font-variation-settings:normal"/>
  <text x="44.926247" y="68.158577" fill="#000000" font-family="sans-serif" font-size="10.583px" stroke-width=".13229" text-align="center" text-anchor="middle" style="line-height:1.25" xml:space="preserve"><tspan x="44.926247" y="68.158577" font-family="'Source Sans Pro'" font-size="2.1167px" stroke-width=".13229" text-align="center" text-anchor="middle" style="font-variant-caps:normal;font-variant-east-asian:normal;font-variant-ligatures:normal;font-variant-numeric:normal">light</tspan></text>
 </g>
 <g transform="matrix(2 0 0 2 29.104 -84.667)">
  <rect x="37.042" y="60.854" width="15.875" height="2.6458" fill="#a5c9ea" fill-rule="evenodd" stop-color="#000000" stroke="#2f363f" stroke-width=".066146" style="font-variation-settings:normal"/>
  <text x="45.033138" y="62.930618" fill="#000000" font-family="sans-serif" font-size="10.583px" stroke-width=".13229" text-align="center" text-anchor="middle" style="line-height:1.25" xml:space="preserve"><tspan x="45.033138" y="62.930618" font-family="'Source Sans Pro'" font-size="2.1167px" stroke-width=".13229" text-align="center" text-anchor="middle" style="font-variant-caps:normal;font-variant-east-asian:normal;font-variant-ligatures:normal;font-variant-numeric:normal">transform</tspan></text>
 </g>
 <g transform="matrix(2 0 0 2 -68.792 -50.271)" opacity=".25">
  <rect x="37.042" y="60.854" width="15.875" height="2.6458" fill="#a5c9ea" fill-rule="evenodd" opacity="1" stop-color="#000000" stroke="#a5c9ea" stroke-width=".066146" style="font-variation-settings:normal"/>
  <text x="45.033138" y="62.930618" fill="#000000" font-family="sans-serif" font-size="10.583px" stroke-width=".13229" text-align="center" text-anchor="middle" style="line-height:1.25" xml:space="preserve"><tspan x="45.033138" y="62.930618" font-family="'Source Sans Pro'" font-size="2.1167px" stroke-width=".13229" text-align="center" text-anchor="middle" style="font-variant-caps:normal;font-variant-east-asian:normal;font-variant-ligatures:normal;font-variant-numeric:normal">transform</tspan></text>
 </g>
 <g transform="matrix(2 0 0 2 52.917 -52.917)">
  <rect x="37.042" y="60.854" width="15.875" height="2.6458" fill="#a5c9ea" fill-rule="evenodd" stop-color="#000000" stroke="#2f363f" stroke-width=".066146" style="font-variation-settings:normal"/>
  <text x="45.033138" y="62.930618" fill="#000000" font-family="sans-serif" font-size="10.583px" stroke-width=".13229" text-align="center" text-anchor="middle" style="line-height:1.25" xml:space="preserve"><tspan x="45.033138" y="62.930618" font-family="'Source Sans Pro'" font-size="2.1167px" stroke-width=".13229" text-align="center" text-anchor="middle" style="font-variant-caps:normal;font-variant-east-asian:normal;font-variant-ligatures:normal;font-variant-numeric:normal">transform</tspan></text>
 </g>
 <g transform="matrix(2 0 0 2 15.875 -31.75)">
  <rect x="37.042" y="60.854" width="15.875" height="2.6458" fill="#a5c9ea" fill-rule="evenodd" stop-color="#000000" stroke="#2f363f" stroke-width=".066146" style="font-variation-settings:normal"/>
  <text x="45.033138" y="62.930618" fill="#000000" font-family="sans-serif" font-size="10.583px" stroke-width=".13229" text-align="center" text-anchor="middle" style="line-height:1.25" xml:space="preserve"><tspan x="45.033138" y="62.930618" font-family="'Source Sans Pro'" font-size="2.1167px" stroke-width=".13229" text-align="center" text-anchor="middle" style="font-variant-caps:normal;font-variant-east-asian:normal;font-variant-ligatures:normal;font-variant-numeric:normal">transform</tspan></text>
 </g>
 <g transform="matrix(2 0 0 2 -55.563 -66.146)" stroke-width=".5">
  <g transform="translate(21.167 -2.6458)">
   <rect x="37.042" y="60.854" width="15.875" height="2.6458" fill="#a5c9ea" fill-rule="evenodd" stop-color="#000000" stroke="#2f363f" stroke-width=".066146" style="font-variation-settings:normal"/>
   <text x="45.033138" y="62.930618" fill="#000000" font-family="sans-serif" font-size="10.583px" stroke-width=".13229" text-align="center" text-anchor="middle" style="line-height:1.25" xml:space="preserve"><tspan x="45.033138" y="62.930618" font-family="'Source Sans Pro'" font-size="2.1167px" stroke-width=".13229" text-align="center" text-anchor="middle" style="font-variant-caps:normal;font-variant-east-asian:normal;font-variant-ligatures:normal;font-variant-numeric:normal">transform</tspan></text>
  </g>
 </g>
 <g transform="matrix(2 0 0 2 -55.562 -92.604)">
  <rect x="37.042" y="60.854" width="15.875" height="2.6458" fill="#a5c9ea" fill-rule="evenodd" stop-color="#000000" stroke="#2f363f" stroke-width=".066146" style="font-variation-settings:normal"/>
  <text x="45.033138" y="62.930618" fill="#000000" font-family="sans-serif" font-size="10.583px" stroke-width=".13229" text-align="center" text-anchor="middle" style="line-height:1.25" xml:space="preserve"><tspan x="45.033138" y="62.930618" font-family="'Source Sans Pro'" font-size="2.1167px" stroke-width=".13229" text-align="center" text-anchor="middle" style="font-variant-caps:normal;font-variant-east-asian:normal;font-variant-ligatures:normal;font-variant-numeric:normal">transform</tspan></text>
 </g>
 <g transform="matrix(2 0 0 2 -68.792 -55.563)">
  <rect x="37.042" y="66.146" width="15.875" height="2.6458" fill="#3bd267" fill-rule="evenodd" stop-color="#000000" stroke="#2f363f" stroke-width=".066146" style="font-variation-settings:normal"/>
  <text x="44.968582" y="68.209587" fill="#000000" font-family="sans-serif" font-size="10.583px" stroke-width=".13229" text-align="center" text-anchor="middle" style="line-height:1.25" xml:space="preserve"><tspan x="44.968582" y="68.209587" font-family="'Source Sans Pro'" font-size="2.1167px" stroke-width=".13229" text-align="center" text-anchor="middle" style="font-variant-caps:normal;font-variant-east-asian:normal;font-variant-ligatures:normal;font-variant-numeric:normal">mesh</tspan></text>
 </g>
 <g transform="matrix(2 0 0 2 -10.583 -113.77)" opacity=".25">
  <rect x="37.042" y="60.854" width="15.875" height="2.6458" fill="#a5c9ea" fill-rule="evenodd" opacity="1" stop-color="#000000" stroke="#a5c9ea" stroke-width=".066146" style="font-variation-settings:normal"/>
  <text x="45.033138" y="62.930618" fill="#000000" font-family="sans-serif" font-size="10.583px" stroke-width=".13229" text-align="center" text-anchor="middle" style="line-height:1.25" xml:space="preserve"><tspan x="45.033138" y="62.930618" font-family="'Source Sans Pro'" font-size="2.1167px" stroke-width=".13229" text-align="center" text-anchor="middle" style="font-variant-caps:normal;font-variant-east-asian:normal;font-variant-ligatures:normal;font-variant-numeric:normal">transform</tspan></text>
 </g>
 <g transform="matrix(2 0 0 2 -55.563 -23.813)" opacity=".25">
  <rect x="37.042" y="60.854" width="15.875" height="2.6458" fill="#a5c9ea" fill-rule="evenodd" opacity="1" stop-color="#000000" stroke="#a5c9ea" stroke-width=".066146" style="font-variation-settings:normal"/>
  <text x="45.033138" y="62.930618" fill="#000000" font-family="sans-serif" font-size="10.583px" stroke-width=".13229" text-align="center" text-anchor="middle" style="line-height:1.25" xml:space="preserve"><tspan x="45.033138" y="62.930618" font-family="'Source Sans Pro'" font-size="2.1167px" stroke-width=".13229" text-align="center" text-anchor="middle" style="font-variant-caps:normal;font-variant-east-asian:normal;font-variant-ligatures:normal;font-variant-numeric:normal">transform</tspan></text>
 </g>
 <g transform="matrix(2 0 0 2 -68.858 -44.979)">
  <rect x="37.042" y="63.5" width="15.875" height="2.6458" fill="#cd3431" fill-rule="evenodd" stop-color="#000000" stroke="#2f363f" stroke-width=".066146" style="font-variation-settings:normal"/>
  <text x="41.234787" y="65.563751" fill="#000000" font-family="sans-serif" font-size="10.583px" stroke-width=".13229" style="line-height:1.25" xml:space="preserve"><tspan x="41.234787" y="65.563751" font-family="'Source Sans Pro'" font-size="2.1167px" stroke-width=".13229" style="font-variant-caps:normal;font-variant-east-asian:normal;font-variant-ligatures:normal;font-variant-numeric:normal">material</tspan></text>
 </g>
 <g transform="translate(-5.353e-7 2.8443)">
  <path transform="scale(.26458)" d="m80 240.25c-6.525 0-11.825 5.2458-11.912 11.75v7h23.824v-7c-0.0876-6.5042-5.3871-11.75-11.912-11.75z" fill="#2f83cc" stop-color="#000000" stroke="#2f363f" stroke-width=".5" style="font-variation-settings:normal"/>
  <text x="21.217466" y="67.397049" fill="#000000" font-family="sans-serif" font-size="21.167px" stroke-width=".26458" text-align="center" text-anchor="middle" style="line-height:1.25" xml:space="preserve"><tspan x="21.217466" y="67.397049" font-family="'Source Sans Pro'" font-size="4.2333px" stroke-width=".26458" text-align="center" text-anchor="middle" style="font-variant-caps:normal;font-variant-east-asian:normal;font-variant-ligatures:normal;font-variant-numeric:normal">3</tspan></text>
 </g>
 <g transform="translate(55.562 -18.322)">
  <path transform="scale(.26458)" d="m80 240.25c-6.525 0-11.825 5.2458-11.912 11.75v7h23.824v-7c-0.0876-6.5042-5.3871-11.75-11.912-11.75z" fill="#2f83cc" stop-color="#000000" stroke="#2f363f" stroke-width=".5" style="font-variation-settings:normal"/>
  <text x="21.217466" y="67.397049" fill="#000000" font-family="sans-serif" font-size="21.167px" stroke-width=".26458" text-align="center" text-anchor="middle" style="line-height:1.25" xml:space="preserve"><tspan x="21.217466" y="67.397049" font-family="'Source Sans Pro'" font-size="4.2333px" stroke-width=".26458" text-align="center" text-anchor="middle" style="font-variant-caps:normal;font-variant-east-asian:normal;font-variant-ligatures:normal;font-variant-numeric:normal">5</tspan></text>
 </g>
 <g transform="translate(58.737 -60.656)">
  <path transform="scale(.26458)" d="m80 240.25c-6.525 0-11.825 5.2458-11.912 11.75v7h23.824v-7c-0.0876-6.5042-5.3871-11.75-11.912-11.75z" fill="#2f83cc" stop-color="#000000" stroke="#2f363f" stroke-width=".5" style="font-variation-settings:normal"/>
  <text x="21.217466" y="67.397049" fill="#000000" font-family="sans-serif" font-size="21.167px" stroke-width=".26458" text-align="center" text-anchor="middle" style="line-height:1.25" xml:space="preserve"><tspan x="21.217466" y="67.397049" font-family="'Source Sans Pro'" font-size="4.2333px" stroke-width=".26458" text-align="center" text-anchor="middle" style="font-variant-caps:normal;font-variant-east-asian:normal;font-variant-ligatures:normal;font-variant-numeric:normal">7</tspan></text>
 </g>
 <g transform="translate(97.896 -31.552)">
  <path transform="scale(.26458)" d="m80 240.25c-6.525 0-11.825 5.2458-11.912 11.75v7h23.824v-7c-0.0876-6.5042-5.3871-11.75-11.912-11.75z" fill="#2f83cc" stop-color="#000000" stroke="#2f363f" stroke-width=".5" style="font-variation-settings:normal"/>
  <text x="21.217466" y="67.397049" fill="#000000" font-family="sans-serif" font-size="21.167px" stroke-width=".26458" text-align="center" text-anchor="middle" style="line-height:1.25" xml:space="preserve"><tspan x="21.217466" y="67.397049" font-family="'Source Sans Pro'" font-size="4.2333px" stroke-width=".26458" text-align="center" text-anchor="middle" style="font-variant-caps:normal;font-variant-east-asian:normal;font-variant-ligatures:normal;font-variant-numeric:normal">0</tspan></text>
 </g>
 <g transform="translate(121.71 .19843)">
  <path transform="scale(.26458)" d="m80 240.25c-6.525 0-11.825 5.2458-11.912 11.75v7h23.824v-7c-0.0876-6.5042-5.3871-11.75-11.912-11.75z" fill="#2f83cc" stop-color="#000000" stroke="#2f363f" stroke-width=".5" style="font-variation-settings:normal"/>
  <text x="21.217466" y="67.397049" fill="#000000" font-family="sans-serif" font-size="21.167px" stroke-width=".26458" text-align="center" text-anchor="middle" style="line-height:1.25" xml:space="preserve"><tspan x="21.217466" y="67.397049" font-family="'Source Sans Pro'" font-size="4.2333px" stroke-width=".26458" text-align="center" text-anchor="middle" style="font-variant-caps:normal;font-variant-east-asian:normal;font-variant-ligatures:normal;font-variant-numeric:normal">6</tspan></text>
 </g>
 <g transform="translate(84.667 21.365)">
  <path transform="scale(.26458)" d="m80 240.25c-6.525 0-11.825 5.2458-11.912 11.75v7h23.824v-7c-0.0876-6.5042-5.3871-11.75-11.912-11.75z" fill="#2f83cc" stop-color="#000000" stroke="#2f363f" stroke-width=".5" style="font-variation-settings:normal"/>
  <text x="21.217466" y="67.397049" fill="#000000" font-family="sans-serif" font-size="21.167px" stroke-width=".26458" text-align="center" text-anchor="middle" style="line-height:1.25" xml:space="preserve"><tspan x="21.217466" y="67.397049" font-family="'Source Sans Pro'" font-size="4.2333px" stroke-width=".26458" text-align="center" text-anchor="middle" style="font-variant-caps:normal;font-variant-east-asian:normal;font-variant-ligatures:normal;font-variant-numeric:normal">2</tspan></text>
 </g>
 <g transform="translate(13.229 -39.489)">
  <path transform="scale(.26458)" d="m80 240.25c-6.525 0-11.825 5.2458-11.912 11.75v7h23.824v-7c-0.0876-6.5042-5.3871-11.75-11.912-11.75z" fill="#2f83cc" stop-color="#000000" stroke="#2f363f" stroke-width=".5" style="font-variation-settings:normal"/>
  <text x="21.217466" y="67.397049" fill="#000000" font-family="sans-serif" font-size="21.167px" stroke-width=".26458" text-align="center" text-anchor="middle" style="line-height:1.25" xml:space="preserve"><tspan x="21.217466" y="67.397049" font-family="'Source Sans Pro'" font-size="4.2333px" stroke-width=".26458" text-align="center" text-anchor="middle" style="font-variant-caps:normal;font-variant-east-asian:normal;font-variant-ligatures:normal;font-variant-numeric:normal">1</tspan></text>
 </g>
 <g transform="translate(13.229 29.303)">
  <path transform="scale(.26458)" d="m80 240.25c-6.525 0-11.825 5.2458-11.912 11.75v7h23.824v-7c-0.0876-6.5042-5.3871-11.75-11.912-11.75z" fill="#2f83cc" stop-color="#000000" stroke="#2f363f" stroke-width=".5" style="font-variation-settings:normal"/>
  <text x="21.217466" y="67.397049" fill="#000000" font-family="sans-serif" font-size="21.167px" stroke-width=".26458" text-align="center" text-anchor="middle" style="line-height:1.25" xml:space="preserve"><tspan x="21.217466" y="67.397049" font-family="'Source Sans Pro'" font-size="4.2333px" stroke-width=".26458" text-align="center" text-anchor="middle" style="font-variant-caps:normal;font-variant-east-asian:normal;font-variant-ligatures:normal;font-variant-numeric:normal">4</tspan></text>
 </g>
 <g transform="matrix(2 0 0 2 52.851 -37.042)">
  <rect x="37.042" y="63.5" width="15.875" height="2.6458" fill="#cd3431" fill-rule="evenodd" stop-color="#000000" stroke="#2f363f" stroke-width=".066146" style="font-variation-settings:normal"/>
  <text x="49.767071" y="65.563751" fill="#000000" font-family="sans-serif" font-size="10.583px" stroke-width=".13229" text-align="center" text-anchor="middle" style="line-height:1.25" xml:space="preserve"><tspan x="44.940006" y="65.563751" font-family="'Source Sans Pro'" font-size="2.1167px" stroke-width=".13229" text-align="center" text-anchor="middle" style="font-variant-caps:normal;font-variant-east-asian:normal;font-variant-ligatures:normal;font-variant-numeric:normal">material #2</tspan></text>
 </g>
 <g transform="matrix(2 0 0 2 52.851 -47.625)">
  <rect x="37.042" y="66.146" width="15.875" height="2.6458" fill="#3bd267" fill-rule="evenodd" stop-color="#000000" stroke="#2f363f" stroke-width=".066146" style="font-variation-settings:normal"/>
  <text x="44.968582" y="68.209587" fill="#000000" font-family="sans-serif" font-size="10.583px" stroke-width=".13229" text-align="center" text-anchor="middle" style="line-height:1.25" xml:space="preserve"><tspan x="44.968582" y="68.209587" font-family="'Source Sans Pro'" font-size="2.1167px" stroke-width=".13229" text-align="center" text-anchor="middle" style="font-variant-caps:normal;font-variant-east-asian:normal;font-variant-ligatures:normal;font-variant-numeric:normal">mesh #2</tspan></text>
 </g>
</svg>
