{
  "asset": {
    "version": "2.0"
  },
  "extensionsUsed": [
    "KHR_materials_unlit"
  ],
  "buffers": [
    {
      "uri": "materials-duplicate-removed.bin",
      "byteLength": 108
    }
  ],
  "bufferViews": [
    {
      "buffer": 0,
      "byteOffset": 0,
      "byteLength": 36,
      "byteStride": 12,
      "target": 34962
    },
    {
      "buffer": 0,
      "byteOffset": 36,
      "byteLength": 36,
      "byteStride": 12,
      "target": 34962
    },
    {
      "buffer": 0,
      "byteOffset": 72,
      "byteLength": 36,
      "byteStride": 12,
      "target": 34962
    }
  ],
  "accessors": [
    {
      "bufferView": 0,
      "componentType": 5126,
      "count": 3,
      "type": "VEC3",
      "min": [-1, -1, 0],
      "max": [1, 1, 0]
    },
    {
      "bufferView": 1,
      "componentType": 5126,
      "count": 3,
      "type": "VEC3",
      "min": [-1, -1, 0],
      "max": [1, 1, 0]
    },
    {
      "bufferView": 2,
      "componentType": 5126,
      "count": 3,
      "type": "VEC3",
      "min": [-1, -1, 0],
      "max": [1, 1, 0]
    }
  ],
  "meshes": [
    {
      "primitives": [
        {
          "attributes": {
            "POSITION": 0
          },
          "material": 1
        }
      ],
      "name": "First mesh"
    },
    {
      "primitives": [
        {
          "attributes": {
            "POSITION": 2
          },
          "material": 0
        }
      ],
      "name": "Third mesh that should get a material same as second"
    },
    {
      "primitives": [
        {
          "attributes": {
            "POSITION": 1
          },
          "material": 0
        }
      ],
      "name": "Second mesh, unfortunately the shared verted data get duplicated"
    }
  ],
  "materials": [
    {
      "pbrMetallicRoughness": {
        "baseColorFactor": [0.5, 0.25, 0.75, 1]
      },
      "name": "Duplicate material, this name is preserved"
    },
    {
      "extensions": {
        "KHR_materials_unlit": {}
      },
      "name": "Unique material"
    }
  ],
  "nodes": [
    {
      "mesh": 0
    },
    {
      "mesh": 1
    },
    {
      "mesh": 2
    }
  ],
  "scenes": [
    {
      "nodes": [0, 2, 1],
      "name": "Scene with three nodes"
    }
  ]
}
