{
  "asset": {
    "version": "2.0"
  },
  "buffers": [
    {
      "uri": "materials-pbr.bin",
      "byteLength": 72
    }
  ],
  "bufferViews": [
    {
      "buffer": 0,
      "byteOffset": 0,
      "byteLength": 36,
      "byteStride": 12,
      "target": 34962
    },
    {
      "buffer": 0,
      "byteOffset": 36,
      "byteLength": 36,
      "byteStride": 12,
      "target": 34962
    }
  ],
  "accessors": [
    {
      "bufferView": 0,
      "componentType": 5126,
      "count": 3,
      "type": "VEC3",
      "min": [-1, -1, 0],
      "max": [1, 1, 0]
    },
    {
      "bufferView": 1,
      "componentType": 5126,
      "count": 3,
      "type": "VEC3",
      "min": [-1, -1, 0],
      "max": [1, 1, 0]
    }
  ],
  "meshes": [
    {
      "primitives": [
        {
          "attributes": {
            "POSITION": 0
          },
          "material": 0
        }
      ]
    },
    {
      "primitives": [
        {
          "attributes": {
            "POSITION": 1
          },
          "material": 1
        }
      ]
    }
  ],
  "materials": [
    {
      "pbrMetallicRoughness": {
        "baseColorTexture": {
          "index": 0
        }
      },
      "name": "Red"
    },
    {
      "pbrMetallicRoughness": {
        "baseColorFactor": [0.5, 0.5, 0.5, 1],
        "baseColorTexture": {
          "index": 1
        }
      },
      "name": "DarkBlue"
    }
  ],
  "samplers": [
    {
      "wrapS": 10497,
      "wrapT": 10497,
      "minFilter": 9987,
      "magFilter": 9729
    }
  ],
  "textures": [
    {
      "sampler": 0,
      "source": 0
    },
    {
      "sampler": 0,
      "source": 1
    }
  ],
  "images": [
    {
      "uri": "materials-pbr.0.png",
      "name": "red2x2.png"
    },
    {
      "uri": "materials-pbr.1.png",
      "name": "blue4x4.png"
    }
  ],
  "nodes": [
    {
      "mesh": 0,
      "extras": {
        "visibility": true,
        "geometryTransformHelper": false
      },
      "name": "First"
    },
    {
      "mesh": 1,
      "extras": {
        "visibility": true,
        "geometryTransformHelper": false
      },
      "name": "Second"
    }
  ],
  "scenes": [
    {
      "nodes": [0, 1]
    }
  ],
  "scene": 0
}
