{
  "asset": {
    "version": "2.0"
  },
  "buffers": [
    {
      "uri": "mesh-passthrough-on-failure.bin",
      "byteLength": 72
    }
  ],
  "bufferViews": [
    {
      "buffer": 0,
      "byteOffset": 0,
      "byteLength": 72,
      "byteStride": 12,
      "target": 34962
    }
  ],
  "accessors": [
    {
      "bufferView": 0,
      "componentType": 5126,
      "count": 6,
      "type": "VEC3",
      "min": [-1, -1, 0],
      "max": [1, 1, 0]
    }
  ],
  "meshes": [
    {
      "primitives": [
        {
          "attributes": {
            "POSITION": 0
          }
        }
      ]
    }
  ]
}
