{
  "asset": {
    "version": "2.0"
  },
  "buffers": [
    {
      "uri": "two-quads.bin",
      "byteLength": 144
    }
  ],
  "bufferViews": [
    {
      "buffer": 0,
      "byteOffset": 0,
      "byteLength": 24,
      "target": 34963
    },
    {
      "buffer": 0,
      "byteOffset": 24,
      "byteLength": 48,
      "byteStride": 12,
      "target": 34962
    },
    {
      "buffer": 0,
      "byteOffset": 72,
      "byteLength": 24,
      "target": 34963
    },
    {
      "buffer": 0,
      "byteOffset": 96,
      "byteLength": 48,
      "byteStride": 12,
      "target": 34962
    }
  ],
  "accessors": [
    {
      "bufferView": 0,
      "componentType": 5125,
      "count": 6,
      "type": "SCALAR"
    },
    {
      "bufferView": 1,
      "componentType": 5126,
      "count": 4,
      "type": "VEC3",
      "min": [-10, -10, 10],
      "max": [10, 10, 10]
    },
    {
      "bufferView": 2,
      "componentType": 5125,
      "count": 6,
      "type": "SCALAR"
    },
    {
      "bufferView": 3,
      "componentType": 5126,
      "count": 4,
      "type": "VEC3",
      "min": [-1, -1, 0],
      "max": [1, 1, 0]
    }
  ],
  "meshes": [
    {
      "primitives": [
        {
          "indices": 0,
          "attributes": {
            "POSITION": 1
          }
        }
      ]
    },
    {
      "primitives": [
        {
          "indices": 2,
          "attributes": {
            "POSITION": 3
          }
        }
      ]
    }
  ],
  "nodes": [
    {
      "translation": [0, 0, 1],
      "mesh": 0
    },
    {
      "children": [2]
    },
    {
      "scale": [0.1, 0.1, 0.1],
      "mesh": 1
    }
  ],
  "scenes": [
    {
      "nodes": [0, 1]
    }
  ]
}
